<svg id="_9_bijzondere_gevallen" data-name="9 bijzondere gevallen" xmlns="http://www.w3.org/2000/svg" viewBox="0 0 300 300"><defs><style>.cls-1{fill:none;stroke:#000;stroke-linecap:round;stroke-linejoin:round;stroke-width:2px}</style></defs><title>illustraties Master Maker_4_mei</title><g id="lijf"><path class="cls-1" d="M175.53 137.22c-4.7-2.33-36.45-1.78-42.42 1.52-17.4 9.61-38 68.6-41.88 79.5 0 0-23.24 13.46-19.94 16.32 6.54 5.67 20.82-9.2 20.82-9.2s-2.76 7.72-1.69 8.86c2.49 2.64 5.86-10.42 8-13.74 8.45-12.83 26.26-45.74 30.93-60.17L128 197.62m58-8.55c-2.3-8.43-5.54-30.47-5.54-30.47m-8.75-21.6c4.19 8.92 8.83 38.8 12.71 46"/><path class="cls-1" d="M144.66 137.61s-6.28 20.82-5.37 27.78c.26 2 31.92 2 33.17 0 1.94-3.07-7.19-29.22-7.19-29.22m-26.39.83c-4.38 10.63-5.24 36.24-10.36 42.94m65.84 9.12c-6-11.56-11.61-23.29-13.93-30.46m-4.9-21.38c17.4 9.61 39.17 68.4 43.07 79.3 0 0 23.24 13.46 19.94 16.32-6.54 5.67-20.82-9.2-20.82-9.2s2.76 7.72 1.69 8.86c-2.49 2.64-5.86-10.42-8-13.74-3.61-5.48-8.92-14.61-14.18-24.4"/></g><g id="hoofd-2" data-name="hoofd"><circle cx="143.4" cy="112.54" r="2.22" transform="rotate(-9.65 143.341 112.5)"/><circle cx="164.4" cy="108.97" r="2.22" transform="rotate(-9.65 164.34 108.963)"/><path class="cls-1" d="M151.61 108.65l.82 15.79 5.54-1.35M141 87.3c.59 3.47 3.52 12.25 12.07 10.8m-1.63-14.89c.05 1.16 1.2 10.53 8.18 5.4m17.72 17.5c.69 2.22 5.32 6.64 10.05 2.53m-10.8 4.6l.95 11.52s.47 2.76 4.8 1.43m-51.9-14.94l2.3 12.24s.63 3.73-3.93 3.71m8.32-3.33s2 7.08 1.44 9.67c-.33 1.43-3.31 4.4-5.8-.91M134 93.44c2.6 8.33-1.21 13.4-8.8 8.75m35.14-18.08c.9 1.41 10.37 3.35 10.37-3m-40.43 28.99c2.6 8.33-1.21 13.4-8.8 8.75"/><circle class="cls-1" cx="153.66" cy="106.57" r="23.68"/><path class="cls-1" d="M172.73 93.08c3.09 8.16 10.91 10 14 1.67"/></g><g id="plank-2" data-name="plank"><path class="cls-1" d="M207.64 230.93l-107.41.65 14.99-23.31"/><path class="cls-1" d="M199.31 210.86l8.33 20.07-107.41.65 14.99-23.31h4.59"/><path class="cls-1" d="M100.23 231.58v9.14l107.41-.51v-9.28"/></g><g id="vis-3" data-name="vis"><path class="cls-1" d="M131.58 225.36l5.88-9.77m33.51-16.29l3.29-10.91m-26.78 3.77l5.88-9.76m26.18 21.73l5.88-9.77m-34.7 11.18l7.67-8.44m6.5 10.84l9.81-5.8m-33.29 8.17l8.2 7.93m5.21-11.53l7.14 8.88m9.01-2.68l11.06 2.73m-8.98 11.74l-4.16-10.61m-19.03 10.19l5.88-9.77m-21.22-18.57l-8.71-7.79m13.27 6.03l2.05-12.06m-2.05 21.09l5.88-9.77" id="Layer_125_copy_2" data-name="Layer 125 copy 2"/><path class="cls-1" d="M154.15 188.21c-5.4-1-10.29-1.3-13.65-.27-6 1.85-18.77 15.15-16.42 17.1 0 0-4.07-2.31-4.25 0-.42 5.24 5.26 8.52 5.26 8.52s-5.56 4.73-3.5 5.9 4.25-.44 4.25-.44 32.34 12.32 55 0c2.35-1.28 6.53-4.71 8-8.68a7.43 7.43 0 0 0 .36-4.45 6.89 6.89 0 0 0-.61-1.58 9.35 9.35 0 0 0-2.1-2.59 26.82 26.82 0 0 0-3.6-2.6 71.69 71.69 0 0 0-8.84-4.54"/><circle cx="129.6" cy="207.65" r="1.35"/><circle class="cls-1" cx="131.36" cy="206.09" r="3.31"/><path class="cls-1" d="M180.84 197.9c.91-13.78 17.2-6.17 18.68-8.84L192.91 201l9.61 8.39s-13.41 7-13.66.94m-36.06-17.67c.66-7.9 14.27-9.12 14.27-9.12s-3.36 9.91 3.53 12.58"/></g></svg>