<svg id="_11_bouwen" data-name="11 bouwen" xmlns="http://www.w3.org/2000/svg" viewBox="0 0 300 300"><defs><style>.cls-1,.cls-2{fill:none;stroke:#000;stroke-linecap:round;stroke-width:2px}.cls-1{stroke-linejoin:round}.cls-2{stroke-miterlimit:10}</style></defs><title>illustraties Master Maker_4_mei</title><g id="mannetje"><path id="arm_links" class="cls-1" d="M101.31 164.74c-4.36 6.77-4.17 29.19-4.17 29.19 4-8.6 18-16.57 21.26-23.83 0 0 3.59-4.73 9.16-5.44 6.21-.79 14.16 4.73 12.52 9.64-.85 2.54-4.1 3-4.87 1.73-.56-1 0-3.57-.62-4.65-.75-1.34-3.53-1.94-5.05-1.74-1.12.14-3.11 1.42-2.9 2.54s3.85 2.13 3.85 2.13 3.55 2 2.6 3.7c-.45.81-9.24-1.74-9.24-1.74s-16.79 33.45-31 32.93c-13-.47-15.45-61.23 1.12-64.24 5.62-1 33.49-.87 40.47-.87 2.52 0 7.56 0 11.05 8.84"/><g id="hoofd-2" data-name="hoofd"><circle cx="133.93" cy="118.15" r="2.05" transform="rotate(-10.17 133.905 118.163)"/><circle cx="113.51" cy="118.35" r="2.05" transform="rotate(-10.17 113.501 118.33)"/><circle class="cls-1" cx="118.11" cy="116.14" r="22.67" transform="rotate(-4.75 118.119 116.12)"/><path class="cls-1" d="M124.47 114.33l1.22 17.08-3.7-.16"/><g id="haar"><path class="cls-2" d="M140 106.1s-8.48-19.75-27.23-8.52C97 107 99.45 93.17 99.25 96.06m23.41-1.85s-9.31 6.56-7.37 10.82m-.91-7.58s-7.62 1.86-6.32-4.72"/><path class="cls-2" d="M116.23 93.54s-4 10.88-12.35 14.63c-5.73 2.57-10.7-1.53-12.4-3.81"/></g></g><path id="rechterarm" class="cls-1" d="M135.76 163.25l.95 3.29"/><path id="rechterzij" class="cls-1" d="M149.73 170.42l1.19 16.09"/></g><path class="cls-1" d="M64.7 208.02h23.97m10.27 0h11.98m1.25-.86s1.22 5.71 6 7.13 3.46-1.08 6.85-1.08c3.85 0 2.55 2.93 5.35 3.06 3.38.16 3.52-2.24 8.93-2.29 4.75 0 5.52 4.41 8.21 4.45 0 0 3.39 1 4.82-2.14 1.9-4.16 4.32.89 7.42.43 4.78-.71 1.5 4 4.78 4.14s3.62-7.58 6-8c3.6-.68 2 3.17 3.6 4.46 0 0 2.36.51 3-5s4-4.28 4-4.28h30.81" id="tafelrand"/><g id="vrouwtje"><path id="lijf" class="cls-1" d="M160.89 167.43l.31-5.13-7.48.34 11.81 10.63s-2.84 1.41 2.52 4.71c5.07 3.12 1.24 9.27-2.79 8.58-5.49-.94-5.49-8.66-5.49-8.66s-17.83-12.16-19.83-17.8c-3-8.33 27.91-15.1 39.84-15.1l12.22 1c11.93 0 52.54 31.65 40.74 35.26-7.4 2.26-23 3.56-33.09 4.44-3 .27-5.53.5-7.16.71 0 0-12.9 7.14-18.39 1.33-3.29-3.53 7.9-6.74 7.9-6.74-.36-4 9-2.42 10.51-2.42.6 0 4.29-.42 8.57-.94 6.73-.82 18.72-1.86 18.72-1.86s-11.89-9.26-17.66-9.93l-1.41 11.06"/><g id="hoofd-3" data-name="hoofd"><circle cx="185.35" cy="120.92" r="2.05" transform="rotate(-5.71 185.34 120.909)"/><circle cx="165.04" cy="122.5" r="2.05" transform="rotate(-5.71 165.057 122.51)"/><circle id="hoofd-4" data-name="hoofd" class="cls-1" cx="182.45" cy="117.33" r="22.67" transform="rotate(-5.71 182.502 117.35)"/><path id="neus" class="cls-1" d="M175.83 119.65l-1.17 13.68 4.92-.49"/><path id="pony" class="cls-1" d="M204 112.47c-9.82 5.12-38.14-2.44-38.78-8.84"/><path id="haar_links" class="cls-1" d="M205.21 113.91s9.62 18.55 5.55 20.56c-5.52 2.73-12.69-.71-12.69-.71"/><path id="haar_links-2" data-name="haar_links" class="cls-1" d="M159.8 118.15s-6.82 20.18-2.44 21.41c5.93 1.68 14.63-3.68 11.94-2.89"/></g><g id="kraagje"><path id="kraagje-2" data-name="kraagje" class="cls-1" d="M180.98 147.07l4.22 12.39 9.62-12.56"/><path id="kraagje-3" data-name="kraagje" class="cls-1" d="M181.03 147.07l-4.22 12.39-7.01-12.39"/></g><path id="rechterzij-2" data-name="rechterzij" class="cls-1" d="M199.07 186.62v20.54"/><path id="linkerzij" class="cls-1" d="M159.78 177.91l-2.43 13.53"/></g><g id="taart"><path class="cls-1" d="M170.72 199.18c5.61 1.16 9.93 2.76 9.93 4.66 0 3.86-15.33 7.94-34.24 7.94s-34.24-4.08-34.24-7.94 14.52-6.75 32.35-7m35.72 22.31c0 3.86-14.92 9-33.83 9s-34.64-5.14-34.64-9m44.88-21.99c.54 0 3.72.39 7.59 1m-52.07 5.67l-.4 15.32m68.88-15.32l-.41 15.32"/><path class="cls-1" d="M125.61 202.59c2.24 4.88 10.3 5.72 13 5.43s12.8-3.43 15.86-1.43 12-3.6 12-3.6"/></g><g id="spuitbus"><path class="cls-1" d="M165.53 194.36l-.97 7.8 3.4.84 3.94-6.64"/><path class="cls-1" d="M163.73 186.71l-.94 3.29c1.26 6.56 10.77 7.5 12.39 5.14a24.07 24.07 0 0 0 1.95-5.19m3.87-9.12s4.72-9.49 3.62-11.59c-2-3.78-11.31-7.06-14.8-4.59-1.46 1-4.33 10.52-4.33 10.52"/></g><g id="aardbei_2-2" data-name="aardbei 2"><path class="cls-1" d="M141.6 179.56c2.37 5.05 2.13 11.07-1.77 12.07-2.77.71-7.73-5.52-8.88-8 0 0-.35-4.3 5-5.68 4.8-1.29 5.65 1.61 5.65 1.61zm-9.28-5.5l2.89 3.85"/><circle cx="139.42" cy="181.97" r="1.05"/><circle cx="137.53" cy="188.6" r="1.05"/><circle cx="135.66" cy="183.11" r="1.05"/><circle cx="139.32" cy="185.76" r="1.05"/><circle cx="141.25" cy="188.6" r="1.05"/><circle cx="134.71" cy="186.8" r="1.05"/><circle cx="137.04" cy="179.88" r="1.05"/><circle cx="133.27" cy="183.11" r="1.05"/></g><g id="aardbei_1-2" data-name="aardbei 1"><path class="cls-1" d="M157 195.33c-2.26 5.1-7 8.86-10.28 6.57-2.35-1.63-.9-9.46.26-12 0 0 3-3.08 7.55 0 4.14 2.88 2.47 5.43 2.47 5.43zm-3.63-11.15l-1.01 4.71"/><circle cx="153.78" cy="195.26" r="1.05" transform="rotate(-40.95 153.765 195.254)"/><circle cx="147.53" cy="198.17" r="1.05" transform="rotate(-40.95 147.524 198.157)"/><circle cx="150.45" cy="193.17" r="1.05" transform="rotate(-40.95 150.443 193.159)"/><circle cx="150.86" cy="197.67" r="1.05" transform="rotate(-40.95 150.84 197.655)"/><circle cx="149.97" cy="200.98" r="1.05" transform="rotate(-40.95 149.966 200.975)"/><circle cx="147.05" cy="194.87" r="1.05" transform="rotate(-40.95 147.031 194.86)"/><circle cx="153.8" cy="192.09" r="1.05" transform="rotate(-40.95 153.788 192.088)"/><circle cx="148.89" cy="191.36" r="1.05" transform="rotate(-40.95 148.875 191.352)"/><path class="cls-1" d="M156.33 185.73l-3.79 2.54m-2.65-2.61l1.26 2.31"/></g></svg>