<svg id="_13_CDHO" data-name="13 CDHO" xmlns="http://www.w3.org/2000/svg" viewBox="0 0 300 300"><defs><style>.cls-1,.cls-2{fill:none;stroke:#000;stroke-width:2px}.cls-1{stroke-miterlimit:10}.cls-2{stroke-linecap:round;stroke-linejoin:round}</style></defs><title>illustraties Master Maker_4_mei</title><g id="weegschaal"><circle class="cls-1" cx="94.7" cy="162.65" r="34.67"/><circle class="cls-2" cx="94.82" cy="162.65" r="3.03"/><path class="cls-2" d="M114.79 117.55v7.7H73.85v-7.7"/><path class="cls-2" d="M138 106.56c0 6.07-5.51 11-43.89 11-40 0-43.89-4.92-43.89-11H138zm-61.26 10.99v7.7m35.09-7.7v7.7M57.82 214a7.68 7.68 0 0 1 7.65-7.65h58.93A7.68 7.68 0 0 1 132 214H57.82zm11.56-75.02v-13.73h50.33v13.29"/><path class="cls-2" d="M71.37 189.17c-8.06 4.1-6.54 17.29-6.54 17.29h60.05s.85-11.35-7.27-16.87m-22.72-56.63v3.88m18.31 44.22l2.88 2.87m-40.06-3.52l-2.82 2.68m-1.87-30.69l-3.49-1.95m51.33 2.67l2.89-1.65m-27.25 11.08l9.56-20.51-5.42 1.95m5.42-1.95l2.01 5.39"/><circle class="cls-2" cx="94.94" cy="162.65" r="30"/></g><g id="maatbeker"><path class="cls-2" d="M175.22 141.74a206 206 0 0 0 23.19 1m40.47-26.05h3.5c6.21 0 9.2 3.59 7.15 11.18l-8.46 29.95c-1 4-2.17 6.73-5.59 6.69h-1.25m-55.04-45.67l5.27 84.24m-10.8-85.2a186.62 186.62 0 0 0 24.75.89m-19.22 84.31c10 .93 10.38 1.08 19.83.89m-20.78-20.65a155.49 155.49 0 0 0 20 1m-21.45-21.17a180.35 180.35 0 0 0 21.62 1m-37.16-52.42l-12.89-3.01"/><path class="cls-2" d="M238.88 113.23s4.48-.13 6 0c6.29.43 10.27 7.08 8.53 13.14l-10.12 35.42A8.6 8.6 0 0 1 235 168h-1.83m-69.71-32.83l-15.1-26.45 12.49-1.3c.43-4.57 77.63-4.29 78 0"/><path class="cls-2" d="M220 213c-11.76 2-29.26 2.26-40.29 0-5.31-1.08-9.85-4.43-9.85-9.85l-9-95.72c.43 4.57 77.63 4.29 78 0l-9 95.72c0 5.41-4.51 8.94-9.86 9.85z"/></g></svg>