<svg id="_16_checklists" data-name="16 checklists" xmlns="http://www.w3.org/2000/svg" viewBox="0 0 300 300"><defs><style>.cls-1{fill:none;stroke:#000;stroke-linecap:round;stroke-linejoin:round;stroke-width:2px}</style></defs><title>illustraties Master Maker_4_mei</title><g id="kaart_achter" data-name="kaart achter"><path class="cls-1" d="M145 126.22l16.07-39.35a3.42 3.42 0 0 1 4.46-1.87l57.83 23.62a3.42 3.42 0 0 1 1.88 4.47l-35.76 87.55a3.42 3.42 0 0 1-4.48 1.86L151.87 189m13.42-88.75l37.03 15.12"/><path class="cls-1" d="M209.25 116.04l.34 4.46 6.91-5.46m-57.38-1.83l37.03 15.13m6.93.67l.34 4.46 6.91-5.46m-56.63-1.53l37.03 15.13m-38.86 1.41l32.81 13.4m-32.73 3.19l26.93 11m-27.01 4.13l21.71 8.87"/></g><g id="kaart_voor" data-name="kaart voor"><rect class="cls-1" x="82.55" y="126.03" width="69.32" height="101.41" rx="3.42" ry="3.42"/><path class="cls-1" d="M91.52 140.24h40m6.67-2l2 4 4.33-7.66m-53.81 20h40m6.66-2l2 4 4.34-7.67m-53 20h40m6.66 14l2 4 4.34-7.67m-53 5.67h40m-40 15.33h40m-40 14.04h40m7.48-15.53l2 4 4.33-7.66"/></g></svg>