<svg id="_19_colomns" data-name="19 colomns" xmlns="http://www.w3.org/2000/svg" viewBox="0 0 300 300"><defs><style>.cls-1{fill:none;stroke:#000;stroke-linecap:round;stroke-linejoin:round;stroke-width:2px}</style></defs><title>illustraties Master Maker_4_mei</title><path class="cls-1" d="M172.66 97.11c0 11.88-13.2 21.51-29.48 21.51-2.45 0-12.61 10.93-12.61 10.93s.16-12.83-2.22-13.84C119.58 112 113.7 105 113.7 97.11c0-11.88 13.2-21.51 29.48-21.51s29.48 9.63 29.48 21.51zm-38.35 55.74c0 9.46 10.52 17.05 23.49 17.14 7.54 0 14.4-2.55 18.73-6.71 2-1.91 16.18-5.9 16.18-5.9s-11.43-3.21-11.43-4.53c0-9.46-10.52-17.14-23.49-17.14s-23.48 7.68-23.48 17.14z"/><g id="vrouw_2"><circle class="cls-1" cx="214.22" cy="141.77" r="21.51"/><circle cx="201.52" cy="138.78" r="1.98"/><circle cx="217.85" cy="138.78" r="1.98"/><path class="cls-1" d="M210.09 138.86l-5.21 14.71 4.21.73m-26.72 69.46l2.93-34.09a20.54 20.54 0 0 1 20.49-20.55h14.27a20.54 20.54 0 0 1 20.49 20.55l2.93 34.42m-16.05-31.43l2.93 31.46m-31.22-31.46l-2.93 31.46m1.13-94.35c9.76 3.9 24.05-1.21 24.05-7.32m-.48 2.44c-.49 7.56 8.29 11.22 11.22 7.32"/></g><g id="vrouw_1"><path class="cls-1" d="M60 226.63s-.17-25.46 0-35.18c.19-11.27 18.46-21.38 29-21.38l8.55 12.44 9.06-12.44c10.5 0 28.76 10.11 29 21.38.17 9.72 0 35.18 0 35.18M75.43 196.4v29.23m43.84-29.23v29.23m-58.46-5.85h14.62m43.84 0h14.62"/><circle class="cls-1" cx="97.2" cy="142.82" r="22.01"/><circle cx="92.88" cy="141.47" r="1.98"/><circle cx="111.36" cy="139.75" r="1.98"/><path class="cls-1" d="M101.47 139.75l4.87 15.2-4.25.61m-3.28 37.92h12.67m-12.67 6.82h6.82m-17.32-76.87c0 3.2.87 9.33 8.75 9.33m.14-11.95c-.13 1 .52 10.15 7.56 6.62m14.55 16.41l-.19 11.31s0 3.44 4.08 2.72m-7.97-2.18L115 164s0 2.54 4.08 2m-43.89-22.75l.19 11.31s0 3.44-4.08 2.72m7.58-1.19l.19 8.35s0 2.54-4.08 2"/></g></svg>