<svg id="_21_met_dank_aan" data-name="21 met dank aan" xmlns="http://www.w3.org/2000/svg" viewBox="0 0 300 300"><defs><style>.cls-1,.cls-2{fill:none;stroke:#000;stroke-width:2px}.cls-1{stroke-linecap:round;stroke-linejoin:round}.cls-2{stroke-miterlimit:10}</style></defs><title>illustraties Master Maker_4_mei</title><g id="vis"><path class="cls-1" d="M160.65 198.56l-11.3-16.28m-59.97-24.51l-6.94-18.56m46.9 3.54l-11.3-16.29m-42.99 40.65l-13.1-12.07m63.26 11.28l-14.26-13.78m-10.05 19.54l-17.68-8.97m58.68 10.45l-13.33 14.67m-10.33-19.41l-11.4 16.21m-15.93-3.64l-18.89 5.98m22.55 21.45l3.61-19.49m35.84 11.13l-13.25-14.74m31.77-33.23l8.37-17.19m-16.47 14.65l-4.93-20.69m5.95 36.35l-11.31-16.28m-60.78 7.12c4-2.87 14.42-12 22.91-13.62m21.04-6.19c9.24-2.42 17.71-3.42 23.66-2 10.65 2.53 34.27 24.17 30.42 27.83 0 0 6.8-4.46 7.38-.48 1.31 9.05-8.18 15.37-8.18 15.37s10.17 7.58 6.75 9.85-7.43-.28-7.43-.28-54.73 25-95.44 6.19c-4.23-2-11.49-10.34-14.53-17.08"/><circle cx="160.83" cy="165.96" r="2.34" transform="rotate(-3.71 160.76 165.932)"/><circle class="cls-2" cx="158.87" cy="165.09" r="5.75" transform="rotate(-3.71 158.779 165.095)"/><path class="cls-1" d="M72.1 156.46c-3.1-23.81-30.54-8.76-33.42-13.23l12.82 20-15.73 15.61s24.41 7.66 24.17-2.84m60.22-31.79c-2-13.63-25.78-14.21-25.78-14.21s6.95 16.82-4.71 22.22"/></g><circle class="cls-2" cx="206.73" cy="182.36" r="7.43"/><circle class="cls-2" cx="187.86" cy="174.45" r="4.35"/><g id="hartje"><path class="cls-1" d="M238 143.1c.18-11.56-17.2-14.58-17.4-1.85-.19 12.36 13.54 14.13 17.07 23.13"/><path class="cls-1" d="M237.91 143.1c.18-11.56 17.65-14 17.45-1.3-.19 12.36-14 13.69-17.79 22.58"/><circle class="cls-2" cx="238.31" cy="145.51" r="31.37" transform="rotate(-72.11 238.293 145.507)"/></g></svg>