<svg id="_12_financien" data-name="12 financien" xmlns="http://www.w3.org/2000/svg" viewBox="0 0 300 300"><defs><style>.cls-1,.cls-3,.cls-5,.cls-8{fill:none}.cls-1,.cls-3,.cls-5,.cls-6,.cls-8{stroke:#000}.cls-1,.cls-3{stroke-linecap:round;stroke-linejoin:round}.cls-1,.cls-8{stroke-width:2.05px}.cls-2{font-size:25.17px}.cls-2,.cls-4,.cls-7{font-family:Bariol}.cls-3,.cls-5{stroke-width:2px}.cls-4{font-size:25.17px}.cls-5,.cls-6,.cls-8{stroke-miterlimit:10}.cls-6{stroke-width:.21px}.cls-7{font-size:20.99px;font-weight:700}</style></defs><title>illustraties Master Maker_4_mei</title><g id="pinpas"><path d="M122.52 202.03h63.92v5.82h-63.92z"/><path class="cls-1" d="M186.44 183.79v24.86a5.14 5.14 0 0 1-5.14 5.14h-53.64a5.14 5.14 0 0 1-5.14-5.14v-28.51a5.14 5.14 0 0 1 5.14-5.14h26.83"/></g><g id="_10_euro" data-name="10 euro"><text class="cls-2" transform="rotate(-27.1 421.329 -337.921)">10</text><path class="cls-3" d="M152.4 156.29l63.87-32.07 17.88 35.61-69.81 35.05-13.91-27.69"/></g><g id="_50_euro" data-name="50 euro"><path class="cls-3" d="M79.53 152.17l-5.89-1.27 8.42-38.95 22.13 4.78"/><text class="cls-4" transform="rotate(11.5 -644.505 676.45)">50</text><path class="cls-3" d="M121.68 120.52l36.74 7.94-8.42 38.95-51.16-11.06"/></g><g id="euro_5" data-name="euro 5"><circle class="cls-5" cx="98.08" cy="188.57" r="12.06"/><path class="cls-6" d="M94.94 190.66a3.19 3.19 0 0 0 3.52 2.79 3.63 3.63 0 0 0 3.13-1.38 1.13 1.13 0 0 1 .84-.46 1.13 1.13 0 0 1 .86 1.77 5.86 5.86 0 0 1-4.83 2.27c-3.21 0-5.27-1.51-5.89-5h-.33a.9.9 0 0 1 0-1.8h.14v-.92h-.14a.91.91 0 0 1 0-1.81h.31c.58-3.5 2.65-5.21 5.91-5.21a5.23 5.23 0 0 1 4.67 2.27 1.25 1.25 0 0 1 .21.69 1.08 1.08 0 0 1-1 1.11 1 1 0 0 1-.8-.42 3.51 3.51 0 0 0-3-1.47c-2 0-3.11 1-3.56 3h2.32a.91.91 0 0 1 0 1.81h-2.59v.92h2.59a.9.9 0 0 1 0 1.8h-2.36z"/></g><g id="euro_4" data-name="euro 4"><circle class="cls-5" cx="179.24" cy="116.61" r="12.06" transform="rotate(-25.98 179.259 116.616)"/><text class="cls-7" transform="matrix(.83602 -.4074 .43806 .89895 176.51 125.61)">€</text></g><g id="euro_3" data-name="euro 3"><circle class="cls-8" cx="215.21" cy="197.39" r="10.42" transform="rotate(-66.47 215.214 197.398)"/><path class="cls-6" d="M212 198a2.76 2.76 0 0 0 1.83 3.43 3.14 3.14 0 0 0 3 0 1 1 0 0 1 .83-.08 1 1 0 0 1 .07 1.69 5.08 5.08 0 0 1-4.61.13c-2.54-1.11-3.66-3-3-6l-.26-.11a.78.78 0 0 1 .62-1.43h.11l.32-.73h-.11a.78.78 0 0 1 .62-1.43l.25.11c1.67-2.58 3.89-3.21 6.49-2.08a4.52 4.52 0 0 1 2.92 3.41 1.09 1.09 0 0 1-.07.62.94.94 0 0 1-1.22.52.85.85 0 0 1-.49-.61 3 3 0 0 0-1.9-2.21 2.89 2.89 0 0 0-3.87 1.17l1.9.83a.78.78 0 0 1-.62 1.43l-2.05-.89-.32.73 2.05.89a.78.78 0 0 1-.62 1.43z"/></g><g id="euro_2" data-name="euro 2"><path class="cls-5" d="M83.73 148.27a10.42 10.42 0 1 1-4.61 14 10.42 10.42 0 0 1 4.61-14"/><path class="cls-6" d="M86.82 160.39a2.76 2.76 0 0 0 3.81.79 3.14 3.14 0 0 0 1.88-2.29 1 1 0 0 1 .47-.68 1 1 0 0 1 1.34 1 5.08 5.08 0 0 1-2.84 3.63c-2.48 1.25-4.66.89-6.49-1.54l-.26.13a.78.78 0 0 1-.7-1.39l.11-.05-.36-.71-.1.05A.78.78 0 0 1 83 158l.24-.12c-.92-2.93 0-5 2.54-6.32a4.52 4.52 0 0 1 4.49-.07 1.09 1.09 0 0 1 .43.45.94.94 0 0 1-.38 1.27.85.85 0 0 1-.78 0 3 3 0 0 0-2.92 0 2.89 2.89 0 0 0-1.62 3.7l1.85-.93a.78.78 0 0 1 .7 1.39l-2 1 .36.71 2-1a.78.78 0 0 1 .7 1.39z"/></g><g id="euro_1" data-name="euro 1"><path class="cls-6" d="M111.36 115.1a2.76 2.76 0 0 0 3 2.5 3.14 3.14 0 0 0 2.74-1.12 1 1 0 0 1 .74-.38 1 1 0 0 1 .69 1.54 5.08 5.08 0 0 1-4.23 1.84c-2.77-.08-4.52-1.44-5-4.45h-.3a.78.78 0 0 1 0-1.56h.12v-.8H109a.78.78 0 0 1 0-1.56h.27c.59-3 2.42-4.43 5.25-4.35a4.52 4.52 0 0 1 4 2.08 1.09 1.09 0 0 1 .17.6.94.94 0 0 1-.94.93.85.85 0 0 1-.68-.38 3 3 0 0 0-2.59-1.35 2.89 2.89 0 0 0-3.15 2.52l2.07.06a.78.78 0 0 1 0 1.56l-2.24-.07v.8l2.24.07a.78.78 0 0 1 0 1.56z"/><circle class="cls-5" cx="114.11" cy="113.38" r="10.42" transform="rotate(-88.32 114.12 113.383)"/></g></svg>