<svg id="_6_gereedschap" data-name="6 gereedschap" xmlns="http://www.w3.org/2000/svg" viewBox="0 0 300 300"><defs><style>.cls-1,.cls-2,.cls-3{fill:none}.cls-1,.cls-2,.cls-3,.cls-4{stroke:#000;stroke-width:2px}.cls-1,.cls-3{stroke-linecap:round}.cls-1{stroke-linejoin:round}.cls-2,.cls-3,.cls-4{stroke-miterlimit:10}.cls-4{fill:#fff}</style></defs><title>illustraties Master Maker_4_mei</title><g id="mes"><path class="cls-1" d="M238.56 223.58a2.15 2.15 0 0 1-2.45 1.77 2.1 2.1 0 0 1-1.83-2.37 2.15 2.15 0 0 1 2.45-1.77 2.1 2.1 0 0 1 1.83 2.37zm2.63-59.58l-1.94-79.56c-24.74-1.29-10.36 81.51-10.31 81.92"/><path class="cls-1" d="M244.25 231.19c-1.53-12.31-3.05-51.44-2-65.12.27-3.42-14.12 1.49-14.12 1.49s-3 7.82-.09 10.87c6.67 6.91 2.6 19.31 1.7 27.1-.42 3.64-2.44 19.81-.24 22.16 2.83 3.01 14.96 5.19 14.75 3.5z"/></g><g id="pepermolen"><path class="cls-2" d="M116.63 203.31h32.08a5 5 0 0 1 5 5v20.54a3 3 0 0 1-3 3h-36.08a3 3 0 0 1-3-3v-20.54a5 5 0 0 1 5-5z"/><path class="cls-3" d="M150.86 149.79c-.86 3.62-5.21 10.21-5.08 17.85.22 13.12 2.86 18.92 4.41 24.65 1.48 5.44-2 11-6.74 11h-21.83c-4.67 0-8-5.48-6.54-10.84 1.59-6 4.49-12.43 4.47-24.83 0-7.9-4.22-14.23-5.08-17.85"/><path class="cls-2" d="M149 150.66h-29.31c-4.57 0-6.92-2.83-6.92-6.28 0-3.46 2.35-6.28 5.22-6.28h29.35c2.87 0 5.22 2.83 5.22 6.28.01 3.45-2.34 6.28-3.56 6.28zm-10.82-58.49c0-2.73-2.47-3.23-5.51-3.23s-5.51.5-5.51 3.23 2.47 3.23 5.51 3.23 5.51-.5 5.51-3.23z"/><path class="cls-4" d="M132.67 95.4V98"/><path class="cls-2" d="M152.85 120.45c0 12-9 17.64-20.18 17.64s-20.18-5.65-20.18-17.64 9-21.71 20.18-21.71 20.18 9.72 20.18 21.71z"/></g><g id="lepel"><path class="cls-3" d="M197.88 185.5c-8.17-7.34-3.84-74.72-2.65-92.17.84-12.38-15.16-11.47-13.65 0 2.33 17.69 4.73 80.79 0 92.17"/><path class="cls-2" d="M197.89 185.49c7.9 3.62 13.47 12.33 13.47 22.5 0 13.42-9.69 24.29-21.65 24.29S168.06 221.4 168.06 208c0-10.06 5.45-18.69 13.22-22.38"/><ellipse class="cls-1" cx="189.7" cy="208.24" rx="16.97" ry="19.02"/><circle class="cls-1" cx="188.45" cy="91.34" r="2.57" transform="rotate(-81.71 188.448 91.341)"/></g><g id="klopper"><path class="cls-2" d="M77.14 232.89c2.89 0 5.26-4.33 5.26-9.61v-48.63c0-7.92-.33-4.17-5.13-4.1-3.47.05-5.38-5.09-5.38 4.1v48.63c-.01 5.28 2.36 9.61 5.25 9.61z"/><path class="cls-3" d="M73.56 168.58s-43.22-84.73 3.18-84.72c48.83 0 4 85.3 4 85.3"/><path class="cls-3" d="M74.84 168.58S46.15 83.85 77 83.86c32.41 0 2.63 85.3 2.63 85.3"/><path class="cls-3" d="M76.29 168.58s-12.42-84.73.91-84.72c14 0 1.14 85.3 1.14 85.3"/></g></svg>