<svg id="HvA_masters" data-name="HvA masters" xmlns="http://www.w3.org/2000/svg" viewBox="0 0 400 300"><defs><style>.cls-1,.cls-2,.cls-3{fill:none;stroke:#000}.cls-1,.cls-2{stroke-linecap:round;stroke-linejoin:round}.cls-1{stroke-width:2.03px}.cls-2,.cls-3{stroke-width:2px}.cls-3{stroke-miterlimit:10}</style></defs><title>illustraties Master Maker_4_mei</title><g id="kraam_2" data-name="kraam 2"><path class="cls-1" d="M298.68 140.32s6.73 15.18 13.46 0c0 0 7.52 14.94 13 0m-53.74-.43s7.73 16.23 14.46 1c0 0 7.52 14.94 13 0m26.28-.57s6.73 15.18 13.46 0c0 0 7.52 14.94 13 0m.59 0s6.73 15.18 13.46 0c0 0 7.58 15.18 13-.43"/><ellipse class="cls-2" cx="303.62" cy="169.79" rx="10.94" ry="2.13"/><path class="cls-2" d="M292.86 170.39v6.55a29.55 29.55 0 0 0 21.71.23v-6.55m7.99 5.13a18.48 18.48 0 0 1 4.64-7c3.86-3.47 10-5.08 19.36 1 13.07 8.55-19.54 12.66-24 8.15-.38-.37-.19-1.64 0-2.15zm8.67-3.04c-.6-1.55-.73-3.64-4-4m5.64-2.84s5.61 3.21 3.94 7.54"/><path class="cls-2" d="M346.56 169.76s7.92-7.85 15.5 3c.6.86 1.64 3.37 1 4.2-2.34 3-13.25 3.25-16.38 0m14.05-6.61l4.26.03m-50.43-.41l10.75.09m-35.86-.3l3.23.03m85.97-29.9H271.4l-.19-6.7s12.33-10.73 13.88-17.85h82.36c-.52 5.87 11.2 17.9 11.2 17.9v6.64z"/><path class="cls-2" d="M289.45 145.89v23.87l-7.47 13.69h90.24l-7.23-13.07-.5-27.49"/><path class="cls-2" d="M280.94 147.89l1.04 35.56v30.22m89.61-66.69l.63 36.47.46 31.47M271.2 133.19h107.45"/></g><g id="foodtruck"><path class="cls-3" d="M214 131.93v6.8m-43.92-9.06v9.06"/><circle cx="222.41" cy="122.95" r=".98" transform="rotate(-89.79 222.398 122.954)"/><circle class="cls-2" cx="222.82" cy="122.54" r="2.41" transform="rotate(-89.79 222.808 122.542)"/><path class="cls-2" d="M196.72 113.19l-4.68-3.91-9.83 2 2.64 2.32M220 130.69s-5.4-8.1.05-14.48"/><path class="cls-2" d="M161.6 120.24c5.16-3.3 18.61-7.11 35.13-7.05 21.22.08 38.4 7.54 38.39 10.24 0 3.28-17.24 10-38.46 9.95-16.47-.06-29.87-4-35-7.29-1.49-1-14.74 6.88-16.15 5.06-1-1.33 8.28-7.67 8.28-7.67s-10-6.74-8.23-7.47 14.61 5.17 16.08 4.23"/><circle class="cls-3" cx="234.19" cy="205.07" r="7.77"/><path class="cls-2" d="M248.41 160.04l-3.82 1.39h-12.73v-17.86l7.32-1.19m-76.04 37.49l-4.46 5.94h67.77l-5.38-5.38"/><circle class="cls-3" cx="165.84" cy="205.07" r="7.77"/><path class="cls-2" d="M163.14 149.52h58.5v30.35h-58.5z"/><circle class="cls-2" cx="165.84" cy="205.07" r="11.93"/><circle class="cls-2" cx="234.19" cy="205.07" r="11.93"/><path class="cls-2" d="M153.91 205.07h-8.59v-66.34h92L248.41 160s11.12 1.42 11.77 5.11a110.46 110.46 0 0 1 0 39.91h-14.06m-68.35.05h44.48"/></g><g id="kraam_1" data-name="kraam 1"><path class="cls-2" d="M87.45 154.82c4.45 7.44-2.85 7.37.31 16.18 1.17 3.27 5.91 4.84 9.6 4.81 6.91 0 10.32-8.14 6-12-4.78-4.2-4.36-3.89-4.2-7.47.11-2.5 1-8.09 6.14-8.09M92 160.42s1.71-11.2-5.5-11.2m8.6 10.11s-.65-13.85 6.3-15.79m3.86 23.95h3.95m13.66-29.87H15.62l-.19-6.7s12.33-10.73 13.88-17.85h82.36c-.52 5.87 11.2 17.9 11.2 17.9v6.64z"/><path class="cls-2" d="M33.66 137.62v29.87l-7.46 13.7h90.23l-7.22-13.07-.5-30.5"/><path class="cls-2" d="M25.16 137.62l1.04 43.57v30.22m89.61-72.7l.62 42.48.47 31.46m-47.18-45.16h16.74m-52.8 0h15.99m-34.23-36.56H121.2M49.65 167.2c-10.65 1.8-16.23 1.33-17.71 6.18m17.3-4.99s-6.18-.61-6.52 2.41"/><path class="cls-2" d="M66.95 170.55s-6-3.75-11-5c-3.31-.84-6.17-.57-6.5 2.62-.35 3.37 1.12 5.42 4.38 6.48 0 0 15.73 3.87 21.52 3.58s-8.4-7.68-8.4-7.68z"/><path class="cls-2" d="M49.65 167.2a28.32 28.32 0 0 1-3.85-.36c-3.75-.6-9-2.19-9.71-6.45m5.91-.72c-.44 2.52 3.81 7.18 3.81 7.18m-21.92 4.24c-4.48-6.61 27.29-2.93 25.54-2.94m.36.85a2.25 2.25 0 0 0 .53-2.37M57.5 155c-1.61 2 .73 5.84.73 5.84"/><path class="cls-2" d="M58.23 160.83a28.32 28.32 0 0 1-3.23-2.19c-3-2.35-3.54-3.44-3.68-7.56m5.97 10.59s-5.43-3.23-8.57-1.6m9.45 5.85a2.72 2.72 0 0 1-.85-3.31c3-5.55 9.7 2.94 9.7 2.94s7 5.21 7 7.83"/></g></svg>