<svg xmlns="http://www.w3.org/2000/svg" viewBox="0 0 300 41"><path d="M50.518 25.118h.503c.882 0 .901-.494.901-2.853v-6.332c0-2.357-.02-2.854-.921-2.854h-.483v-.534h5.678v.534h-.479c-.899 0-.92.495-.92 2.854v2.631h4.635v-2.63c0-2.358-.02-2.855-.92-2.855h-.479v-.534h5.679v.534h-.48c-.903 0-.922.495-.922 2.854v6.332c0 2.358.02 2.853.902 2.853h.5v.539h-5.679v-.539h.479c.9 0 .92-.494.92-2.853v-3.062h-4.635v3.062c0 2.358.021 2.853.92 2.853h.479v.539h-5.678v-.539zm17.269-4.087c0-3.666.812-4.272 1.787-4.272.979 0 1.792.608 1.792 4.272 0 3.205-.48 4.3-1.792 4.3-1.308 0-1.787-1.095-1.787-4.3m-2.763 0c0 2.887 1.622 4.925 4.55 4.925 2.931 0 4.553-2.038 4.553-4.925 0-2.862-1.622-4.912-4.553-4.912-2.928 0-4.55 2.05-4.55 4.912m13.638-1.659c0-1.037.054-2.613 1.472-2.613 1.355 0 1.355 1.798 1.355 2.725 0 .908-.15 2.283-1.364 2.283-1.409 0-1.463-1.338-1.463-2.395m.71 4.346c-.94 0-1.345-.136-1.345-.575 0-.392.255-.74.864-.74 2.392 0 5.258 0 5.258-3.209 0-.943-.427-1.612-1.298-2.352.317-.112.539-.184.816-.184.458 0 .146.975 1.253.975.626 0 .939-.494.939-1.049 0-.605-.332-1.157-.995-1.157-.884-.006-1.623.916-2.619.916-.425-.003-1.218-.224-2.216-.224-2.015 0-4.027.917-4.027 3.215 0 1.355.85 2.394 2.09 2.756v.038-.021c-.891.275-1.442 1.028-1.442 1.968 0 .686.333 1.301 1.106 1.579v.04c-.942.097-2.152.753-2.152 1.879 0 2.013 2.61 2.377 4.142 2.377 2.21 0 5.136-.838 5.136-3.515 0-2.323-1.946-2.718-3.327-2.718h-2.184zm.943 2.195c1.09 0 2.878.038 2.878 1.527 0 1.415-1.79 1.879-2.968 1.879-1.144 0-2.934-.259-2.934-1.721 0-1.647 1.79-1.685 3.024-1.685m9.097-5.377c0-1.816.072-3.777 1.6-3.777 1.362 0 1.362 1.776 1.362 3.777h-2.962zm5.838.534c0-2.864-1.086-4.95-4.164-4.95-2.93 0-4.553 2.05-4.553 4.916 0 2.883 1.622 4.922 4.553 4.922 2.31 0 3.75-1.183 3.988-3.456l-.817-.01c-.04 1.466-.98 2.84-2.581 2.84-2.101 0-2.264-1.947-2.264-3.8v-.46h5.838zm1.53 1.573h.59c.37 1.572 1.237 2.689 2.971 2.689.94 0 1.84-.558 1.84-1.51 0-1.18-.92-1.44-2.689-1.848-1.364-.315-2.713-.776-2.713-2.678 0-2.204 1.607-3.175 3.637-3.166.83 0 1.419.296 2.028.296.497 0 .774-.149.995-.305h.11v2.96h-.59c-.185-1.213-1.181-2.324-2.472-2.324-.902 0-1.823.335-1.823 1.467 0 .94.481 1.072 2.617 1.572 1.636.368 2.889.889 2.889 3.032 0 2.225-1.822 3.128-3.756 3.125-.865 0-1.807-.298-2.6-.298-.369 0-.74.176-.924.301h-.11v-3.313zm17.027-.063c-.26 2.277-1.53 3.375-3.81 3.375-2.988 0-4.353-2.238-4.353-5.011 0-3.483 2.49-4.823 4.7-4.823 2.545 0 3.304 1.378 3.304 2.028 0 .884-.464 1.495-1.427 1.495-.753 0-1.233-.539-1.233-1.275 0-.537.26-.629.26-.852 0-.407-.632-.76-1.053-.76-1.586 0-1.676 2.24-1.676 4.405 0 1.462-.02 4.17 2.026 4.17 1.676 0 2.32-1.252 2.45-2.762l.812.01zm1.012 2.538h.627c.552 0 .736-.237.736-1.247V13.716c0-1.01-.184-1.246-.736-1.246h-.627v-.54h4.02v5.735h.037c.535-.9 1.509-1.543 2.873-1.543 1.808 0 2.693 1.08 2.693 2.614v5.136c0 1.012.185 1.247.738 1.247h.407v.539h-4.944v-.539h.406c.55 0 .735-.237.735-1.247v-4.656c0-.904 0-1.959-1.18-1.959-1.765 0-1.765 2.033-1.765 3.18v3.436c0 1.012.186 1.248.738 1.248h.404v.538h-5.164v-.54zm14.761-4.087c0-3.666.808-4.272 1.785-4.272.98 0 1.789.608 1.789 4.272 0 3.205-.477 4.3-1.789 4.3-1.308 0-1.786-1.095-1.786-4.3m-2.762 0c0 2.887 1.619 4.925 4.548 4.925 2.931 0 4.553-2.038 4.553-4.925 0-2.862-1.622-4.912-4.553-4.912-2.93 0-4.548 2.05-4.548 4.912m13.34 0c0-3.666.812-4.272 1.79-4.272.977 0 1.786.608 1.786 4.272 0 3.205-.481 4.3-1.787 4.3-1.31 0-1.789-1.095-1.789-4.3m-2.762 0c0 2.887 1.619 4.925 4.551 4.925 2.927 0 4.547-2.038 4.547-4.925 0-2.862-1.62-4.912-4.547-4.912-2.932 0-4.551 2.05-4.551 4.912m10.068 4.087h.626c.553 0 .739-.237.739-1.243V13.719c0-1.012-.186-1.25-.739-1.25h-.626v-.54h4.025v11.946c0 1.007.186 1.243.734 1.243h.63v.539h-5.39v-.539zm19.967-8.162c-.68 0-.886.572-1.182 1.277l-2.245 5.448a23.95 23.95 0 0 0-.755 2.1h-1.235c-.167-.477-.332-.992-.518-1.464l-2.449-6.139c-.313-.797-.37-1.222-.902-1.222h-.312v-.536h5.044v.536h-.626c-.312 0-.626.076-.626.407 0 .091.057.315.168.627l1.804 4.707h.036l1.827-4.613c.09-.26.145-.463.145-.629 0-.312-.313-.498-.645-.498h-.444v-.535h2.914v.534zm6.342 6.187c0 1.59-.957 1.907-1.436 1.907-.941 0-1.269-.853-1.269-1.682 0-1.643.661-2.636 2.154-2.636.164 0 .312.02.551.076v2.335zm3.71-.034c0 .843 0 1.813-.59 1.813-.296 0-.464-.197-.464-.69v-5.503c0-2.152-2.014-2.608-3.777-2.608-1.3 0-3.712.383-3.712 2.125 0 .836.55 1.374 1.38 1.374.72 0 1.384-.466 1.384-1.243 0-.522-.407-.856-.407-1.062 0-.481.843-.555 1.247-.555.97 0 1.228.687 1.228 1.509v1.948c-.277-.02-.535-.02-.808-.02-2.007 0-4.658.81-4.658 3.185 0 1.694 1.305 2.57 2.886 2.57 1.013 0 2.158-.315 2.69-1.227.311.852 1.274 1.227 2.013 1.227 2.266 0 2.285-1.62 2.285-2.843h-.696zm1.363 2.009h.623c.554 0 .737-.237.737-1.247v-5.66c0-1.015-.183-1.254-.737-1.254h-.623v-.535h1.935c.684 0 1.348-.13 1.977-.301v1.633h.035c.737-1.044 1.62-1.633 2.98-1.633 1.813 0 2.697 1.08 2.697 2.614v5.136c0 1.011.186 1.247.736 1.247h.404v.539h-4.938v-.539h.405c.55 0 .733-.237.733-1.247v-4.656c0-.905 0-1.96-1.177-1.96-1.77 0-1.77 2.034-1.77 3.188v3.429c0 1.012.188 1.247.737 1.247h.406v.539h-5.163v-.54zm23.488-4.343h-4.222l2.192-5.265 2.03 5.265zm-.038 4.879h5.9v-.537h-.387c-.718 0-1.013-.734-1.236-1.324l-3.41-8.816a21.972 21.972 0 0 1-.845-2.609h-1.641c-.224.787-.5 1.488-.793 2.186l-3.596 8.63c-.61 1.458-.956 1.933-1.897 1.933v.537h3.982v-.537h-.5c-.626-.017-.997-.274-.997-.773 0-.455.225-1.126.483-1.751l.495-1.185h4.72l.478 1.241c.332.848.626 1.573.626 1.917 0 .534-.55.534-1.382.55v.538zm6.082-.536h.626c.552 0 .738-.237.738-1.247v-5.66c0-1.015-.186-1.254-.738-1.254h-.626v-.535h1.936c.683 0 1.35-.13 1.979-.301v1.633h.035c.736-1.044 1.618-1.633 2.98-1.633 1.255 0 2.179.459 2.529 1.633.79-1.138 1.55-1.633 3.076-1.633 1.805 0 2.693 1.08 2.693 2.614v5.136c0 1.011.185 1.247.737 1.247h.407v.539h-4.944v-.539h.403c.553 0 .739-.237.739-1.247v-4.656c0-.905 0-1.96-1.18-1.96-1.768 0-1.768 2.034-1.768 3.18v3.437c0 1.012.185 1.247.739 1.247h.406v.539H214.2v-.539h.406c.554 0 .737-.237.737-1.247v-4.656c0-.904 0-1.959-1.18-1.959-1.766 0-1.766 2.033-1.766 3.187v3.43c0 1.011.185 1.247.737 1.247h.404v.538h-5.163v-.54zm17.454-2.475h.593c.37 1.572 1.238 2.689 2.97 2.689.94 0 1.842-.558 1.842-1.51 0-1.18-.921-1.44-2.69-1.848-1.366-.315-2.713-.776-2.713-2.678 0-2.204 1.608-3.175 3.637-3.166.83 0 1.416.296 2.027.296.498 0 .773-.149 1-.305h.107v2.96h-.592c-.18-1.213-1.18-2.324-2.473-2.324-.9 0-1.82.335-1.82 1.467 0 .94.477 1.072 2.615 1.572 1.64.368 2.89.889 2.89 3.032 0 2.225-1.823 3.128-3.757 3.125-.865 0-1.805-.298-2.6-.298-.371 0-.736.176-.923.301h-.111v-3.313zm14.424-5.687h-1.928v5.949c0 1.109 0 1.919.847 1.919.695 0 .806-.683.827-1.328v-.591h.692v.404c0 1.842-.729 2.647-2.4 2.647-1.903 0-2.625-1.164-2.625-2.41v-6.59h-1.29v-.536c1.825-.11 2.989-1.877 3.395-3.54h.553v3.54h1.927v.536zm4.49 3.58c0-1.816.072-3.777 1.6-3.777 1.36 0 1.36 1.776 1.36 3.777h-2.96zm5.84.534c0-2.864-1.09-4.95-4.17-4.95-2.926 0-4.552 2.05-4.552 4.916 0 2.883 1.626 4.922 4.553 4.922 2.313 0 3.75-1.183 3.99-3.456l-.817-.01c-.04 1.466-.98 2.84-2.58 2.84-2.102 0-2.264-1.947-2.264-3.8v-.46h5.84zm5.159 2.8c0 1.01.181 1.247.736 1.247h.848v.535h-5.609v-.535h.626c.552 0 .736-.238.736-1.248V18.21c0-1.013-.184-1.254-.736-1.254h-.626v-.534h1.937c.682 0 1.348-.13 1.977-.303v2.097h.074c.404-.94 1.235-1.954 2.468-1.954.866 0 1.842.37 1.842 1.551 0 .866-.57 1.327-1.545 1.327-.443 0-1.219-.22-1.219-1.185 0-.347 0-.441-.218-.441-.519 0-1.291 1.197-1.291 3.168v3.187zm8.109-3.095c0-.893 0-3.74 1.395-3.74 1.744 0 1.89 2.553 1.89 3.813 0 1.22-.017 4.2-1.874 4.2-1.411 0-1.411-3.368-1.411-4.273m3.452 4.879h3.875v-.537h-.589c-.478 0-.735-.157-.735-1.269V11.931h-3.963v.537h.569c.698 0 .731.328.731 1.23v3.93h-.033c-.57-1.029-1.432-1.507-2.609-1.507-2.69 0-3.575 2.578-3.575 4.942 0 2.247.96 4.892 3.537 4.892 1.288 0 2.336-.45 2.76-1.633h.032v1.332zm10.394-2.511c0 1.59-.955 1.907-1.433 1.907-.94 0-1.273-.853-1.273-1.682 0-1.643.665-2.636 2.155-2.636.165 0 .312.02.551.076v2.335zm3.713-.034c0 .843 0 1.813-.59 1.813-.298 0-.463-.197-.463-.69v-5.503c0-2.152-2.013-2.608-3.778-2.608-1.302 0-3.714.383-3.714 2.125 0 .836.552 1.374 1.382 1.374.72 0 1.382-.466 1.382-1.243 0-.522-.406-.856-.406-1.062 0-.481.842-.555 1.246-.555.971 0 1.227.687 1.227 1.509v1.948c-.272-.02-.53-.02-.807-.02-2.008 0-4.66.81-4.66 3.185 0 1.694 1.31 2.57 2.891 2.57 1.013 0 2.155-.315 2.69-1.227.312.852 1.273 1.227 2.01 1.227 2.268 0 2.284-1.62 2.284-2.843h-.694zm1.362 2.009h.623c.558 0 .738-.237.738-1.247v-5.66c0-1.015-.18-1.254-.738-1.254h-.623v-.535h1.935c.683 0 1.35-.13 1.978-.301v1.633h.036c.737-1.044 1.62-1.633 2.978-1.633 1.257 0 2.181.459 2.53 1.633.793-1.138 1.545-1.633 3.075-1.633 1.808 0 2.696 1.08 2.696 2.614v5.136c0 1.011.188 1.247.737 1.247h.406v.539H294.2v-.539h.406c.555 0 .738-.237.738-1.247v-4.656c0-.905 0-1.96-1.178-1.96-1.769 0-1.769 2.034-1.769 3.18v3.437c0 1.012.185 1.247.738 1.247h.403v.539h-4.939v-.539h.402c.551 0 .739-.237.739-1.247v-4.656c0-.904 0-1.959-1.18-1.959-1.766 0-1.766 2.033-1.766 3.187v3.43c0 1.011.181 1.247.737 1.247h.403v.538h-5.163v-.54zM21.951 9.884c5.691 0 11.01 1.532 15.587 4.206l4.887-8.356C36.416 2.209 29.42.2 21.95.2 14.49.2 7.501 2.21 1.491 5.734l4.887 8.356A30.8 30.8 0 0 1 21.95 9.884z"/><path d="M26.47 14.482c-1.985-.021-8.004-.138-15.743 3.44-.987.458-1.685.84-1.853.596-.333-.528 2.128-2.618 4.767-4.146.955-.567 1.5-1.063 1.286-1.485-.318-.614-2.209-.74-7.486 1.96A29.7 29.7 0 0 0 .2 20.529l.86.813c.848-.898 1.763-1.729 2.695-2.543.623-.54 3.508-2.696 3.76-2.046.098.261-.087.641-1.108 2.037-.89 1.235-1.476 2.39-1.055 2.742.42.357.929.154 2.132-.509.892-.492 3.723-1.993 8.186-3.334 4.462-1.333 5.547-.826 5.656-.5.136.439-1.92 1.166-3.13 1.767-1.015.519-4.595 2.622-6.538 4.187 0 0 1.883 3.232 1.891 3.232 2.004-1.18 9.639-3.11 10.455-1.715.895 1.532-7.23 7.242-7.23 7.242l5.177 8.898s11.78-13.53 9.903-16.498c-1.894-2.953-8.985-2.406-11.783-2.141-.769.068-1.67.236-1.86-.144-.212-.42.031-2.11 9.485-4.35 2.103-.493 2.921-.751 2.806-1.681-.097-.798-2.047-1.49-4.032-1.504z"/></svg>