<svg id="_20_laatste_nieuws" data-name="20 laatste nieuws" xmlns="http://www.w3.org/2000/svg" viewBox="0 0 300 300"><defs><style>.cls-1{fill:none;stroke:#000;stroke-linecap:round;stroke-linejoin:round;stroke-width:2px}</style></defs><title>illustraties Master Maker_4_mei</title><g id="aardbei_3" data-name="aardbei 3"><path class="cls-1" d="M204.2 195.24c4.08-7.18 9.73-5.77 9.73-5.77 15.48 1.4 29.64 10.44 26.56 21.23-2.19 7.68-24.16 10.85-31.85 10.06a14.79 14.79 0 0 1-7.28-10"/><circle cx="217.76" cy="195.85" r="1.58" transform="rotate(-59.72 217.753 195.845)"/><circle cx="232.2" cy="213.09" r="1.58" transform="rotate(-59.72 232.181 213.091)"/><circle cx="210.75" cy="209.91" r="1.58" transform="rotate(-59.72 210.735 209.904)"/><circle cx="223.94" cy="204.24" r="1.58" transform="rotate(-59.72 223.923 204.24)"/><circle cx="235.17" cy="203.02" r="1.58" transform="rotate(-59.72 235.164 203.015)"/><circle cx="220.52" cy="212.85" r="1.58" transform="rotate(-59.72 220.508 212.85)"/><circle cx="207.7" cy="199.22" r="1.58" transform="rotate(-59.72 207.689 199.215)"/><circle cx="212.48" cy="219.58" r="1.58" transform="rotate(-59.72 212.469 219.572)"/><path class="cls-1" d="M204.21 195.24s-6.87-12.68-10-10.79c-2.2 1.31 3.29 9.69 3.29 9.69s-8.72-.58-9.16 1.7c-.57 2.93 10.06 6.46 10.06 6.46s-10.58.79-10.42 3.54c.13 2.38 9.32 2 9.32 2s-5.72 6-4.18 7.57 8.16-4.65 8.16-4.65 3.81-7.76 2.93-15.52z"/><circle cx="228.66" cy="195.27" r="1.58" transform="rotate(-59.72 228.654 195.271)"/></g><g id="aardbei_2" data-name="aardbei 2"><path class="cls-1" d="M229.69 146.44c-3.48-7-8.86-5.9-8.86-5.9-14.63.56-28.39 8.37-26 18.66 1.68 7.33 22.19 11.4 29.46 11a13.93 13.93 0 0 0 7.34-9"/><circle cx="216.91" cy="146.35" r="1.52" transform="rotate(-27.29 216.907 146.354)"/><circle cx="202.48" cy="161.86" r="1.52" transform="rotate(-27.29 202.48 161.848)"/><circle cx="222.81" cy="159.92" r="1.52" transform="rotate(-27.29 222.818 159.915)"/><circle cx="210.68" cy="153.94" r="1.52" transform="rotate(-27.29 210.682 153.937)"/><circle cx="200.18" cy="152.24" r="1.52" transform="rotate(-27.29 200.188 152.24)"/><circle cx="213.48" cy="162.21" r="1.52" transform="rotate(-27.29 213.473 162.205)"/><circle cx="226.21" cy="150.01" r="1.52" transform="rotate(-27.29 226.205 150.007)"/><circle cx="220.71" cy="168.92" r="1.52" transform="rotate(-27.29 220.716 168.936)"/><circle cx="206.68" cy="145.27" r="1.52" transform="rotate(-27.29 206.68 145.267)"/><path class="cls-1" d="M229.69 146.44s7.08-11.58 10-9.65c2 1.34-3.57 9-3.57 9s8.23-.12 8.54 2.05c.4 2.79-9.78 5.58-9.78 5.58s9.91 1.27 9.63 3.84c-.24 2.23-8.87 1.45-8.87 1.45s5.08 6 3.56 7.32-7.45-4.78-7.45-4.78-3.28-7.53-2.06-14.81z"/></g><g id="aardbei_1" data-name="aardbei 1"><path class="cls-1" d="M205.89 93.65c4.21-6.8 9.63-5.23 9.63-5.23 14.94 1.93 28.31 11.2 24.93 21.53-2.4 7.35-23.79 9.62-31.2 8.57a14.33 14.33 0 0 1-6.68-9.94"/><circle cx="219" cy="94.74" r="1.56" transform="rotate(-57.54 219.002 94.743)"/><circle cx="232.34" cy="111.96" r="1.56" transform="rotate(-57.54 232.347 111.967)"/><circle cx="211.69" cy="108.09" r="1.56" transform="rotate(-57.3 212.896 108.407)"/><circle cx="224.67" cy="103.09" r="1.56" transform="rotate(-57.54 224.669 103.093)"/><circle cx="235.59" cy="102.32" r="1.56" transform="rotate(-57.54 235.592 102.324)"/><circle cx="221.04" cy="111.3" r="1.56" transform="rotate(-57.54 221.047 111.309)"/><circle cx="209.13" cy="97.63" r="1.56" transform="rotate(-57.54 209.132 97.632)"/><circle cx="213.01" cy="117.52" r="1.56" transform="rotate(-57.3 214.234 117.878)"/><path class="cls-1" d="M205.9 93.65s-6.18-12.52-9.31-10.81c-2.18 1.19 2.83 9.51 2.83 9.51s-8.42-.88-8.93 1.31c-.66 2.82 9.5 6.62 9.5 6.62s-10.27.38-10.22 3c0 2.31 9 2.31 9 2.31s-5.76 5.64-4.33 7.17 8.07-4.21 8.07-4.21 3.96-7.33 3.39-14.9z"/><circle cx="229.57" cy="94.58" r="1.56" transform="rotate(-57.54 229.58 94.579)"/></g><g id="vis-2" data-name="vis"><path class="cls-1" d="M162.31 104.33c5.23 8.12 11.32 29.3 11.32 55.32 0 33.45-11.65 60.56-15.91 60.56-5.16 0-15.91-27.12-15.91-60.56 0-26 6.07-47.1 11.28-55.26C154.6 102 142.17 81.21 145 79c2.09-1.64 12.14 13 12.14 13s10.56-15.74 11.72-13-8.07 23.05-6.58 25.37m-16.1 92.07s12.74-8.56 22.82 0"/><path class="cls-1" d="M173.63 159.65l6.14-7.4-3.21-15.49-3.64 4.18m-17.99 51.29s-3-13.92-4.61-14.18c-7.58-1.21-1.81 16.48-1.81 16.48"/><circle class="cls-1" cx="160.63" cy="200.84" r="3.8"/><circle cx="159.98" cy="200.19" r="1.55"/><path class="cls-1" d="M153.86 208.14c2.7 3.14 1.08 7.33 3.87 12.07"/></g><g id="asperge_3" data-name="asperge 3"><path class="cls-1" d="M125 113.83v101.65c0 3.77-3.08 5.14-6.85 5.14-3.77 0-6.85-1.37-6.85-5.14V113.83c-2.78-3.82-3.62-11.65-1.39-12.44 1.82-.64 5.85 5.6 6.53 8.62"/><path class="cls-1" d="M108.83 101.86c-2.11-4.48-.68-8.39 1.65-8.88 1.9-.4 3.93 6.6 4.1 9.91M125 113.83c1.59-4.45 1.51-13.57-.86-13.69-1.92-.1-4 7-3.83 10.11"/><path class="cls-1" d="M114.24 105.2c.9-3.86 2.14-8.06 4.3-7.73 1.8.28 2.93 4 2.73 7.13m-8.69-9.87c-.45-4.93 1.91-7.11 4.27-6.77 1.92.27 1.44 6.33.48 9.49m1.01-.99c.12-5 3.26-7.14 4.62-4.9.49.81.77 5.3-.55 8.34"/><path class="cls-1" d="M122.89 100.2c.18-4.95 2.64-5.81 3.53-5.47 1.5.57 1.36 8 0 11.05m-8.08-15.52s2-7.11 4.88-6.31c2.51.7 1.6 10.77 1.6 10.77M110.48 93s-1.8-10.21 2.47-10.82c2.68-.38 2.4 5.77 2.4 5.77"/><path class="cls-1" d="M114.91 83.89s1-5.82 3.43-4.75 3 4.75 3 4.75"/></g><g id="asperge_2" data-name="asperge 2"><path class="cls-1" d="M100.4 113v101.62c0 3.77-3.08 5.14-6.85 5.14-3.77 0-6.85-1.37-6.85-5.14V113c-2.78-3.82-3.62-11.65-1.39-12.44 1.82-.64 5.85 5.6 6.53 8.62"/><path class="cls-1" d="M84.19 101c-2.11-4.48-.68-8.39 1.65-8.88 1.9-.4 3.93 6.6 4.1 9.91M100.4 113c1.59-4.45 1.51-13.57-.86-13.69-1.92-.1-4 7-3.83 10.11"/><path class="cls-1" d="M89.6 104.35c.9-3.86 2.14-8.06 4.3-7.73 1.8.28 2.93 4 2.73 7.13m-8.69-9.87c-.45-4.93 1.91-7.11 4.27-6.77 1.92.27 1.44 6.33.48 9.49m1.01-1c.12-5 3.26-7.14 4.62-4.9.49.81.77 5.3-.55 8.34"/><path class="cls-1" d="M98.25 99.34c.18-4.95 2.64-5.81 3.53-5.47 1.5.57 1.36 8 0 11.05M93.7 89.41s2-7.11 4.88-6.31c2.51.7 1.6 10.77 1.6 10.77m-14.34-1.74S84 81.92 88.31 81.31c2.68-.38 2.4 5.77 2.4 5.77"/><path class="cls-1" d="M90.27 83s1-5.82 3.43-4.75 3 4.75 3 4.75"/></g><g id="asperge_1" data-name="asperge 1"><path class="cls-1" d="M76 113v101.62c0 3.77-3.08 5.14-6.85 5.14-3.77 0-6.85-1.37-6.85-5.14V113c-2.78-3.82-3.62-11.65-1.39-12.44 1.82-.64 5.85 5.6 6.53 8.62"/><path class="cls-1" d="M59.78 101c-2.11-4.48-.68-8.39 1.65-8.88 1.9-.4 3.93 6.6 4.1 9.91M76 113c1.59-4.45 1.51-13.57-.86-13.69-1.92-.1-4 7-3.83 10.11"/><path class="cls-1" d="M65.18 104.35c.9-3.86 2.14-8.06 4.3-7.73 1.8.28 2.93 4 2.73 7.13"/><path class="cls-1" d="M63.53 93.88c-.45-4.93 1.91-7.11 4.27-6.77 1.92.27 1.44 6.33.48 9.49m1.01-1c.12-5 3.26-7.14 4.62-4.9.49.81.77 5.3-.55 8.34"/><path class="cls-1" d="M73.84 99.34c.18-4.95 2.64-5.81 3.53-5.47 1.5.57 1.36 8 0 11.05m-8.08-15.51s2-7.11 4.88-6.31c2.51.7 1.6 10.77 1.6 10.77m-14.34-1.74s-1.8-10.21 2.47-10.82c2.68-.38 2.4 5.77 2.4 5.77"/><path class="cls-1" d="M65.85 83s1-5.82 3.43-4.75 3 4.75 3 4.75"/></g></svg>