<svg data-name="Layer 1" xmlns="http://www.w3.org/2000/svg" viewBox="0 0 534.55 347.7"><title>logo mm_klein</title><path d="M330.58 347.69v-87.57q20.26 0 26.58-5.55t6.33-20.89V98.21l-78.73 249.48h-88.63l-80.12-236.28v125.1a44.59 44.59 0 0 0 1.39 12.39 13.35 13.35 0 0 0 4.95 7.2q3.57 2.59 10.13 3.31a159.44 159.44 0 0 0 16.46.71v87.57H0v-87.56q20.26 0 29-5.55t8.75-20.89V114.21q0-15.58-8.75-21.12T0 87.54V0h219.16l52.95 163.1 46-163.1h216.4v87.57q-20.26 0-28.89 5.55t-8.59 21.09v119.47q0 15.34 8.63 20.89t28.89 5.55v87.57h-204z" fill="#fff"/></svg>