<svg id="_14_NVAO" data-name="14 NVAO" xmlns="http://www.w3.org/2000/svg" viewBox="0 0 300 300"><defs><style>.cls-1,.cls-2{fill:none;stroke:#000;stroke-linecap:round;stroke-width:2px}.cls-1{stroke-linejoin:round}.cls-2{stroke-miterlimit:10}</style></defs><title>illustraties Master Maker_4_mei</title><g id="lijf"><path class="cls-1" d="M162.09 146.63c-11-.29-24.59.85-31.53 1.16-16.79.75-32.56 20.91-41.87 20.91m88.15-19.77a15.14 15.14 0 0 0-3.27-1.12"/><path id="arm_links" class="cls-1" d="M120.83 208.41l-.28-35.64c-3 2.08-35.42 12.35-35.42 12.35"/><path class="cls-1" d="M140.54 147.52c-2.34 1.57-12.05 15.67-13.68 30.19-.43 3.85-.42 30.64-.42 30.64m35.65-61.57s12 19.15 11.46 38.59l1.11 23.75m-12.06-61.6c8.13 4.23 16-3.49 13.55-6.18-3.87-4.3-13.22 5.66-13.22 5.66"/><path class="cls-1" d="M165.37 148.58c13.27 2.88 15.58 10.93 10.7 10.9-7.79 0-13.47-12-13.47-12m13.99 26.97c3.1 11.77 4.9 34.81 4.9 34.81m-4.65-60.33c14.22 9 16.57 31.63 19.58 60.33M88.69 168.7S78.8 143.63 78 128.9c-.47-8.15-3.11-9.49-4.26-12.48-.46-1.2-7.92-35.26-5.15.36 0 0-11.22.84-.42 16.38 6.14 8.83 5.21 52.9 17 52"/></g><g id="hoofd-2" data-name="hoofd"><circle cx="135.71" cy="111.92" r="2.25" transform="rotate(-60.55 135.713 111.92)"/><circle cx="156.74" cy="119.5" r="2.25" transform="rotate(-60.55 156.747 119.502)"/><circle class="cls-1" cx="152.79" cy="115.55" r="24.82" transform="rotate(-65.97 152.784 115.552)"/><path class="cls-1" d="M146.86 111.38l-7.43 17.22 3.88 1.17"/><g id="haar"><path class="cls-2" d="M133.77 97.26s15.91-17.34 31.23 1c12.9 15.47 15.38.27 14.54 3.32M156 91.25s7.25 10.15 3.7 13.85m3.69-7.52s7.2 4.68 8.24-2.59"/><path class="cls-2" d="M162.9 92.88s.2 12.69 7.47 19.59c5 4.73 11.61 2.28 14.19.54"/></g></g><path id="bord-2" data-name="bord" class="cls-1" d="M161.88 235.46c-3.83.26-7.86.39-12 .39-24.45 0-44.27-4.7-44.27-10.49s19.82-10.49 44.27-10.49c15.84 0 29.48 2.58 37.31 5.54"/><path class="cls-1" d="M105.11 209.9l120.47.33m-156.09-.41l13.82.02" id="tafel-2" data-name="tafel"/><g id="bordje"><path class="cls-1" d="M165.59 224.44l47.85-7.86 9.94 20.06-48.24 9.74-9.55-21.94z"/><path class="cls-1" d="M165.59 224.44l-6.68 19.84 13.98-2.95"/><path d="M181.36 226.48l6.8 12.41c.36.65.21 1.29-.32 1.41a1.41 1.41 0 0 1-1.1-.35l-10.49-8.21 4.89 8.65c.38.67.22 1.33-.34 1.45a1.86 1.86 0 0 1-1.74-1L171.75 228c-.41-.71-.24-1.39.36-1.48a1.58 1.58 0 0 1 1.2.41l10.77 8.55-4.8-8.68c-.38-.69-.23-1.35.34-1.44a2 2 0 0 1 1.74 1.12zm12.12 11.73L183 226.76a2 2 0 0 1-.34-.47c-.38-.71-.23-1.35.34-1.44a1.64 1.64 0 0 1 1.34.6l8.25 9.32-2.27-10.26a.66.66 0 0 1 .5-.87 1.84 1.84 0 0 1 1.61 1.09 1.56 1.56 0 0 1 .18.48l2.58 12.61a.69.69 0 0 1-.47.95 1.4 1.4 0 0 1-1.24-.56zm5.99-4.56l.57 3.12a.72.72 0 0 1-.44.94 1.78 1.78 0 0 1-1.65-1.39l-2.41-12.56a.67.67 0 0 1 .46-.89 1.56 1.56 0 0 1 1.23.62l9.48 11a2 2 0 0 1 .26.4c.3.61.18 1.2-.27 1.29a1.36 1.36 0 0 1-1.17-.57l-2.36-2.68zm-1.47-6.82l.93 4.54 2.53-.48zm6.46 2.29c-2.4-4.79-1.83-7.4 1.18-7.86s5.65 1.56 7.87 6.17 1.65 7-1.11 7.6-5.62-1.27-7.94-5.91zm1.77-.33c1.62 3.26 3.33 4.64 5.19 4.25s2-2.12.43-5.3-3.27-4.69-5.18-4.39-2.09 2.12-.44 5.44z"/></g><g id="glas-2" data-name="glas"><ellipse class="cls-1" cx="94.59" cy="240.52" rx="10.06" ry="3.01"/><path class="cls-1" d="M94.58 239.98l-.02-11.87m9.66-25.5c-2.1-2.74-16-3-19.43-.26"/><path class="cls-1" d="M85.4 202.77c-3.16-2.54-1 25 9.16 25.34 11.54.38 11.49-27.46 9.67-25.08-2.11 2.74-15.42 2.49-18.83-.26z"/></g></svg>