<svg id="_3_professionele_master" data-name="3 professionele master" xmlns="http://www.w3.org/2000/svg" viewBox="0 0 300 300"><defs><style>.cls-1,.cls-2{fill:none;stroke:#000;stroke-width:2px}.cls-1{stroke-linecap:round;stroke-linejoin:round}.cls-2{stroke-miterlimit:10}</style></defs><title>illustraties Master Maker_4_mei</title><g id="hoofd-3" data-name="hoofd"><circle cx="157.1" cy="133.6" r="2.11"/><circle cx="138.13" cy="133.38" r="2.11"/><path class="cls-1" d="M127.15 118.52a23.38 23.38 0 1 0 40.72 1.31m-21.47 11.45l3.07 16.62-3.92.14"/><path class="cls-1" d="M142.15 86.1s20.48-11 29.84-4.28c7.21 5.15-5.84 13.75-5.84 13.75l1.72 24.26s-25.72 9-40.71-1.31c0 0 1.06-15.75 1.18-20.44 0 0-14.53-8.16-9.3-17.34 3.29-5.77 26.19 3.88 30.44 12.42"/></g><g id="lijf"><path class="cls-1" d="M164.3 220.67l-8.14-63.58h-15.92l-2.6 3.5m73.07-13.1s.64-10.41 2.92-10.43c3.51 0 1.69 7.34 1.69 7.34s.54 4.11 4 4.21m-45.27 72.3l-4.67-40.59s32 9.15 40.07 3.57c3.12-2.15 5.55-27.22 5.55-27.22s3.46 1.12 9-4.39m-57.8 9.74l33.93 10.54m-43.52-12.19c6.73.56 9.59 1.65 9.59 1.65M124 186v-2.48c-7.21 3.44-17.6 26-17.6 26l26.83.27c.07.19 9-4.2 12.91-2.3 2.14 1 6.69 3.62 7.58 8.58.56 3.12-4.39.2-4.39.2s0 4.35-5.4 5.4c-9.18 1.8-11.34-3-11.34-3s-34.47 1.67-39-.92c-13.29-7.66 21.64-51 30.55-54.16a62.58 62.58 0 0 1 13.43-3m-13.7 48.53l.12-18.34"/><path class="cls-2" d="M200.13 172.6c5-4.32 10.58-25.1 10.58-25.1"/></g><path class="cls-1" d="M155.17 230.12l-7.19-9.45m4.89-2.37l8.53 11.82m-23.77-23L123 189.63m1.39-3.63c3.44-1 19 20.14 19 20.14M123 189.63s-2.08-2.61 1.37-3.58" id="lepel-2" data-name="lepel"/><path class="cls-1" d="M126.5 236.28s-13.39 4.94-6.57 7.21c9.18 3.05 19.44 1.56 22.13-.63a22.41 22.41 0 0 0 2.78-3.34m10.74-18.91c22.37 0 38.88 2.3 38.88 5.13s-18.13 5.13-40.5 5.13-40.5-2.3-40.5-5.13c0-1.93 8.42-3.61 20.87-4.49m60.13 4.49v18.25m-81-18.25v18.25" id="pan"/><g id="zoutbus"><circle cx="208.05" cy="127.39" r="1.06"/><circle cx="203.31" cy="131.52" r="1.06"/><circle cx="204.81" cy="133.87" r="1.06"/><circle cx="206.43" cy="130.63" r="1.06"/><circle cx="203.19" cy="137.11" r="1.06"/><circle cx="208.05" cy="133.87" r="1.06"/><circle cx="209.67" cy="130.63" r="1.06"/><circle cx="211.29" cy="127.39" r="1.06"/><path class="cls-1" d="M210.37 142.87a47.84 47.84 0 0 0-7.06-4.23c8.09-.29 9.93-7.54 9-13.7l20.86 13.55c4.52 4.34.88 13.33-6.28 13.84 0 0-3.38-.26-7.57-3.73m-7.04-23.65c-2-2.77-15.11 5.48-9 13.7"/></g></svg>