<svg id="_8_programma" data-name="8 programma" xmlns="http://www.w3.org/2000/svg" viewBox="0 0 300 300"><defs><style>.cls-1{fill:none;stroke:#000;stroke-linecap:round;stroke-linejoin:round;stroke-width:2px}</style></defs><title>illustraties Master Maker_4_mei</title><g id="lijf"><path class="cls-1" d="M159.27 147.28c-11.39-.3-24-1-31.1-.31-6.32.59-13.81 1.82-18.83 9.69m64.27-7.39a15.6 15.6 0 0 0-3.37-1.15m-35.18-1.44c-1.28 1.56-4.73 7.67-7.64 15.59m31.51-14.46a85.73 85.73 0 0 1 7 15"/><path class="cls-1" d="M158.93 147.81c9 5.32 17-2.69 14-6.37-3.8-4.59-13.63 5.84-13.63 5.84"/><path class="cls-1" d="M161.79 148.9c13.68 3 16.06 11.27 11 11.23-8-.05-13.89-12.32-13.89-12.32m14.71 1.46c5.78 2.13 9.31 4.06 11.56 7.62"/></g><g id="hoofd-3" data-name="hoofd"><circle cx="135.73" cy="124.66" r="2.32" transform="rotate(-60.55 135.74 124.66)"/><circle cx="158.54" cy="124.58" r="2.32" transform="rotate(-60.55 158.547 124.583)"/><circle class="cls-1" cx="148.82" cy="114.87" r="25.59" transform="rotate(-65.97 148.819 114.863)"/><path class="cls-1" d="M147.04 123.68l-1.73 12.35 4.17.14m-26.57-21.07s-6.11 19.58-2.23 24.34c4.68 5.74 14.3-1.77 14.3-1.77"/><path class="cls-1" d="M124.36 118.86c6.76 1.79 15.59-9.78 15.59-9.78s19.19 13.17 33.67 2.63c0 0 9 18.42 5.92 23.71-3.75 6.39-14.4.43-14.4.43"/></g><ellipse id="bord-2" data-name="bord" class="cls-1" cx="147.2" cy="230.88" rx="41.78" ry="10.67"/><path class="cls-1" d="M99.68 212.12l124.17.33m-160.88-.42l14.24.02" id="tafel-3" data-name="tafel"/><path class="cls-1" d="M146.64 168.22l-39.83-12.35-1.81-.56-17.06-5.33v51.98m59.95 9.84v-43.38l58.58-18.12-.23 61.27" id="menu"/><g id="glas-3" data-name="glas"><ellipse class="cls-1" cx="88.83" cy="243.67" rx="10.37" ry="3.11"/><path class="cls-1" d="M79.36 204.77c-3.26-2.62-1 25.77 9.44 26.12 11.89.39 11.84-28.3 10-25.85-2.2 2.82-15.92 2.55-19.44-.27zm9.47 38.35l-.03-12.24m9.97-26.28c-2.17-2.83-16.51-3.1-20-.27"/></g></svg>