<svg id="_4_stappen_intern" data-name="4 stappen intern" xmlns="http://www.w3.org/2000/svg" viewBox="0 0 300 300"><defs><style>.cls-1{fill:none;stroke:#000;stroke-linecap:round;stroke-linejoin:round;stroke-width:2px}.cls-2,.cls-3{stroke:#1d1d1b;stroke-miterlimit:10}.cls-2{stroke-width:1.71px}.cls-3{stroke-width:2.14px}</style></defs><title>illustraties Master Maker_4_mei</title><path class="cls-1" d="M121.58 161.21c5-3.8 9.4-7.17 13.8-9.91 7.69-4.79 15.3-7.68 25.57-7.68 0 0 14.55-.62 19.35 0 20.47 2.66 21.62 18.44 21.62 33.79 0 0 3.33 32.51-30.73 37.51l-25 3.19a14.35 14.35 0 0 1-11.19 5.28c-7.42 0-13-7-8.37-9.86s7.16-3.24 12.19-3.57c23.25-1.55 38.23-6.39 43.52-13.29 8.81-11.5 2.71-26.65 2.71-26.65l-8.05 29.2m-63.72-31.72c1.45-1.07 1.49-1.1 2.84-2.13m-8.25 6.05q2.83-2 5.41-3.92m-19.83 13.37c1.87-1.13.15 0 1.87-1.13m79.84 34.63s-3.39 19.92-2.81 21.47m-46.7-4.53l-1.16 7.02M91 189.53a21.94 21.94 0 0 1 12.84 9.68c.61 3.65-.34 7.21-8.16 7.21-6.89 0-6.87-.43-8.16-3.52s.14-14.34 3.48-13.37z" id="lijf"/><g id="hoofd-3" data-name="hoofd"><circle cx="176.28" cy="111.57" r="2.25"/><circle cx="156.87" cy="109.77" r="2.25"/><path class="cls-1" d="M157.23 96.14a24.45 24.45 0 1 0 41.07 17.92c0-13.5-10.13-25.83-25.48-24.45"/><path class="cls-1" d="M165.11 108.32l-5.81 16.69 4.03.77"/><g id="petje"><path class="cls-1" d="M197.67 114.5a77.46 77.46 0 0 0-15.57-12.08c-7.86-4.61-18.76-7.74-25.37-7.08"/><path class="cls-1" d="M184 103.36C173.05 84.72 146.55 78 143.17 83.78s12.07 11.1 12.07 11.1"/></g></g><path class="cls-1" d="M131 195c7.86-1.82 19.6-3.63 27.47-5.45-.19 6.79-.58 16.87-.58 16.87m-.18 11.53l-.67 6.65-26.81 6.98M93 190.11l.45-8.86L117.3 190l13.78 5.56-.48 15.82m-.11 12.47s-.17 3.6-.26 7.72l-17.85-6.72-12.71-4.79-7.21-2.72v-9.12m26.43-31.52v12.26m25.08 2.54v-15.05l-4.04-3.8-.05-6.52-15.82-.38-.63 5.1"/><path class="cls-1" d="M118.77 176.45l16.1 1.81-.09 15.9"/><path class="cls-1" d="M118.77 176.45l4.66-5.6 16.45 1.35-5.01 6.06m15.04-14.41c-5.66-15.55-6.55-24.06-14.27-24.93M148 163.57s-.81-9.48-5.47-9.14"/><path class="cls-1" d="M139.88 172.2c.68-5.2 3.36-8 8.53-8.41 4.9-.39 6.1 3.83 5.77 9.05-.49 7.86-4.45 18-4.45 18"/><path class="cls-1" d="M149.91 163.85a43.36 43.36 0 0 1-.55-5.9c-.16-5.81.77-14.14 7-16.42m2.73 8.67c-3.91.05-9.73 7.76-9.73 7.76m-12.55-31.8c8.69-8.59 12.08 40.25 11.59 37.62m-1.09.77a3.44 3.44 0 0 0 3.71.14m19.47 7.54c-3.49-1.87-8.59 2.77-8.59 2.77m0 0a43.36 43.36 0 0 1 2.4-5.41c2.7-5.15 4.19-6.29 10.35-7.66m-19.12 27.92S168.16 177 159 174.1c-2.3-.73-4.08 1-4.75 2.21m6.13-2.52s3.33-9.08 0-13.35M97 182.53l-1.71-6.22s12.16 5.51 23.63.39m-23.67-.39c12.13-8.18 25.46-3.74 25.46-3.74"/><path class="cls-1" d="M104.62 175.79s-.75-12-7.3-15.91c0 0-6.89-3.36-8-1.64s7.31 1.53 7.31 1.53-3.07-10.57-.34-10.41c0 0 5.1 7.23 1.62 10.92"/><path class="cls-1" d="M102.85 167.5s2-11 5-9.24-5 9.24-5 9.24zM121 161c-.32 1.85-1.71 4.18-6.79 3.46"/><path class="cls-1" d="M109 176.86a60.59 60.59 0 0 1 5.27-12.46c1.92-3.17 4.25-5.66 6.8-5.5a6.16 6.16 0 0 1 0 2"/><path class="cls-2" d="M116.37 163.2s2.82-3.89 3.67-2.18-3.67 2.18-3.67 2.18zm-10.72-.34s.89-4.72 2.39-3.54-2.39 3.54-2.39 3.54z"/><path class="cls-3" d="M97 157.69c-.19-1.24-1.08-7.53.19-5 1.69 3.31.08 6.51-.19 5z"/></svg>