<svg id="_7_tijdpad" data-name="7 tijdpad" xmlns="http://www.w3.org/2000/svg" viewBox="0 0 300 300"><defs><style>.cls-1,.cls-2{fill:none;stroke-miterlimit:10;stroke-width:2px}.cls-1,.cls-2,.cls-3{stroke:#000}.cls-2,.cls-3{stroke-linecap:round}.cls-3{stroke-linejoin:round;stroke-width:1.88px}</style></defs><title>illustraties Master Maker_4_mei</title><path class="cls-1" d="M204.9 178.3c0 48.09-23.93 53.22-53.45 53.22S98 226.4 98 178.3s23.93-87.08 53.45-87.08 53.45 38.99 53.45 87.08z"/><path class="cls-2" d="M98.16 184.68c-.15 11.88 106.75 11.26 106.44 0m-52.66 1.88v5.93m30.09-7.05v6.42m20.06-9.56v4.72m-80.26-1.13v4.67m-20.38-7.48v4.71"/><path class="cls-3" d="M151.94 197.82l-4.02 5.33h7.77l-3.75-5.33z"/><path class="cls-2" d="M172.6 186.32v5.54m-9.95-5.54v6.42m27.17-8.05v5.52m6.42-6.39v5.44m-55.31-2.7v5.93m-9.42-5.93v5.93m-18.68-7.23v4.27m-6.37-5.47v4.59"/></svg>