<svg id="_18_tips" data-name="18 tips" xmlns="http://www.w3.org/2000/svg" viewBox="0 0 300 300"><defs><style>.cls-1,.cls-2{stroke:#000;stroke-linecap:round;stroke-linejoin:round}.cls-1{fill:none;stroke-width:2px}.cls-2{stroke-width:2.05px}</style></defs><title>illustraties Master Maker_4_mei</title><g id="ober"><circle cx="142.12" cy="89.89" r="1.77"/><circle cx="158.29" cy="89.89" r="1.77"/><circle class="cls-1" cx="148.01" cy="92.45" r="18.41"/><path class="cls-1" d="M150.65 88.32l1.7 13.16h-2.59"/><path id="haar" class="cls-1" d="M144.19 69.77l.94 4.5 2.21-4.5.78 4.28 2.76-4.28v3.38l3.39-3.38-1.27 4.59"/><path class="cls-1" d="M126.4 168c-2.74-.6-4.93-1.51-6.06-2.87-4.23-5.07-.64-21.27 0-28.33 1-11.22 9.13-20.34 20.4-20.34h14.21c18.39 0 19.64 10.94 26.46 36.72 0 0 4.57-15.35 5.15-25.45.32-5.59 2.14-6.51 2.92-8.56.32-.83 5.43-24.19 3.53.24 0 0 7.7.57.29 11.23-4.21 6.06-3.09 36.06-11.18 35.43-11.19-.88-16.24-26.89-16.24-26.89"/><path class="cls-1" d="M150.56 159.73s6.07-.63 8.09-.63c2.65 0-4.62 3.46-2.65 3.17 7-1 12.33 1 12.33 3.57 0 6.19-17 2.85-17 2.85-1.14 0-.84.13-2.74.21"/><path class="cls-1" d="M165.64 168.9l-.64 82.53s-7.27 8.76-13.79.23v-55.9m14.67-56.57l-.2 23.85m-35.54 36.58l.31 51.81s7.32 8.18 13.62-.35l.54-51.08m-12.88-64.06c0 5-1.81 23.16-1.81 23.16M155 172.81s7.8.79 10.59-.59m-17.32-52.66v37.99"/><path class="cls-1" d="M150.56 157.86c-3.62-.42-1.88 41.34-1.88 41.34s-20.72 1-21.91 0-3.27-35.66 3.15-40.1c3.56-2.47 20.64-1.24 20.64-1.24zm4.17 12.8l.29 24.6h-5.6m1.14-37.4s1.58.13 1.66 1.24"/></g><g id="strikje"><circle cx="148.27" cy="116.58" r="2.98"/><path class="cls-2" d="M149.72 115.5l9.5-3.04v7.15l-9.61-1.61m-3.31-2.5l-9.49-3.04v7.15l9.61-1.61"/><path class="cls-1" d="M138.04 116.41l4.16 9.12 4.88-6.15m11.7-2.97l-4.15 9.12-4.88-6.15"/></g></svg>