<svg id="_15_visitatiebezoek" data-name="15 visitatiebezoek" xmlns="http://www.w3.org/2000/svg" viewBox="0 0 300 300"><defs><style>.cls-1{fill:none;stroke:#000;stroke-linecap:round;stroke-linejoin:round;stroke-width:2px}</style></defs><title>illustraties Master Maker_4_mei</title><g id="lijf"><path class="cls-1" d="M158.46 150c-10.82-.28-24.08.84-30.88 1.14-16.44.73-51.06 42.36-51.9 47.33-1.62 9.67 32 18 32 18s3.86 3 7.67 6l1.77 1.37c3.76 2.91 15.74-1.71 10.69-3.5l-4.14-5.35m49.23-62.78a14.82 14.82 0 0 0-3.2-1.1"/><path id="arm_links" class="cls-1" d="M132 217.64c.85-1.86-4.78-6-5.8-6.71-2-1.34-12.5-.08-12.5-.08s-17.16-9.14-21.7-13.16c0 0 22.84-20.09 25.75-22.13l.27 34.9"/><path class="cls-1" d="M137.36 150.82c-2.29 1.54-11.8 15.35-13.4 29.56-.42 3.77.66 28.93.66 28.93m33.84-59.21s11.71 18.75 11.23 37.8M159 150.82c8 4.14 15.64-3.42 13.27-6.06-3.79-4.21-13 5.54-13 5.54"/><path class="cls-1" d="M161.67 151.86c13 2.82 15.25 10.7 10.48 10.67-7.63 0-13.19-11.71-13.19-11.71m14.93 55.21l.56 5.17m-4.75-9.44v9.39"/><g id="mannetje"><path class="cls-1" d="M172.9 152.21c13.92 8.78 47.74 69.85 36.33 72.89-17.43 4.64-36.72-25.62-46.9-27.64-9-1.78-11.53-18.44-5.3-15.46 4.2 2 8.82 4.95 10.21 7.37"/><path id="arm_links-2" data-name="arm_links" class="cls-1" d="M163.19 184.63c1.05-2.82 6.28 2.72 6.49 3.92.8 4.47 16.3 16.65 24.9 20-9-9.09-19.65-27.36-21.68-29.77l1 15.32"/></g></g><path id="mes" class="cls-1" d="M127.85 220.27l5.35 1.42a13.58 13.58 0 0 0 6.85 3.28c7.38 1 12.73-4.83 12.73-4.83s-18.75-.41-29.07-5.22"/><g id="glas"><ellipse class="cls-1" cx="234.43" cy="233.87" rx="10.48" ry="3.14"/><path class="cls-1" d="M234.43 233.3l-.03-12.36m10.07-26.57c-2.19-2.86-16.69-3.13-20.24-.27"/><path class="cls-1" d="M224.87 194.54c-3.29-2.65-1.06 26 9.54 26.39 12 .4 12-28.6 10.07-26.13-2.19 2.87-16.06 2.6-19.61-.26z"/></g><g id="hoofd"><path class="cls-1" d="M165.89 132.94c4.21.71 8.29-2.67 9.11-7.55a9.09 9.09 0 0 0-3.23-8.87 10.16 10.16 0 0 0 1.13-3.25c.82-4.88-1.93-9.41-6.14-10.12a6.8 6.8 0 0 0-3 .17c0-.12.05-.23.07-.35.82-4.88-1.93-9.41-6.14-10.12a7.47 7.47 0 0 0-6.85 2.69 6.68 6.68 0 0 0-4.11-2.48 7.14 7.14 0 0 0-6.73 2.82 9.33 9.33 0 0 0-3.25-1.2c-5.8-1-11.42 3.68-12.55 10.4a14.29 14.29 0 0 0-.2 2.47 10.07 10.07 0 0 0-6.66 8.15c-.91 5.41 2.14 10.43 6.81 11.22"/><path class="cls-1" d="M125.12 121.19s7.71-2.49 7.21-8.39c0 0 7 1.18 9.05-3s4.64 5.33 11.26-.1c0 0 1.54 5.71 8.94 5.11 0 0 .07 7.69 4.64 5.72l-.22 7.54a20.74 20.74 0 0 1-40.9-6.88"/><circle cx="137.24" cy="120.31" r="2.09" transform="rotate(-80.45 137.242 120.31)"/><circle cx="155.21" cy="123.33" r="2.09" transform="rotate(-80.45 155.212 123.33)"/><path class="cls-1" d="M145.69 122.76l-.43 14.97-3.16-.53"/></g><g id="vork"><path class="cls-1" d="M150.36 169l-4.82-6.47"/><path id="vork-2" data-name="vork" class="cls-1" d="M158.46 182.71l-5.5-7.82s-3.81 1.87-6.72-1c-2.15-2.12 0 0-5.72-9l6.51 6.25s4.63-2 7.06-4.62l-5.33-5.72s-1.73-1.86 7.16 3.69c3.24 2 2.36 4.59-.18 8.94a61.72 61.72 0 0 0 10.32 14.47"/><path class="cls-1" d="M143.07 169s-6-.41-8.66-3.1 15-7.51 15-7.51l4.19.77z"/></g><g id="bord"><path class="cls-1" d="M132.11 215.84c4.68-.37 7.66-.42 12.87-.42 26 0 47.13 5 47.13 11.2S171 237.83 145 237.83s-47.13-5-47.13-11.2c0-2.64 5.38-6 11.79-7.94"/><path class="cls-1" d="M154.31 224.58s17.28-2.14 17.28 0-4.07 6.64-6.42 7.06c-3.36.6-16.06-5.12-16.06-5.12"/><path class="cls-1" d="M133.08 223.63s-21.4 7.1 1.65 4.94c30.1-2.81 16.44-7 16.44-7"/></g><path class="cls-1" d="M174.14 211.39l5.45.07m31.08.27l15.01.12m17.75.16l8.82.08m-191.71-1.72l28.54.24m37.11.35l47.95.43" id="tafel"/></svg>