<svg id="_9_bijzondere_gevallen" data-name="9 bijzondere gevallen" xmlns="http://www.w3.org/2000/svg" viewBox="0 0 300 300"><defs><style>.cls-1{fill:none;stroke:#000;stroke-linecap:round;stroke-linejoin:round;stroke-width:2px;}</style></defs><title>illustraties Master Maker_4_mei</title><g id="lijf"><path class="cls-1" d="M175.53,137.22c-4.7-2.33-36.45-1.78-42.42,1.52-17.4,9.61-38,68.6-41.88,79.5,0,0-23.24,13.46-19.94,16.32,6.54,5.67,20.82-9.2,20.82-9.2s-2.76,7.72-1.69,8.86c2.49,2.64,5.86-10.42,8-13.74,8.45-12.83,26.26-45.74,30.93-60.17L128,197.62"/><path class="cls-1" d="M186,189.07c-2.3-8.43-5.54-30.47-5.54-30.47"/><path class="cls-1" d="M171.71,137c4.19,8.92,8.83,38.8,12.71,46"/><path class="cls-1" d="M144.66,137.61s-6.28,20.82-5.37,27.78c0.26,2,31.92,2,33.17,0,1.94-3.07-7.19-29.22-7.19-29.22"/><path class="cls-1" d="M138.88,137c-4.38,10.63-5.24,36.24-10.36,42.94"/><path class="cls-1" d="M194.36,189.06c-6-11.56-11.61-23.29-13.93-30.46"/><path class="cls-1" d="M175.53,137.22c17.4,9.61,39.17,68.4,43.07,79.3,0,0,23.24,13.46,19.94,16.32-6.54,5.67-20.82-9.2-20.82-9.2s2.76,7.72,1.69,8.86c-2.49,2.64-5.86-10.42-8-13.74-3.61-5.48-8.92-14.61-14.18-24.4"/></g><g id="hoofd-2" data-name="hoofd"><circle cx="143.4" cy="112.54" r="2.22" transform="translate(-16.83 25.62) rotate(-9.65)"/><circle cx="164.4" cy="108.97" r="2.22" transform="translate(-15.94 29.09) rotate(-9.65)"/><polyline class="cls-1" points="151.61 108.65 152.43 124.44 157.97 123.09"/><path class="cls-1" d="M141,87.3c0.59,3.47,3.52,12.25,12.07,10.8"/><path class="cls-1" d="M151.44,83.21c0.05,1.16,1.2,10.53,8.18,5.4"/><path class="cls-1" d="M177.34,106.11c0.69,2.22,5.32,6.64,10.05,2.53"/><path class="cls-1" d="M176.59,113.24l0.95,11.52s0.47,2.76,4.8,1.43"/><path class="cls-1" d="M130.44,111.25l2.3,12.24s0.63,3.73-3.93,3.71"/><path class="cls-1" d="M137.13,123.87s2,7.08,1.44,9.67c-0.33,1.43-3.31,4.4-5.8-.91"/><path class="cls-1" d="M134,93.44c2.6,8.33-1.21,13.4-8.8,8.75"/><path class="cls-1" d="M160.34,84.11c0.9,1.41,10.37,3.35,10.37-3"/><path class="cls-1" d="M130.28,110.1c2.6,8.33-1.21,13.4-8.8,8.75"/><circle class="cls-1" cx="153.66" cy="106.57" r="23.68"/><path class="cls-1" d="M172.73,93.08c3.09,8.16,10.91,10,14,1.67"/></g><g id="plank-2" data-name="plank"><polyline class="cls-1" points="207.64 230.93 100.23 231.58 115.22 208.27"/><polyline class="cls-1" points="199.31 210.86 207.64 230.93 100.23 231.58 115.22 208.27 119.81 208.27"/><polyline class="cls-1" points="100.23 231.58 100.23 240.72 207.64 240.21 207.64 230.93"/></g><g id="vis-3" data-name="vis"><g id="Layer_125_copy_2" data-name="Layer 125 copy 2"><line class="cls-1" x1="131.58" y1="225.36" x2="137.46" y2="215.59"/><line class="cls-1" x1="170.97" y1="199.3" x2="174.26" y2="188.39"/><line class="cls-1" x1="147.48" y1="192.16" x2="153.36" y2="182.4"/><line class="cls-1" x1="179.54" y1="204.13" x2="185.42" y2="194.36"/><line class="cls-1" x1="150.72" y1="205.54" x2="158.39" y2="197.1"/><line class="cls-1" x1="164.89" y1="207.94" x2="174.7" y2="202.14"/><line class="cls-1" x1="141.41" y1="210.31" x2="149.61" y2="218.24"/><line class="cls-1" x1="154.82" y1="206.71" x2="161.96" y2="215.59"/><line class="cls-1" x1="170.97" y1="212.91" x2="182.03" y2="215.64"/><line class="cls-1" x1="173.05" y1="227.38" x2="168.89" y2="216.77"/><line class="cls-1" x1="149.86" y1="226.96" x2="155.74" y2="217.19"/><line class="cls-1" x1="134.52" y1="198.62" x2="125.81" y2="190.83"/><line class="cls-1" x1="139.08" y1="196.86" x2="141.13" y2="184.8"/><line class="cls-1" x1="139.08" y1="205.89" x2="144.96" y2="196.12"/></g><path class="cls-1" d="M154.15,188.21c-5.4-1-10.29-1.3-13.65-.27-6,1.85-18.77,15.15-16.42,17.1,0,0-4.07-2.31-4.25,0-0.42,5.24,5.26,8.52,5.26,8.52s-5.56,4.73-3.5,5.9,4.25-.44,4.25-0.44,32.34,12.32,55,0c2.35-1.28,6.53-4.71,8-8.68a7.43,7.43,0,0,0,.36-4.45,6.89,6.89,0,0,0-.61-1.58,9.35,9.35,0,0,0-2.1-2.59,26.82,26.82,0,0,0-3.6-2.6,71.69,71.69,0,0,0-8.84-4.54"/><circle cx="129.6" cy="207.65" r="1.35"/><circle class="cls-1" cx="131.36" cy="206.09" r="3.31"/><path class="cls-1" d="M180.84,197.9c0.91-13.78,17.2-6.17,18.68-8.84L192.91,201l9.61,8.39s-13.41,7-13.66.94"/><path class="cls-1" d="M152.8,192.66c0.66-7.9,14.27-9.12,14.27-9.12s-3.36,9.91,3.53,12.58"/></g></svg>