<svg id="_11_bouwen" data-name="11 bouwen" xmlns="http://www.w3.org/2000/svg" viewBox="0 0 300 300"><defs><style>.cls-1,.cls-2{fill:none;stroke:#000;stroke-linecap:round;stroke-width:2px;}.cls-1{stroke-linejoin:round;}.cls-2{stroke-miterlimit:10;}</style></defs><title>illustraties Master Maker_4_mei</title><g id="mannetje"><path id="arm_links" class="cls-1" d="M101.31,164.74c-4.36,6.77-4.17,29.19-4.17,29.19,4-8.6,18-16.57,21.26-23.83,0,0,3.59-4.73,9.16-5.44,6.21-.79,14.16,4.73,12.52,9.64-0.85,2.54-4.1,3-4.87,1.73-0.56-1,0-3.57-.62-4.65-0.75-1.34-3.53-1.94-5.05-1.74-1.12.14-3.11,1.42-2.9,2.54s3.85,2.13,3.85,2.13,3.55,2,2.6,3.7c-0.45.81-9.24-1.74-9.24-1.74s-16.79,33.45-31,32.93c-13-.47-15.45-61.23,1.12-64.24,5.62-1,33.49-.87,40.47-0.87,2.52,0,7.56,0,11.05,8.84"/><g id="hoofd-2" data-name="hoofd"><circle cx="133.93" cy="118.15" r="2.05" transform="translate(-18.76 25.5) rotate(-10.17)"/><circle cx="113.51" cy="118.35" r="2.05" transform="translate(-19.11 21.9) rotate(-10.17)"/><circle class="cls-1" cx="118.11" cy="116.14" r="22.67" transform="translate(-9.21 10.18) rotate(-4.75)"/><polyline class="cls-1" points="124.47 114.33 125.69 131.41 121.99 131.25"/><g id="haar"><path class="cls-2" d="M140,106.1s-8.48-19.75-27.23-8.52C97,107,99.45,93.17,99.25,96.06"/><path class="cls-2" d="M122.66,94.21s-9.31,6.56-7.37,10.82"/><path class="cls-2" d="M114.38,97.45s-7.62,1.86-6.32-4.72"/><path class="cls-2" d="M116.23,93.54s-4,10.88-12.35,14.63c-5.73,2.57-10.7-1.53-12.4-3.81"/></g></g><line id="rechterarm" class="cls-1" x1="135.76" y1="163.25" x2="136.71" y2="166.54"/><line id="rechterzij" class="cls-1" x1="149.73" y1="170.42" x2="150.92" y2="186.51"/></g><g id="tafelrand"><line class="cls-1" x1="64.7" y1="208.02" x2="88.67" y2="208.02"/><line class="cls-1" x1="98.94" y1="208.02" x2="110.92" y2="208.02"/><path class="cls-1" d="M112.17,207.16s1.22,5.71,6,7.13,3.46-1.08,6.85-1.08c3.85,0,2.55,2.93,5.35,3.06,3.38,0.16,3.52-2.24,8.93-2.29,4.75,0,5.52,4.41,8.21,4.45,0,0,3.39,1,4.82-2.14,1.9-4.16,4.32.89,7.42,0.43,4.78-.71,1.5,4,4.78,4.14s3.62-7.58,6-8c3.6-.68,2,3.17,3.6,4.46,0,0,2.36.51,3-5s4-4.28,4-4.28h30.81"/></g><g id="vrouwtje"><path id="lijf" class="cls-1" d="M160.89,167.43l0.31-5.13-7.48.34,11.81,10.63s-2.84,1.41,2.52,4.71c5.07,3.12,1.24,9.27-2.79,8.58-5.49-.94-5.49-8.66-5.49-8.66s-17.83-12.16-19.83-17.8c-3-8.33,27.91-15.1,39.84-15.1L192,146c11.93,0,52.54,31.65,40.74,35.26-7.4,2.26-23,3.56-33.09,4.44-3,.27-5.53.5-7.16,0.71,0,0-12.9,7.14-18.39,1.33C170.81,184.21,182,181,182,181c-0.36-4,9-2.42,10.51-2.42,0.6,0,4.29-.42,8.57-0.94,6.73-.82,18.72-1.86,18.72-1.86s-11.89-9.26-17.66-9.93l-1.41,11.06"/><g id="hoofd-3" data-name="hoofd"><circle cx="185.35" cy="120.92" r="2.05" transform="translate(-11.11 19.04) rotate(-5.71)"/><circle cx="165.04" cy="122.5" r="2.05" transform="translate(-11.37 17.03) rotate(-5.71)"/><circle id="hoofd-4" data-name="hoofd" class="cls-1" cx="182.45" cy="117.33" r="22.67" transform="translate(-10.77 18.74) rotate(-5.71)"/><polyline id="neus" class="cls-1" points="175.83 119.65 174.66 133.33 179.58 132.84"/><path id="pony" class="cls-1" d="M204,112.47c-9.82,5.12-38.14-2.44-38.78-8.84"/><path id="haar_links" class="cls-1" d="M205.21,113.91s9.62,18.55,5.55,20.56c-5.52,2.73-12.69-.71-12.69-0.71"/><path id="haar_links-2" data-name="haar_links" class="cls-1" d="M159.8,118.15s-6.82,20.18-2.44,21.41c5.93,1.68,14.63-3.68,11.94-2.89"/></g><g id="kraagje"><polyline id="kraagje-2" data-name="kraagje" class="cls-1" points="180.98 147.07 185.2 159.46 194.82 146.9"/><polyline id="kraagje-3" data-name="kraagje" class="cls-1" points="181.03 147.07 176.81 159.46 169.8 147.07"/></g><line id="rechterzij-2" data-name="rechterzij" class="cls-1" x1="199.07" y1="186.62" x2="199.07" y2="207.16"/><line id="linkerzij" class="cls-1" x1="159.78" y1="177.91" x2="157.35" y2="191.44"/></g><g id="taart"><path class="cls-1" d="M170.72,199.18c5.61,1.16,9.93,2.76,9.93,4.66,0,3.86-15.33,7.94-34.24,7.94s-34.24-4.08-34.24-7.94,14.52-6.75,32.35-7"/><path class="cls-1" d="M180.24,219.15c0,3.86-14.92,9-33.83,9s-34.64-5.14-34.64-9"/><path class="cls-1" d="M156.65,197.16c0.54,0,3.72.39,7.59,1"/><line class="cls-1" x1="112.17" y1="203.83" x2="111.77" y2="219.15"/><line class="cls-1" x1="180.65" y1="203.83" x2="180.24" y2="219.15"/><path class="cls-1" d="M125.61,202.59c2.24,4.88,10.3,5.72,13,5.43s12.8-3.43,15.86-1.43,12-3.6,12-3.6"/></g><g id="spuitbus"><polyline class="cls-1" points="165.53 194.36 164.56 202.16 167.96 203 171.9 196.36"/><path class="cls-1" d="M163.73,186.71L162.79,190c1.26,6.56,10.77,7.5,12.39,5.14a24.07,24.07,0,0,0,1.95-5.19"/><path class="cls-1" d="M181,180.83s4.72-9.49,3.62-11.59c-2-3.78-11.31-7.06-14.8-4.59-1.46,1-4.33,10.52-4.33,10.52"/></g><g id="aardbei_2-2" data-name="aardbei 2"><path class="cls-1" d="M141.6,179.56c2.37,5.05,2.13,11.07-1.77,12.07-2.77.71-7.73-5.52-8.88-8,0,0-.35-4.3,5-5.68C140.75,176.66,141.6,179.56,141.6,179.56Z"/><line class="cls-1" x1="132.32" y1="174.06" x2="135.21" y2="177.91"/><circle cx="139.42" cy="181.97" r="1.05"/><circle cx="137.53" cy="188.6" r="1.05"/><circle cx="135.66" cy="183.11" r="1.05"/><circle cx="139.32" cy="185.76" r="1.05"/><circle cx="141.25" cy="188.6" r="1.05"/><circle cx="134.71" cy="186.8" r="1.05"/><circle cx="137.04" cy="179.88" r="1.05"/><circle cx="133.27" cy="183.11" r="1.05"/></g><g id="aardbei_1-2" data-name="aardbei 1"><path class="cls-1" d="M157,195.33c-2.26,5.1-7,8.86-10.28,6.57-2.35-1.63-.9-9.46.26-12,0,0,3-3.08,7.55,0C158.67,192.78,157,195.33,157,195.33Z"/><line class="cls-1" x1="153.37" y1="184.18" x2="152.36" y2="188.89"/><circle cx="153.78" cy="195.26" r="1.05" transform="translate(-90.34 148.56) rotate(-40.95)"/><circle cx="147.53" cy="198.17" r="1.05" transform="translate(-93.77 145.18) rotate(-40.95)"/><circle cx="150.45" cy="193.17" r="1.05" transform="translate(-89.78 145.87) rotate(-40.95)"/><circle cx="150.86" cy="197.67" r="1.05" transform="translate(-92.63 147.23) rotate(-40.95)"/><circle cx="149.97" cy="200.98" r="1.05" transform="translate(-95.02 147.47) rotate(-40.95)"/><circle cx="147.05" cy="194.87" r="1.05" transform="translate(-91.73 144.05) rotate(-40.95)"/><circle cx="153.8" cy="192.09" r="1.05" transform="translate(-88.26 147.8) rotate(-40.95)"/><circle cx="148.89" cy="191.36" r="1.05" transform="translate(-88.98 144.4) rotate(-40.95)"/><line class="cls-1" x1="156.33" y1="185.73" x2="152.54" y2="188.27"/><line class="cls-1" x1="149.89" y1="185.66" x2="151.15" y2="187.97"/></g></svg>