<svg id="_13_CDHO" data-name="13 CDHO" xmlns="http://www.w3.org/2000/svg" viewBox="0 0 300 300"><defs><style>.cls-1,.cls-2{fill:none;stroke:#000;stroke-width:2px;}.cls-1{stroke-miterlimit:10;}.cls-2{stroke-linecap:round;stroke-linejoin:round;}</style></defs><title>illustraties Master Maker_4_mei</title><g id="weegschaal"><circle class="cls-1" cx="94.7" cy="162.65" r="34.67"/><circle class="cls-2" cx="94.82" cy="162.65" r="3.03"/><polyline class="cls-2" points="114.79 117.55 114.79 125.25 73.85 125.25 73.85 117.55"/><path class="cls-2" d="M138,106.56c0,6.07-5.51,11-43.89,11-40,0-43.89-4.92-43.89-11H138Z"/><line class="cls-2" x1="76.74" y1="117.55" x2="76.74" y2="125.25"/><line class="cls-2" x1="111.83" y1="117.55" x2="111.83" y2="125.25"/><path class="cls-2" d="M57.82,214h0a7.68,7.68,0,0,1,7.65-7.65H124.4A7.68,7.68,0,0,1,132,214H57.82Z"/><polyline class="cls-2" points="69.38 138.98 69.38 125.25 119.71 125.25 119.71 138.54"/><path class="cls-2" d="M71.37,189.17c-8.06,4.1-6.54,17.29-6.54,17.29h60.05s0.85-11.35-7.27-16.87"/><line class="cls-2" x1="94.89" y1="132.96" x2="94.89" y2="136.84"/><line class="cls-2" x1="113.2" y1="181.06" x2="116.08" y2="183.93"/><line class="cls-2" x1="76.02" y1="180.41" x2="73.2" y2="183.09"/><line class="cls-2" x1="71.33" y1="152.4" x2="67.84" y2="150.45"/><line class="cls-2" x1="119.17" y1="153.12" x2="122.06" y2="151.47"/><polyline class="cls-2" points="94.81 162.55 104.37 142.04 98.95 143.99"/><line class="cls-2" x1="104.37" y1="142.04" x2="106.38" y2="147.43"/><circle class="cls-2" cx="94.94" cy="162.65" r="30"/></g><g id="maatbeker"><path class="cls-2" d="M175.22,141.74a206,206,0,0,0,23.19,1"/><path class="cls-2" d="M238.88,116.69h3.5c6.21,0,9.2,3.59,7.15,11.18l-8.46,29.95c-1,4-2.17,6.73-5.59,6.69h-1.25"/><line class="cls-2" x1="179.19" y1="118.84" x2="184.46" y2="203.08"/><path class="cls-2" d="M173.66,117.88a186.62,186.62,0,0,0,24.75.89"/><path class="cls-2" d="M179.19,203.08c10,0.93,10.38,1.08,19.83.89"/><path class="cls-2" d="M178.24,183.32a155.49,155.49,0,0,0,20,1"/><path class="cls-2" d="M176.79,163.15a180.35,180.35,0,0,0,21.62,1"/><line class="cls-2" x1="161.25" y1="111.73" x2="148.36" y2="108.72"/><path class="cls-2" d="M238.88,113.23s4.48-.13,6,0c6.29,0.43,10.27,7.08,8.53,13.14l-10.12,35.42A8.6,8.6,0,0,1,235,168h-1.83"/><path class="cls-2" d="M163.46,135.17l-15.1-26.45,12.49-1.3c0.43-4.57,77.63-4.29,78,0"/><path class="cls-2" d="M220,213c-11.76,2-29.26,2.26-40.29,0-5.31-1.08-9.85-4.43-9.85-9.85l-9-95.72c0.43,4.57,77.63,4.29,78,0l-9,95.72C229.86,208.56,225.35,212.09,220,213Z"/></g></svg>