<svg id="_16_checklists" data-name="16 checklists" xmlns="http://www.w3.org/2000/svg" viewBox="0 0 300 300"><defs><style>.cls-1{fill:none;stroke:#000;stroke-linecap:round;stroke-linejoin:round;stroke-width:2px;}</style></defs><title>illustraties Master Maker_4_mei</title><g id="kaart_achter" data-name="kaart achter"><path class="cls-1" d="M145,126.22l16.07-39.35A3.42,3.42,0,0,1,165.53,85l57.83,23.62a3.42,3.42,0,0,1,1.88,4.47l-35.76,87.55A3.42,3.42,0,0,1,185,202.5L151.87,189"/><line class="cls-1" x1="165.29" y1="100.25" x2="202.32" y2="115.37"/><polyline class="cls-1" points="209.25 116.04 209.59 120.5 216.5 115.04"/><line class="cls-1" x1="159.12" y1="113.21" x2="196.15" y2="128.34"/><polyline class="cls-1" points="203.08 129.01 203.42 133.47 210.33 128.01"/><line class="cls-1" x1="153.7" y1="126.48" x2="190.73" y2="141.61"/><line class="cls-1" x1="151.87" y1="143.02" x2="184.68" y2="156.42"/><line class="cls-1" x1="151.95" y1="159.61" x2="178.88" y2="170.61"/><line class="cls-1" x1="151.87" y1="174.74" x2="173.58" y2="183.61"/></g><g id="kaart_voor" data-name="kaart voor"><rect class="cls-1" x="82.55" y="126.03" width="69.32" height="101.41" rx="3.42" ry="3.42"/><line class="cls-1" x1="91.52" y1="140.24" x2="131.52" y2="140.24"/><polyline class="cls-1" points="138.19 138.24 140.19 142.24 144.52 134.58"/><line class="cls-1" x1="90.71" y1="154.58" x2="130.71" y2="154.58"/><polyline class="cls-1" points="137.37 152.58 139.37 156.58 143.71 148.91"/><line class="cls-1" x1="90.71" y1="168.91" x2="130.71" y2="168.91"/><polyline class="cls-1" points="137.37 182.91 139.37 186.91 143.71 179.24"/><line class="cls-1" x1="90.71" y1="184.91" x2="130.71" y2="184.91"/><line class="cls-1" x1="90.71" y1="200.24" x2="130.71" y2="200.24"/><line class="cls-1" x1="90.71" y1="214.28" x2="130.71" y2="214.28"/><polyline class="cls-1" points="138.19 198.75 140.19 202.75 144.52 195.09"/></g></svg>