<svg id="_19_colomns" data-name="19 colomns" xmlns="http://www.w3.org/2000/svg" viewBox="0 0 300 300"><defs><style>.cls-1{fill:none;stroke:#000;stroke-linecap:round;stroke-linejoin:round;stroke-width:2px;}</style></defs><title>illustraties Master Maker_4_mei</title><path class="cls-1" d="M172.66,97.11c0,11.88-13.2,21.51-29.48,21.51-2.45,0-12.61,10.93-12.61,10.93s0.16-12.83-2.22-13.84C119.58,112,113.7,105,113.7,97.11c0-11.88,13.2-21.51,29.48-21.51S172.66,85.23,172.66,97.11Z"/><path class="cls-1" d="M134.31,152.85c0,9.46,10.52,17.05,23.49,17.14,7.54,0,14.4-2.55,18.73-6.71,2-1.91,16.18-5.9,16.18-5.9s-11.43-3.21-11.43-4.53c0-9.46-10.52-17.14-23.49-17.14S134.31,143.39,134.31,152.85Z"/><g id="vrouw_2"><circle class="cls-1" cx="214.22" cy="141.77" r="21.51"/><circle cx="201.52" cy="138.78" r="1.98"/><circle cx="217.85" cy="138.78" r="1.98"/><polyline class="cls-1" points="210.09 138.86 204.88 153.57 209.09 154.3"/><path class="cls-1" d="M182.37,223.76l2.93-34.09a20.54,20.54,0,0,1,20.49-20.55h14.27a20.54,20.54,0,0,1,20.49,20.55l2.93,34.42"/><line class="cls-1" x1="227.43" y1="192.66" x2="230.36" y2="224.12"/><line class="cls-1" x1="199.14" y1="192.66" x2="196.21" y2="224.12"/><path class="cls-1" d="M197.34,129.77c9.76,3.9,24.05-1.21,24.05-7.32"/><path class="cls-1" d="M220.91,124.89c-0.49,7.56,8.29,11.22,11.22,7.32"/></g><g id="vrouw_1"><path class="cls-1" d="M60,226.63s-0.17-25.46,0-35.18c0.19-11.27,18.46-21.38,29-21.38l8.55,12.44,9.06-12.44c10.5,0,28.76,10.11,29,21.38,0.17,9.72,0,35.18,0,35.18"/><line class="cls-1" x1="75.43" y1="196.4" x2="75.43" y2="225.63"/><line class="cls-1" x1="119.27" y1="196.4" x2="119.27" y2="225.63"/><line class="cls-1" x1="60.81" y1="219.78" x2="75.43" y2="219.78"/><line class="cls-1" x1="119.27" y1="219.78" x2="133.89" y2="219.78"/><circle class="cls-1" cx="97.2" cy="142.82" r="22.01"/><circle cx="92.88" cy="141.47" r="1.98"/><circle cx="111.36" cy="139.75" r="1.98"/><polyline class="cls-1" points="101.47 139.75 106.34 154.95 102.09 155.56"/><line class="cls-1" x1="98.81" y1="193.48" x2="111.48" y2="193.48"/><line class="cls-1" x1="98.81" y1="200.3" x2="105.63" y2="200.3"/><path class="cls-1" d="M88.31,123.43c0,3.2.87,9.33,8.75,9.33"/><path class="cls-1" d="M97.2,120.81c-0.13,1,.52,10.15,7.56,6.62"/><path class="cls-1" d="M119.31,143.84l-0.19,11.31s0,3.44,4.08,2.72"/><path class="cls-1" d="M115.23,155.69L115,164s0,2.54,4.08,2"/><path class="cls-1" d="M75.19,143.25l0.19,11.31s0,3.44-4.08,2.72"/><path class="cls-1" d="M78.88,156.09l0.19,8.35s0,2.54-4.08,2"/></g></svg>