<svg id="_21_met_dank_aan" data-name="21 met dank aan" xmlns="http://www.w3.org/2000/svg" viewBox="0 0 300 300"><defs><style>.cls-1,.cls-2{fill:none;stroke:#000;stroke-width:2px;}.cls-1{stroke-linecap:round;stroke-linejoin:round;}.cls-2{stroke-miterlimit:10;}</style></defs><title>illustraties Master Maker_4_mei</title><g id="vis"><line class="cls-1" x1="160.65" y1="198.56" x2="149.35" y2="182.28"/><line class="cls-1" x1="89.38" y1="157.77" x2="82.44" y2="139.21"/><line class="cls-1" x1="129.34" y1="142.75" x2="118.04" y2="126.46"/><line class="cls-1" x1="75.05" y1="167.11" x2="61.95" y2="155.04"/><line class="cls-1" x1="125.21" y1="166.32" x2="110.95" y2="152.54"/><line class="cls-1" x1="100.9" y1="172.08" x2="83.22" y2="163.11"/><line class="cls-1" x1="141.9" y1="173.56" x2="128.57" y2="188.23"/><line class="cls-1" x1="118.24" y1="168.82" x2="106.84" y2="185.03"/><line class="cls-1" x1="90.91" y1="181.39" x2="72.02" y2="187.37"/><line class="cls-1" x1="94.57" y1="208.82" x2="98.18" y2="189.33"/><line class="cls-1" x1="134.02" y1="200.46" x2="120.77" y2="185.72"/><line class="cls-1" x1="152.54" y1="152.49" x2="160.91" y2="135.3"/><line class="cls-1" x1="144.44" y1="149.95" x2="139.51" y2="129.26"/><line class="cls-1" x1="145.46" y1="165.61" x2="134.15" y2="149.33"/><path class="cls-1" d="M73.37,156.45c4-2.87,14.42-12,22.91-13.62"/><path class="cls-1" d="M117.32,136.64c9.24-2.42,17.71-3.42,23.66-2,10.65,2.53,34.27,24.17,30.42,27.83,0,0,6.8-4.46,7.38-.48,1.31,9.05-8.18,15.37-8.18,15.37s10.17,7.58,6.75,9.85-7.43-.28-7.43-0.28-54.73,25-95.44,6.19c-4.23-2-11.49-10.34-14.53-17.08"/><circle cx="160.83" cy="165.96" r="2.34" transform="translate(-10.4 10.75) rotate(-3.71)"/><circle class="cls-2" cx="158.87" cy="165.09" r="5.75" transform="translate(-10.35 10.62) rotate(-3.71)"/><path class="cls-1" d="M72.1,156.46C69,132.65,41.56,147.7,38.68,143.23l12.82,20L35.77,178.84S60.18,186.5,59.94,176"/><path class="cls-1" d="M120.16,144.21c-2-13.63-25.78-14.21-25.78-14.21s6.95,16.82-4.71,22.22"/></g><circle class="cls-2" cx="206.73" cy="182.36" r="7.43"/><circle class="cls-2" cx="187.86" cy="174.45" r="4.35"/><g id="hartje"><path class="cls-1" d="M238,143.1c0.18-11.56-17.2-14.58-17.4-1.85-0.19,12.36,13.54,14.13,17.07,23.13"/><path class="cls-1" d="M237.91,143.1c0.18-11.56,17.65-14,17.45-1.3-0.19,12.36-14,13.69-17.79,22.58"/><circle class="cls-2" cx="238.31" cy="145.51" r="31.37" transform="translate(26.62 327.58) rotate(-72.11)"/></g></svg>