<svg id="_12_financien" data-name="12 financien" xmlns="http://www.w3.org/2000/svg" viewBox="0 0 300 300"><defs><style>.cls-1,.cls-3,.cls-5,.cls-8{fill:none;}.cls-1,.cls-3,.cls-5,.cls-6,.cls-8{stroke:#000;}.cls-1,.cls-3{stroke-linecap:round;stroke-linejoin:round;}.cls-1,.cls-8{stroke-width:2.05px;}.cls-2{font-size:25.17px;}.cls-2,.cls-4,.cls-7{font-family:Bariol;}.cls-3,.cls-5{stroke-width:2px;}.cls-4{font-size:25.17px;}.cls-5,.cls-6,.cls-8{stroke-miterlimit:10;}.cls-6{stroke-width:0.21px;}.cls-7{font-size:20.99px;font-weight:700;}</style></defs><title>illustraties Master Maker_4_mei</title><g id="pinpas"><rect x="122.52" y="202.03" width="63.92" height="5.82"/><path class="cls-1" d="M186.44,183.79v24.86a5.14,5.14,0,0,1-5.14,5.14H127.66a5.14,5.14,0,0,1-5.14-5.14V180.14a5.14,5.14,0,0,1,5.14-5.14h26.83"/></g><g id="_10_euro" data-name="10 euro"><text class="cls-2" transform="matrix(0.89, -0.46, 0.46, 0.89, 201.79, 156.64)">10</text><polyline class="cls-3" points="152.4 156.29 216.27 124.22 234.15 159.83 164.34 194.88 150.43 167.19"/></g><g id="_50_euro" data-name="50 euro"><polyline class="cls-3" points="79.53 152.17 73.64 150.9 82.06 111.95 104.19 116.73"/><text class="cls-4" transform="matrix(0.98, 0.2, -0.2, 0.98, 122.4, 142.43)">50</text><polyline class="cls-3" points="121.68 120.52 158.42 128.46 150 167.41 98.84 156.35"/></g><g id="euro_5" data-name="euro 5"><circle class="cls-5" cx="98.08" cy="188.57" r="12.06"/><path class="cls-6" d="M94.94,190.66a3.19,3.19,0,0,0,3.52,2.79,3.63,3.63,0,0,0,3.13-1.38,1.13,1.13,0,0,1,.84-0.46,1.13,1.13,0,0,1,.86,1.77,5.86,5.86,0,0,1-4.83,2.27c-3.21,0-5.27-1.51-5.89-5H92.24a0.9,0.9,0,0,1,0-1.8h0.14v-0.92H92.24a0.91,0.91,0,0,1,0-1.81h0.31c0.58-3.5,2.65-5.21,5.91-5.21a5.23,5.23,0,0,1,4.67,2.27,1.25,1.25,0,0,1,.21.69,1.08,1.08,0,0,1-1,1.11,1,1,0,0,1-.8-0.42,3.51,3.51,0,0,0-3-1.47c-2,0-3.11,1-3.56,3H97.3a0.91,0.91,0,0,1,0,1.81H94.71v0.92H97.3a0.9,0.9,0,0,1,0,1.8H94.94Z"/></g><g id="euro_4" data-name="euro 4"><circle class="cls-5" cx="179.24" cy="116.61" r="12.06" transform="translate(-32.97 90.31) rotate(-25.98)"/><text class="cls-7" transform="translate(176.51 125.61) rotate(-25.98) scale(0.93 1)">€ </text></g><g id="euro_3" data-name="euro 3"><circle class="cls-8" cx="215.21" cy="197.39" r="10.42" transform="translate(-51.69 315.91) rotate(-66.47)"/><path class="cls-6" d="M212,198a2.76,2.76,0,0,0,1.83,3.43,3.14,3.14,0,0,0,3,0,1,1,0,0,1,.83-0.08,1,1,0,0,1,.07,1.69,5.08,5.08,0,0,1-4.61.13c-2.54-1.11-3.66-3-3-6l-0.26-.11a0.78,0.78,0,0,1,.62-1.43l0.11,0,0.32-.73-0.11,0a0.78,0.78,0,0,1,.62-1.43l0.25,0.11c1.67-2.58,3.89-3.21,6.49-2.08a4.52,4.52,0,0,1,2.92,3.41,1.09,1.09,0,0,1-.07.62,0.94,0.94,0,0,1-1.22.52,0.85,0.85,0,0,1-.49-0.61,3,3,0,0,0-1.9-2.21,2.89,2.89,0,0,0-3.87,1.17l1.9,0.83a0.78,0.78,0,0,1-.62,1.43l-2.05-.89-0.32.73,2.05,0.89a0.78,0.78,0,0,1-.62,1.43Z"/></g><g id="euro_2" data-name="euro 2"><path class="cls-5" d="M83.73,148.27a10.42,10.42,0,1,1-4.61,14,10.42,10.42,0,0,1,4.61-14"/><path class="cls-6" d="M86.82,160.39a2.76,2.76,0,0,0,3.81.79,3.14,3.14,0,0,0,1.88-2.29,1,1,0,0,1,.47-0.68,1,1,0,0,1,1.34,1,5.08,5.08,0,0,1-2.84,3.63c-2.48,1.25-4.66.89-6.49-1.54l-0.26.13a0.78,0.78,0,0,1-.7-1.39l0.11-.05-0.36-.71-0.1.05A0.78,0.78,0,0,1,83,158l0.24-.12c-0.92-2.93,0-5,2.54-6.32a4.52,4.52,0,0,1,4.49-.07,1.09,1.09,0,0,1,.43.45,0.94,0.94,0,0,1-.38,1.27,0.85,0.85,0,0,1-.78,0,3,3,0,0,0-2.92,0A2.89,2.89,0,0,0,85,156.91l1.85-.93a0.78,0.78,0,0,1,.7,1.39l-2,1,0.36,0.71,2-1a0.78,0.78,0,0,1,.7,1.39Z"/></g><g id="euro_1" data-name="euro 1"><path class="cls-6" d="M111.36,115.1a2.76,2.76,0,0,0,3,2.5,3.14,3.14,0,0,0,2.74-1.12,1,1,0,0,1,.74-0.38,1,1,0,0,1,.69,1.54,5.08,5.08,0,0,1-4.23,1.84c-2.77-.08-4.52-1.44-5-4.45H109a0.78,0.78,0,0,1,0-1.56h0.12l0-.8h-0.12a0.78,0.78,0,0,1,0-1.56h0.27c0.59-3,2.42-4.43,5.25-4.35a4.52,4.52,0,0,1,4,2.08,1.09,1.09,0,0,1,.17.6,0.94,0.94,0,0,1-.94.93,0.85,0.85,0,0,1-.68-0.38,3,3,0,0,0-2.59-1.35,2.89,2.89,0,0,0-3.15,2.52l2.07,0.06a0.78,0.78,0,0,1,0,1.56l-2.24-.07,0,0.8,2.24,0.07a0.78,0.78,0,0,1,0,1.56Z"/><circle class="cls-5" cx="114.11" cy="113.38" r="10.42" transform="translate(-2.56 224.13) rotate(-88.32)"/></g></svg>