<svg id="HvA_masters" data-name="HvA masters" xmlns="http://www.w3.org/2000/svg" viewBox="0 0 400 300"><defs><style>.cls-1,.cls-2,.cls-3{fill:none;stroke:#000;}.cls-1,.cls-2{stroke-linecap:round;stroke-linejoin:round;}.cls-1{stroke-width:2.03px;}.cls-2,.cls-3{stroke-width:2px;}.cls-3{stroke-miterlimit:10;}</style></defs><title>illustraties Master Maker_4_mei</title><g id="kraam_2" data-name="kraam 2"><path class="cls-1" d="M298.68,140.32s6.73,15.18,13.46,0c0,0,7.52,14.94,13,0"/><path class="cls-1" d="M271.4,139.89s7.73,16.23,14.46,1c0,0,7.52,14.94,13,0"/><path class="cls-1" d="M325.14,140.32s6.73,15.18,13.46,0c0,0,7.52,14.94,13,0"/><path class="cls-1" d="M352.19,140.32s6.73,15.18,13.46,0c0,0,7.58,15.18,13-.43"/><ellipse class="cls-2" cx="303.62" cy="169.79" rx="10.94" ry="2.13"/><path class="cls-2" d="M292.86,170.39v6.55a29.55,29.55,0,0,0,21.71.23v-6.55"/><path class="cls-2" d="M322.56,175.75a18.48,18.48,0,0,1,4.64-7c3.86-3.47,10-5.08,19.36,1,13.07,8.55-19.54,12.66-24,8.15C322.18,177.53,322.37,176.26,322.56,175.75Z"/><path class="cls-2" d="M331.23,172.71c-0.6-1.55-.73-3.64-4-4"/><path class="cls-2" d="M332.87,165.87s5.61,3.21,3.94,7.54"/><path class="cls-2" d="M346.56,169.76s7.92-7.85,15.5,3c0.6,0.86,1.64,3.37,1,4.2-2.34,3-13.25,3.25-16.38,0"/><line class="cls-2" x1="360.73" y1="170.35" x2="364.99" y2="170.38"/><line class="cls-2" x1="314.56" y1="169.97" x2="325.31" y2="170.06"/><line class="cls-2" x1="289.45" y1="169.76" x2="292.68" y2="169.79"/><path class="cls-2" d="M378.65,139.89H271.4l-0.19-6.7s12.33-10.73,13.88-17.85h82.36c-0.52,5.87,11.2,17.9,11.2,17.9v6.64Z"/><polyline class="cls-2" points="289.45 145.89 289.45 169.76 281.98 183.45 372.22 183.45 364.99 170.38 364.49 142.89"/><polyline class="cls-2" points="280.94 147.89 281.98 183.45 281.98 213.67"/><polyline class="cls-2" points="371.59 146.98 372.22 183.45 372.68 214.92"/><line class="cls-2" x1="271.2" y1="133.19" x2="378.65" y2="133.19"/></g><g id="foodtruck"><line class="cls-3" x1="214" y1="131.93" x2="214" y2="138.73"/><line class="cls-3" x1="170.08" y1="129.67" x2="170.08" y2="138.73"/><circle cx="222.41" cy="122.95" r="0.98" transform="translate(98.63 344.9) rotate(-89.79)"/><circle class="cls-2" cx="222.82" cy="122.54" r="2.41" transform="translate(99.45 344.9) rotate(-89.79)"/><polyline class="cls-2" points="196.72 113.19 192.04 109.28 182.21 111.28 184.85 113.6"/><path class="cls-2" d="M220,130.69s-5.4-8.1.05-14.48"/><path class="cls-2" d="M161.6,120.24c5.16-3.3,18.61-7.11,35.13-7.05,21.22,0.08,38.4,7.54,38.39,10.24,0,3.28-17.24,10-38.46,9.95-16.47-.06-29.87-4-35-7.29-1.49-1-14.74,6.88-16.15,5.06-1-1.33,8.28-7.67,8.28-7.67s-10-6.74-8.23-7.47,14.61,5.17,16.08,4.23"/><circle class="cls-3" cx="234.19" cy="205.07" r="7.77"/><polyline class="cls-2" points="248.41 160.04 244.59 161.43 231.86 161.43 231.86 143.57 239.18 142.38"/><polyline class="cls-2" points="163.14 179.87 158.68 185.81 226.45 185.81 221.07 180.43"/><circle class="cls-3" cx="165.84" cy="205.07" r="7.77"/><rect class="cls-2" x="163.14" y="149.52" width="58.5" height="30.35"/><circle class="cls-2" cx="165.84" cy="205.07" r="11.93"/><circle class="cls-2" cx="234.19" cy="205.07" r="11.93"/><path class="cls-2" d="M153.91,205.07h-8.59V138.73h92L248.41,160s11.12,1.42,11.77,5.11a110.46,110.46,0,0,1,0,39.91H246.12"/><line class="cls-2" x1="177.77" y1="205.07" x2="222.25" y2="205.07"/></g><g id="kraam_1" data-name="kraam 1"><path class="cls-2" d="M87.45,154.82c4.45,7.44-2.85,7.37.31,16.18,1.17,3.27,5.91,4.84,9.6,4.81,6.91,0,10.32-8.14,6-12-4.78-4.2-4.36-3.89-4.2-7.47,0.11-2.5,1-8.09,6.14-8.09"/><path class="cls-2" d="M92,160.42s1.71-11.2-5.5-11.2"/><path class="cls-2" d="M95.1,159.33s-0.65-13.85,6.3-15.79"/><line class="cls-2" x1="105.26" y1="167.49" x2="109.21" y2="167.49"/><path class="cls-2" d="M122.87,137.62H15.62l-0.19-6.7s12.33-10.73,13.88-17.85h82.36c-0.52,5.87,11.2,17.9,11.2,17.9v6.64Z"/><polyline class="cls-2" points="33.66 137.62 33.66 167.49 26.2 181.19 116.43 181.19 109.21 168.12 108.71 137.62"/><polyline class="cls-2" points="25.16 137.62 26.2 181.19 26.2 211.41"/><polyline class="cls-2" points="115.81 138.71 116.43 181.19 116.9 212.65"/><line class="cls-2" x1="69.72" y1="167.49" x2="86.46" y2="167.49"/><line class="cls-2" x1="33.66" y1="167.49" x2="49.65" y2="167.49"/><line class="cls-2" x1="15.42" y1="130.93" x2="121.2" y2="130.93"/><path class="cls-2" d="M49.65,167.2C39,169,33.42,168.53,31.94,173.38"/><path class="cls-2" d="M49.24,168.39s-6.18-.61-6.52,2.41"/><path class="cls-2" d="M66.95,170.55s-6-3.75-11-5c-3.31-.84-6.17-0.57-6.5,2.62-0.35,3.37,1.12,5.42,4.38,6.48,0,0,15.73,3.87,21.52,3.58S66.95,170.55,66.95,170.55Z"/><path class="cls-2" d="M49.65,167.2a28.32,28.32,0,0,1-3.85-.36c-3.75-.6-9-2.19-9.71-6.45"/><path class="cls-2" d="M42,159.67c-0.44,2.52,3.81,7.18,3.81,7.18"/><path class="cls-2" d="M23.89,171.09c-4.48-6.61,27.29-2.93,25.54-2.94"/><path class="cls-2" d="M49.79,169a2.25,2.25,0,0,0,.53-2.37"/><path class="cls-2" d="M57.5,155c-1.61,2,.73,5.84.73,5.84"/><path class="cls-2" d="M58.23,160.83A28.32,28.32,0,0,1,55,158.64c-3-2.35-3.54-3.44-3.68-7.56"/><path class="cls-2" d="M57.29,161.67s-5.43-3.23-8.57-1.6"/><path class="cls-2" d="M58.17,165.92a2.72,2.72,0,0,1-.85-3.31c3-5.55,9.7,2.94,9.7,2.94s7,5.21,7,7.83"/></g></svg>