<svg id="_1_introductie" data-name="1 introductie" xmlns="http://www.w3.org/2000/svg" viewBox="0 0 300 300"><defs><style>.cls-1,.cls-2{fill:none;stroke:#000;stroke-width:2px;}.cls-1{stroke-linecap:round;stroke-linejoin:round;}.cls-2{stroke-miterlimit:10;}</style></defs><title>illustraties Master Maker_4_mei</title><g id="hoofd-3" data-name="hoofd"><circle cx="153.03" cy="109.06" r="1.96" transform="translate(-6.4 9.58) rotate(-3.51)"/><circle cx="134.66" cy="109.53" r="1.96" transform="translate(-6.46 8.46) rotate(-3.51)"/><circle class="cls-1" cx="145.68" cy="110.51" r="23.04" transform="translate(-6.5 9.13) rotate(-3.51)"/><polyline class="cls-1" points="143.89 108.58 142.5 125.18 146.36 124.94"/><path class="cls-1" d="M168.68,109.1l-1.49-6.86c-7,.81-24.69,1.93-31-11.81,0,0,0,16.51-13.17,16.11"/><path id="haar_links" class="cls-1" d="M168.68,109.1s8.15,25,3.07,26.54c-6.89,2.12-14-4.8-14-4.8"/><path id="haar_links-2" data-name="haar_links" class="cls-1" d="M122.69,111.92s-4.55,24,.68,24.89c7.1,1.27,13.53-4.33,12.7-5"/></g><g id="bak"><path class="cls-1" d="M117.27,210.61s5.83,25.11,12.14,30.27c10.71,8.76,43.83,8,55.34.37,6.89-4.59,12.55-30.64,12.55-30.64"/><path class="cls-1" d="M159.07,205c24.52,0,38.24,2.52,38.24,5.62s-15.5,8.35-40,8.35-40-5.24-40-8.35c0-2.12,4.85-4,18.49-4.92"/></g><g id="klopper-2" data-name="klopper"><path class="cls-1" d="M153.7,208.93a14.09,14.09,0,0,0,1.25,9.41"/><path class="cls-1" d="M158.54,206.61s9.36,3.71,12.72,11.32"/><path class="cls-1" d="M156.8,209.16c2.42,3.09,6.24,10.19,5.79,9.72"/><path class="cls-1" d="M157.71,207.87s6.66,4.73,8.89,10.06"/><path class="cls-1" d="M154.84,209.3c-0.07,3.15,4.87,9.72,4.34,9.33"/><path class="cls-1" d="M150.74,205l3,3.88c2.19,0.9,4.45-1,4.84-2.31s-3.15-5.07-3.15-5.07"/><path class="cls-1" d="M139.39,190.19c0.35,0.42-6.74-8.08-6.75-11,0-3.34,2.68-2.26,2.68-2.26,2.48-.22,11.05,13.16,11.05,13.16"/></g><g id="lijf-2" data-name="lijf"><path class="cls-1" d="M215.43,140.75s-4.21-17.19-2.44-19c2.37-2.38,4.74,9.17,4.74,9.17s0.14-17,7.14-17.74c14.8-1.64,0,26.46,0,26.46s-7.73,34.74-11.15,37.09c-8.87,6.12-39.51-16-39.51-16l5.12,44.5"/><path class="cls-1" d="M134.36,140.75l3,22.89c4.93,4.4,19.38,3.56,23.72-1.42l-0.86-23.29"/><path class="cls-1" d="M168,140.75s0.93,49.33,9.58,49.46"/><path class="cls-1" d="M126.91,141.77s3.8,23.86,3.57,37.75"/><path class="cls-1" d="M130.48,179.52c-0.61,5.9-1.92,10.22-4.38,10.69"/><line class="cls-1" x1="126.1" y1="203.21" x2="126.1" y2="206.61"/><line class="cls-1" x1="170.71" y1="140.75" x2="205.72" y2="166.48"/><path class="cls-1" d="M170.71,140.75s-3.11-1.55-10.51-1.81c-5.2-.19-15.61-0.13-20.8.25a57.37,57.37,0,0,0-14.72,3.34c-9.77,3.45-48.07,51-33.49,59.38,4.93,2.84,42.72,1,42.72,1s2.37,5.23,12.43,3.26c5.87-1.15,5.92-5.92,5.92-5.92s5.42,3.2,4.81-.22c-1-5.44-6-8.27-8.31-9.41-4.29-2.09-14.07,2.74-14.15,2.52l-29.42-.3s11.39-24.71,19.29-28.48l1.34,28.69"/><path class="cls-2" d="M205.72,166.48c5.48-4.73,9.71-25.73,9.71-25.73"/></g><g id="tafel-4" data-name="tafel"><line class="cls-1" x1="122.08" y1="227.05" x2="92.76" y2="227.05"/><line class="cls-1" x1="220.44" y1="227.05" x2="192.66" y2="227.05"/></g></svg>