<svg id="Layer_1" data-name="Layer 1" xmlns="http://www.w3.org/2000/svg" viewBox="0 0 704.39 246.54">
  <title>logo mm</title>
  <path d="M641.61,312.43v29.76q-6.88,0-9,1.89t-2.15,7.1v46l26.75-84.78h30.12l27.22,80.28V350.21A15.17,15.17,0,0,0,714,346a4.54,4.54,0,0,0-1.68-2.45,7.14,7.14,0,0,0-3.44-1.12,54.18,54.18,0,0,0-5.59-.24V312.43h50.61v29.76q-6.88,0-9.86,1.89t-3,7.1v40.58q0,5.29,3,7.18t9.86,1.89v29.76H679.47l-18-55.42-15.65,55.42H572.3V400.81q6.88,0,9.82-1.89t2.93-7.18V351.17q0-5.21-2.93-7.1t-9.82-1.89V312.43h69.31Z" transform="translate(-77.65 -184.04)" fill="#fff"/>
  <path d="M508.4,354.94a13.64,13.64,0,0,1,4.3-4.13q2.58-1.56,5-3a17.85,17.85,0,0,0,4.15-3.53,8.14,8.14,0,0,0,1.76-5.49,8.46,8.46,0,0,0-1.41-4.77q-1.41-2.13-5.47-2.12a7.27,7.27,0,0,0-6,2.93q-2.3,2.93-2.31,8.22v12h0Zm15.72,34.73a33.76,33.76,0,0,0,6.85-.6,30.63,30.63,0,0,0,4.89-1.4,14.14,14.14,0,0,0,3.36-1.81q1.33-1,2.35-1.81l-0.78-.8q-1.49.8-3.25,1.6a10.91,10.91,0,0,1-4.5.8,11.41,11.41,0,0,1-8-3.09q-3.36-3.09-3.36-9.82a12.31,12.31,0,0,1,5.12-10.31q5.12-3.89,13.73-3.89,8.21,0,13.1,4.85t4.89,13.75a20.12,20.12,0,0,1-2.66,9.74,25.82,25.82,0,0,1-8.25,8.7,48.88,48.88,0,0,1-14.24,6.34,76.12,76.12,0,0,1-20.85,2.49q-14.55,0-23.78-2.81t-14.36-7.22a23,23,0,0,1-7-10,34.83,34.83,0,0,1-1.92-11.31V341.71a67.93,67.93,0,0,0-.47-9.91q-0.47-2.61-3.52-2.61a3.45,3.45,0,0,0-3.4,2.36q-1,2.36-1,8.14v10h-8.92V339.54a62.34,62.34,0,0,1,1.17-12.79,21.68,21.68,0,0,1,4.46-9.54,20.25,20.25,0,0,1,8.92-6,42.81,42.81,0,0,1,14.39-2,42.27,42.27,0,0,1,13.1,1.72,24.86,24.86,0,0,1,8.25,4.29,16,16,0,0,1,4.34,5.33,11.89,11.89,0,0,1,1.29,4.93h1.25a13.5,13.5,0,0,1,2.7-6.25,20.25,20.25,0,0,1,6.18-5.25,37,37,0,0,1,9.46-3.69,51.16,51.16,0,0,1,12.56-1.4,52.46,52.46,0,0,1,12.24,1.32,25.89,25.89,0,0,1,9.39,4.17,19.21,19.21,0,0,1,6,7.38,25,25,0,0,1,2.15,10.79q0,7.7-4.22,12.15a30,30,0,0,1-10.64,7.06,85.24,85.24,0,0,1-14,4.25,109.12,109.12,0,0,0-14,4,33.13,33.13,0,0,0-10.64,6q-4.22,3.69-4.22,10.43a13,13,0,0,0,3.68,9.67Q515.74,389.67,524.12,389.67Z" transform="translate(-77.65 -184.04)" fill="#fff"/>
  <path d="M388.4,430.57V361.52l-10.56,5.29a11.88,11.88,0,0,0-3.56,2.21,2.69,2.69,0,0,0-.82,1.72q0,2,4.15,2h3.6v28.07H321.76V372.75h4.77a76,76,0,0,0,8.8-.52,27.36,27.36,0,0,0,8.33-2.29l3.52-1.85L328.8,347.88q-3.36-3.77-6.34-4.73a29.47,29.47,0,0,0-8.6-1V312.43h67.82v29.76h-4.07q-2.82,0-3.79.8a2.65,2.65,0,0,0-1,2.17,4.85,4.85,0,0,0,1.29,2.61,51.25,51.25,0,0,0,4.81,4.93l9.46-4.81V312.43H443v29.76H440q-4.14,0-6.14,2.69a9.57,9.57,0,0,0-2,5.81v41.06q0,4.65,2.85,6.86a10.5,10.5,0,0,0,6.61,2.21H443v29.76H388.4Z" transform="translate(-77.65 -184.04)" fill="#fff"/>
  <path d="M252.85,382.77q5.47,0,8.1-4t3.48-13.11H241.51q0.47,7.86,3.28,12.47A8.93,8.93,0,0,0,252.85,382.77Zm11.58-31.12q-0.31-12-4.42-16.48t-11.77-4.53a17,17,0,0,0-5,.76,13.49,13.49,0,0,0-4.57,2.49,14.9,14.9,0,0,0-3.64,4.57,19.68,19.68,0,0,0-2,7.18H204.51a47.25,47.25,0,0,1,5.75-17.32A34.34,34.34,0,0,1,221,317a45.14,45.14,0,0,1,15.29-6.18A92.41,92.41,0,0,1,255.74,309a72.31,72.31,0,0,1,20.73,2.89,49.13,49.13,0,0,1,17,8.78,40.73,40.73,0,0,1,11.46,14.84q4.15,8.94,4.15,21.29a51.09,51.09,0,0,1-3.91,20.69,40.39,40.39,0,0,1-11,14.88,48,48,0,0,1-16.74,9,70.26,70.26,0,0,1-21.24,3q-14.23,0-24.48-3.85A43.61,43.61,0,0,1,215,389.83a42.37,42.37,0,0,1-9.54-16.6,68.61,68.61,0,0,1-2.89-21.58h61.87Z" transform="translate(-77.65 -184.04)" fill="#fff"/>
  <path d="M146.31,400.82l1.33-22.06h-1.33q-2.74,12.67-9.11,19.17t-16.54,6.5a25,25,0,0,1-10.36-2,18.78,18.78,0,0,1-7-5.25,20.49,20.49,0,0,1-3.83-7.58,33.53,33.53,0,0,1-1.17-8.86,26.16,26.16,0,0,1,1.09-7.46,19,19,0,0,1,3.52-6.66,17.63,17.63,0,0,1,6.26-4.77,22.13,22.13,0,0,1,9.46-1.81q7.82,0,12.32,4.09a12.86,12.86,0,0,1,4.5,9.87,15.84,15.84,0,0,1-.63,4.77,19.6,19.6,0,0,1-1.29,3.21q-0.66,1.24-.9,1.81c-0.16.37,0,.56,0.55,0.56q1.64,0,3.56-3.85t1.92-12.11V350.06q0-4.25-1.45-6.06t-5.59-1.81H126.9V312.44h65.86v29.76h-4.62a5.86,5.86,0,0,0-4.89,2.12,8,8,0,0,0-1.68,5.09v15.24q0,3.77,2.15,5.09a9.13,9.13,0,0,0,4.89,1.32h4.15v29.76H146.31Z" transform="translate(-77.65 -184.04)" fill="#fff"/>
  <path d="M190,302.18V272.42q6.88,0,9-1.89t2.15-7.1v-46l-26.75,84.78H144.29l-27.22-80.28V264.4a15.15,15.15,0,0,0,.47,4.21,4.53,4.53,0,0,0,1.68,2.45,7.14,7.14,0,0,0,3.44,1.12,54.18,54.18,0,0,0,5.59.24v29.76H77.65V272.43q6.88,0,9.86-1.89t3-7.1V222.86q0-5.29-3-7.18t-9.86-1.89V184h74.47l18,55.42L185.76,184h73.53v29.76q-6.88,0-9.82,1.89t-2.93,7.18v40.58q0,5.21,2.93,7.1t9.82,1.89v29.76H190Z" transform="translate(-77.65 -184.04)" fill="#fff"/>
  <path d="M323.19,259.67a13.64,13.64,0,0,1-4.3,4.13q-2.58,1.56-5,3a17.87,17.87,0,0,0-4.15,3.53,8.13,8.13,0,0,0-1.76,5.49,8.46,8.46,0,0,0,1.41,4.77q1.41,2.13,5.47,2.12a7.27,7.27,0,0,0,6-2.93q2.3-2.93,2.31-8.22v-12h0Zm-15.72-34.73a33.77,33.77,0,0,0-6.85.6,30.72,30.72,0,0,0-4.89,1.4,14.15,14.15,0,0,0-3.36,1.81c-0.89.67-1.67,1.27-2.35,1.81l0.78,0.8q1.49-.8,3.25-1.6a10.91,10.91,0,0,1,4.5-.8,11.41,11.41,0,0,1,8,3.09q3.36,3.09,3.36,9.82a12.31,12.31,0,0,1-5.12,10.31q-5.13,3.89-13.73,3.89-8.21,0-13.1-4.85t-4.89-13.75a20.12,20.12,0,0,1,2.66-9.74A25.82,25.82,0,0,1,284,219a48.89,48.89,0,0,1,14.24-6.34A76.12,76.12,0,0,1,319,210.18q14.55,0,23.78,2.81t14.36,7.22a23,23,0,0,1,7,10,34.83,34.83,0,0,1,1.92,11.31V272.9a67.9,67.9,0,0,0,.47,9.91q0.47,2.61,3.52,2.61a3.45,3.45,0,0,0,3.4-2.37q1-2.36,1-8.14v-10h8.92v10.18a62.35,62.35,0,0,1-1.17,12.79,21.67,21.67,0,0,1-4.46,9.54,20.25,20.25,0,0,1-8.92,6,42.73,42.73,0,0,1-14.39,2,42.26,42.26,0,0,1-13.1-1.72,24.86,24.86,0,0,1-8.25-4.29,16,16,0,0,1-4.34-5.33,11.89,11.89,0,0,1-1.29-4.93h-1.25a13.5,13.5,0,0,1-2.7,6.25,20.25,20.25,0,0,1-6.18,5.25,37.05,37.05,0,0,1-9.47,3.69,51.18,51.18,0,0,1-12.56,1.4,52.46,52.46,0,0,1-12.24-1.32,25.89,25.89,0,0,1-9.39-4.17,19.21,19.21,0,0,1-6-7.38,25,25,0,0,1-2.15-10.79q0-7.7,4.22-12.15a30,30,0,0,1,10.64-7.06,85.21,85.21,0,0,1,14-4.25,109.16,109.16,0,0,0,14-4,33.13,33.13,0,0,0,10.64-6q4.22-3.69,4.22-10.43a13,13,0,0,0-3.68-9.67C317.06,226.16,313,224.94,307.47,224.94Z" transform="translate(-77.65 -184.04)" fill="#fff"/>
  <path d="M477.37,243.07H455.86a19.72,19.72,0,0,0-7-9.14,17,17,0,0,0-9.93-3.37,10.3,10.3,0,0,0-5.59,1.32,4.4,4.4,0,0,0-2.07,4q0,3.29,3.6,4.93a49.17,49.17,0,0,0,9,2.93q5.44,1.28,11.77,3.09A46.37,46.37,0,0,1,467.39,252a28.21,28.21,0,0,1,9,9.06q3.6,5.69,3.6,15a24.59,24.59,0,0,1-3.13,12.59,25.55,25.55,0,0,1-8.56,8.82,41.32,41.32,0,0,1-12.79,5.17,69.43,69.43,0,0,1-15.88,1.72A72.13,72.13,0,0,1,424,302.69a48.87,48.87,0,0,1-14.12-5.57l-0.78,5.53H388.43V270.49h21.43a26.42,26.42,0,0,0,7.7,9.95A16.62,16.62,0,0,0,427.85,284q4.3,0,6.14-1.64a4.84,4.84,0,0,0,1.84-3.65q0-3.29-3.6-5.09a46.82,46.82,0,0,0-8.88-3.21q-5.28-1.4-11.62-3.13a43.47,43.47,0,0,1-11.62-5,28.37,28.37,0,0,1-8.88-8.86q-3.6-5.58-3.6-14.64a24.88,24.88,0,0,1,2.85-11.87,25.5,25.5,0,0,1,8.17-9.06,40.42,40.42,0,0,1,12.52-5.65,59.93,59.93,0,0,1,15.8-2,62.93,62.93,0,0,1,17.33,2.21q7.71,2.21,11.54,4.85l0.78-5.7h20.73v31.52h0Z" transform="translate(-77.65 -184.04)" fill="#fff"/>
  <path d="M542.21,184v29.76H565.6v29.76H542.21v24.62a22.09,22.09,0,0,0,1.45,8.66q1.45,3.37,6,3.37a7.22,7.22,0,0,0,4-1,7.32,7.32,0,0,0,2.43-2.65,10.06,10.06,0,0,0,1.14-3.77,41.7,41.7,0,0,0,.24-4.61v-12h9v12.91a62.62,62.62,0,0,1-1.6,14.52,29.43,29.43,0,0,1-5.47,11.63,26.6,26.6,0,0,1-10.52,7.78q-6.65,2.89-16.74,2.89-11.19,0-17.83-2.81a22.74,22.74,0,0,1-10.09-7.7,27.18,27.18,0,0,1-4.5-11.63,95.12,95.12,0,0,1-1.05-14.68V243.55H486.38V217.08a23.41,23.41,0,0,0,10.91-2.61,26.4,26.4,0,0,0,8.68-7.22,34.7,34.7,0,0,0,5.63-10.55,39.54,39.54,0,0,0,2-12.67h28.62Z" transform="translate(-77.65 -184.04)" fill="#fff"/>
  <path d="M627.47,231.84q-5.47,0-8.1,4t-3.48,13.11h22.92q-0.47-7.86-3.28-12.47A8.93,8.93,0,0,0,627.47,231.84ZM615.9,263q0.31,12,4.42,16.48T632.09,284a17,17,0,0,0,5-.76,13.49,13.49,0,0,0,4.57-2.49,14.84,14.84,0,0,0,3.64-4.57,19.68,19.68,0,0,0,2-7.18h28.47a47.25,47.25,0,0,1-5.75,17.32,34.34,34.34,0,0,1-10.76,11.27A45.14,45.14,0,0,1,644,303.74a92.4,92.4,0,0,1-19.44,1.89,72.32,72.32,0,0,1-20.73-2.89,49.13,49.13,0,0,1-17-8.78,40.73,40.73,0,0,1-11.46-14.84q-4.15-8.94-4.15-21.29a51.09,51.09,0,0,1,3.91-20.69,40.39,40.39,0,0,1,11-14.88,48,48,0,0,1,16.74-9,70.26,70.26,0,0,1,21.24-3q14.23,0,24.48,3.85a43.61,43.61,0,0,1,16.74,10.75,42.38,42.38,0,0,1,9.54,16.6A68.6,68.6,0,0,1,677.76,263H615.9Z" transform="translate(-77.65 -184.04)" fill="#fff"/>
  <path d="M734,213.79l-1.33,22.06H734q2.74-12.67,9.11-19.17t16.54-6.5a25,25,0,0,1,10.37,2,18.78,18.78,0,0,1,7,5.25,20.49,20.49,0,0,1,3.83,7.58,33.53,33.53,0,0,1,1.17,8.86,26.16,26.16,0,0,1-1.09,7.46,19,19,0,0,1-3.52,6.66,17.63,17.63,0,0,1-6.26,4.77,22.13,22.13,0,0,1-9.46,1.81q-7.82,0-12.32-4.09a12.86,12.86,0,0,1-4.5-9.87,15.84,15.84,0,0,1,.63-4.77,19.61,19.61,0,0,1,1.29-3.21q0.66-1.24.9-1.81c0.16-.37,0-0.56-0.55-0.56q-1.64,0-3.56,3.85t-1.92,12.11v18.37q0,4.25,1.45,6.06t5.59,1.81h4.69v29.76H687.55V272.42h4.62a5.86,5.86,0,0,0,4.89-2.12,8,8,0,0,0,1.68-5.09V250q0-3.77-2.15-5.09a9.12,9.12,0,0,0-4.89-1.32h-4.15V213.79H734Z" transform="translate(-77.65 -184.04)" fill="#fff"/>
</svg>
