<svg id="Layer_1" data-name="Layer 1" xmlns="http://www.w3.org/2000/svg" viewBox="0 0 534.55 347.7">
  <title>logo mm_klein</title>
  <path d="M484.25,471.48V383.91q20.26,0,26.58-5.55t6.33-20.89V222L438.43,471.48H349.8L269.68,235.2V360.3a44.59,44.59,0,0,0,1.39,12.39,13.35,13.35,0,0,0,4.95,7.2q3.57,2.59,10.13,3.31a159.44,159.44,0,0,0,16.46.71v87.57H153.67V383.92q20.26,0,29-5.55t8.75-20.89V238q0-15.58-8.75-21.12t-29-5.55V123.79H372.83l52.95,163.1,46-163.1h216.4v87.57q-20.26,0-28.89,5.55T650.7,238V357.47q0,15.34,8.63,20.89t28.89,5.55v87.57h-204Z" transform="translate(-153.67 -123.79)" fill="#fff"/>
</svg>
