<svg id="_3_professionele_master" data-name="3 professionele master" xmlns="http://www.w3.org/2000/svg" viewBox="0 0 300 300"><defs><style>.cls-1,.cls-2{fill:none;stroke:#000;stroke-width:2px;}.cls-1{stroke-linecap:round;stroke-linejoin:round;}.cls-2{stroke-miterlimit:10;}</style></defs><title>illustraties Master Maker_4_mei</title><g id="hoofd-3" data-name="hoofd"><circle cx="157.1" cy="133.6" r="2.11"/><circle cx="138.13" cy="133.38" r="2.11"/><path class="cls-1" d="M127.15,118.52a23.38,23.38,0,1,0,40.72,1.31"/><polyline class="cls-1" points="146.4 131.28 149.47 147.9 145.55 148.04"/><path class="cls-1" d="M142.15,86.1s20.48-11,29.84-4.28c7.21,5.15-5.84,13.75-5.84,13.75l1.72,24.26s-25.72,9-40.71-1.31c0,0,1.06-15.75,1.18-20.44,0,0-14.53-8.16-9.3-17.34,3.29-5.77,26.19,3.88,30.44,12.42"/></g><g id="lijf"><polyline class="cls-1" points="164.3 220.67 156.16 157.09 140.24 157.09 137.64 160.59"/><path class="cls-1" d="M210.71,147.49s0.64-10.41,2.92-10.43c3.51,0,1.69,7.34,1.69,7.34s0.54,4.11,4,4.21"/><path class="cls-1" d="M174.05,220.91l-4.67-40.59s32,9.15,40.07,3.57c3.12-2.15,5.55-27.22,5.55-27.22s3.46,1.12,9-4.39"/><line class="cls-1" x1="166.2" y1="162.02" x2="200.13" y2="172.56"/><path class="cls-1" d="M156.61,160.37c6.73,0.56,9.59,1.65,9.59,1.65"/><path class="cls-1" d="M124,186l0-2.48c-7.21,3.44-17.6,26-17.6,26l26.83,0.27c0.07,0.19,9-4.2,12.91-2.3,2.14,1,6.69,3.62,7.58,8.58,0.56,3.12-4.39.2-4.39,0.2s0,4.35-5.4,5.4c-9.18,1.8-11.34-3-11.34-3s-34.47,1.67-39-.92c-13.29-7.66,21.64-51,30.55-54.16a62.58,62.58,0,0,1,13.43-3"/><line class="cls-1" x1="123.87" y1="209.12" x2="123.99" y2="190.78"/><path class="cls-2" d="M200.13,172.6c5-4.32,10.58-25.1,10.58-25.1"/></g><g id="lepel-2" data-name="lepel"><line class="cls-1" x1="155.17" y1="230.12" x2="147.98" y2="220.67"/><line class="cls-1" x1="152.87" y1="218.3" x2="161.4" y2="230.12"/><path class="cls-1" d="M137.63,207.12L123,189.63"/><path class="cls-1" d="M124.39,186c3.44-1,19,20.14,19,20.14"/><path class="cls-1" d="M123,189.63s-2.08-2.61,1.37-3.58"/></g><g id="pan"><path class="cls-1" d="M126.5,236.28s-13.39,4.94-6.57,7.21c9.18,3.05,19.44,1.56,22.13-.63a22.41,22.41,0,0,0,2.78-3.34"/><path class="cls-1" d="M155.58,220.61c22.37,0,38.88,2.3,38.88,5.13s-18.13,5.13-40.5,5.13-40.5-2.3-40.5-5.13c0-1.93,8.42-3.61,20.87-4.49"/><line class="cls-1" x1="194.46" y1="225.74" x2="194.46" y2="243.99"/><line class="cls-1" x1="113.46" y1="225.74" x2="113.46" y2="243.99"/></g><g id="zoutbus"><circle cx="208.05" cy="127.39" r="1.06"/><circle cx="203.31" cy="131.52" r="1.06"/><circle cx="204.81" cy="133.87" r="1.06"/><circle cx="206.43" cy="130.63" r="1.06"/><circle cx="203.19" cy="137.11" r="1.06"/><circle cx="208.05" cy="133.87" r="1.06"/><circle cx="209.67" cy="130.63" r="1.06"/><circle cx="211.29" cy="127.39" r="1.06"/><path class="cls-1" d="M210.37,142.87a47.84,47.84,0,0,0-7.06-4.23c8.09-.29,9.93-7.54,9-13.7l20.86,13.55c4.52,4.34.88,13.33-6.28,13.84,0,0-3.38-.26-7.57-3.73"/><path class="cls-1" d="M212.28,124.95c-2-2.77-15.11,5.48-9,13.7"/></g></svg>