<svg id="_8_programma" data-name="8 programma" xmlns="http://www.w3.org/2000/svg" viewBox="0 0 300 300"><defs><style>.cls-1{fill:none;stroke:#000;stroke-linecap:round;stroke-linejoin:round;stroke-width:2px;}</style></defs><title>illustraties Master Maker_4_mei</title><g id="lijf"><path class="cls-1" d="M159.27,147.28c-11.39-.3-24-1-31.1-0.31-6.32.59-13.81,1.82-18.83,9.69"/><path class="cls-1" d="M173.61,149.27a15.6,15.6,0,0,0-3.37-1.15"/><path class="cls-1" d="M135.06,146.68c-1.28,1.56-4.73,7.67-7.64,15.59"/><path class="cls-1" d="M158.93,147.81a85.73,85.73,0,0,1,7,15"/><path class="cls-1" d="M158.93,147.81c9,5.32,17-2.69,14-6.37-3.8-4.59-13.63,5.84-13.63,5.84"/><path class="cls-1" d="M161.79,148.9c13.68,3,16.06,11.27,11,11.23-8-.05-13.89-12.32-13.89-12.32"/><path class="cls-1" d="M173.61,149.27c5.78,2.13,9.31,4.06,11.56,7.62"/></g><g id="hoofd-3" data-name="hoofd"><circle cx="135.73" cy="124.66" r="2.32" transform="translate(-39.55 181.57) rotate(-60.55)"/><circle cx="158.54" cy="124.58" r="2.32" transform="translate(-27.89 201.39) rotate(-60.55)"/><circle class="cls-1" cx="148.82" cy="114.87" r="25.59" transform="translate(-16.69 204.01) rotate(-65.97)"/><polyline class="cls-1" points="147.04 123.68 145.31 136.03 149.48 136.17"/><path class="cls-1" d="M122.91,115.1s-6.11,19.58-2.23,24.34c4.68,5.74,14.3-1.77,14.3-1.77"/><path class="cls-1" d="M124.36,118.86c6.76,1.79,15.59-9.78,15.59-9.78s19.19,13.17,33.67,2.63c0,0,9,18.42,5.92,23.71-3.75,6.39-14.4.43-14.4,0.43"/></g><ellipse id="bord-2" data-name="bord" class="cls-1" cx="147.2" cy="230.88" rx="41.78" ry="10.67"/><g id="tafel-3" data-name="tafel"><line class="cls-1" x1="99.68" y1="212.12" x2="223.85" y2="212.45"/><line class="cls-1" x1="62.97" y1="212.03" x2="77.21" y2="212.05"/></g><g id="menu"><polyline class="cls-1" points="146.64 168.22 106.81 155.87 105 155.31 87.94 149.98 87.94 201.96"/><polyline class="cls-1" points="147.89 211.8 147.89 168.42 206.47 150.3 206.24 211.57"/></g><g id="glas-3" data-name="glas"><ellipse class="cls-1" cx="88.83" cy="243.67" rx="10.37" ry="3.11"/><path class="cls-1" d="M79.36,204.77c-3.26-2.62-1,25.77,9.44,26.12,11.89,0.39,11.84-28.3,10-25.85C96.6,207.86,82.88,207.59,79.36,204.77Z"/><line class="cls-1" x1="88.83" y1="243.12" x2="88.8" y2="230.88"/><path class="cls-1" d="M98.77,204.6c-2.17-2.83-16.51-3.1-20-.27"/></g></svg>