<svg id="_4_stappen_intern" data-name="4 stappen intern" xmlns="http://www.w3.org/2000/svg" viewBox="0 0 300 300"><defs><style>.cls-1{fill:none;stroke:#000;stroke-linecap:round;stroke-linejoin:round;stroke-width:2px;}.cls-2,.cls-3{stroke:#1d1d1b;stroke-miterlimit:10;}.cls-2{stroke-width:1.71px;}.cls-3{stroke-width:2.14px;}</style></defs><title>illustraties Master Maker_4_mei</title><g id="lijf"><path class="cls-1" d="M121.58,161.21c5-3.8,9.4-7.17,13.8-9.91,7.69-4.79,15.3-7.68,25.57-7.68,0,0,14.55-.62,19.35,0,20.47,2.66,21.62,18.44,21.62,33.79,0,0,3.33,32.51-30.73,37.51l-25,3.19A14.35,14.35,0,0,1,135,223.39c-7.42,0-13-7-8.37-9.86s7.16-3.24,12.19-3.57c23.25-1.55,38.23-6.39,43.52-13.29,8.81-11.5,2.71-26.65,2.71-26.65L177,199.22"/><path class="cls-1" d="M113.28,167.5c1.45-1.07,1.49-1.1,2.84-2.13"/><path class="cls-1" d="M107.87,171.42q2.83-2,5.41-3.92"/><path class="cls-1" d="M93.45,180.87c1.87-1.13.15,0,1.87-1.13"/><path class="cls-1" d="M175.16,214.37s-3.39,19.92-2.81,21.47"/><line class="cls-1" x1="125.65" y1="231.31" x2="124.49" y2="238.33"/><path class="cls-1" d="M91,189.53a21.94,21.94,0,0,1,12.84,9.68c0.61,3.65-.34,7.21-8.16,7.21-6.89,0-6.87-.43-8.16-3.52S87.66,188.56,91,189.53Z"/></g><g id="hoofd-3" data-name="hoofd"><circle cx="176.28" cy="111.57" r="2.25"/><circle cx="156.87" cy="109.77" r="2.25"/><path class="cls-1" d="M157.23,96.14a24.45,24.45,0,1,0,41.07,17.92c0-13.5-10.13-25.83-25.48-24.45"/><polyline class="cls-1" points="165.11 108.32 159.3 125.01 163.33 125.78"/><g id="petje"><path class="cls-1" d="M197.67,114.5a77.46,77.46,0,0,0-15.57-12.08c-7.86-4.61-18.76-7.74-25.37-7.08"/><path class="cls-1" d="M184,103.36C173.05,84.72,146.55,78,143.17,83.78s12.07,11.1,12.07,11.1"/></g></g><path class="cls-1" d="M131,195c7.86-1.82,19.6-3.63,27.47-5.45-0.19,6.79-.58,16.87-0.58,16.87"/><polyline class="cls-1" points="157.71 217.95 157.04 224.6 130.23 231.58"/><path class="cls-1" d="M93,190.11l0.45-8.86L117.3,190l13.78,5.56-0.48,15.82"/><path class="cls-1" d="M130.49,223.85s-0.17,3.6-.26,7.72l-17.85-6.72-12.71-4.79-7.21-2.72s0-7.08,0-9.12"/><line class="cls-1" x1="118.89" y1="176.7" x2="118.89" y2="188.96"/><polyline class="cls-1" points="143.97 191.5 143.97 176.45 139.93 172.65 139.88 166.13 124.06 165.75 123.43 170.85"/><polyline class="cls-1" points="118.77 176.45 134.87 178.26 134.78 194.16"/><polyline class="cls-1" points="118.77 176.45 123.43 170.85 139.88 172.2 134.87 178.26"/><path class="cls-1" d="M149.91,163.85c-5.66-15.55-6.55-24.06-14.27-24.93"/><path class="cls-1" d="M148,163.57s-0.81-9.48-5.47-9.14"/><path class="cls-1" d="M139.88,172.2c0.68-5.2,3.36-8,8.53-8.41,4.9-.39,6.1,3.83,5.77,9.05-0.49,7.86-4.45,18-4.45,18"/><path class="cls-1" d="M149.91,163.85a43.36,43.36,0,0,1-.55-5.9c-0.16-5.81.77-14.14,7-16.42"/><path class="cls-1" d="M159.09,150.2c-3.91.05-9.73,7.76-9.73,7.76"/><path class="cls-1" d="M136.81,126.16c8.69-8.59,12.08,40.25,11.59,37.62"/><path class="cls-1" d="M147.31,164.55a3.44,3.44,0,0,0,3.71.14"/><path class="cls-1" d="M170.49,172.23C167,170.36,161.9,175,161.9,175"/><path class="cls-1" d="M161.9,175a43.36,43.36,0,0,1,2.4-5.41c2.7-5.15,4.19-6.29,10.35-7.66"/><path class="cls-1" d="M155.53,189.85S168.16,177,159,174.1c-2.3-.73-4.08,1-4.75,2.21"/><path class="cls-1" d="M160.38,173.79s3.33-9.08,0-13.35"/><path class="cls-1" d="M97,182.53l-1.71-6.22s12.16,5.51,23.63.39"/><path class="cls-1" d="M95.25,176.31c12.13-8.18,25.46-3.74,25.46-3.74"/><path class="cls-1" d="M104.62,175.79s-0.75-12-7.3-15.91c0,0-6.89-3.36-8-1.64s7.31,1.53,7.31,1.53-3.07-10.57-.34-10.41c0,0,5.1,7.23,1.62,10.92"/><path class="cls-1" d="M102.85,167.5s2-11,5-9.24S102.85,167.5,102.85,167.5Z"/><path class="cls-1" d="M121,161c-0.32,1.85-1.71,4.18-6.79,3.46"/><path class="cls-1" d="M109,176.86a60.59,60.59,0,0,1,5.27-12.46c1.92-3.17,4.25-5.66,6.8-5.5a6.16,6.16,0,0,1,0,2"/><path class="cls-2" d="M116.37,163.2s2.82-3.89,3.67-2.18S116.37,163.2,116.37,163.2Z"/><path class="cls-2" d="M105.65,162.86s0.89-4.72,2.39-3.54S105.65,162.86,105.65,162.86Z"/><path class="cls-3" d="M97,157.69c-0.19-1.24-1.08-7.53.19-5C98.88,156,97.27,159.2,97,157.69Z"/></svg>