<svg id="_5_stappen_extern" data-name="5 stappen extern" xmlns="http://www.w3.org/2000/svg" viewBox="0 0 300 300"><defs><style>.cls-1{fill:none;}.cls-1,.cls-2,.cls-3{stroke:#000;stroke-linecap:round;stroke-linejoin:round;}.cls-1,.cls-2{stroke-width:2px;}.cls-2{fill:#fff;}.cls-3{stroke-width:2.05px;}</style></defs><title>illustraties Master Maker_4_mei</title><g id="vrouwtje_water_geven" data-name="vrouwtje water geven"><path class="cls-1" d="M137.33,170.45c-1.62-2.11-.86-9.12.48-11.12,2.06-3.09,18.13-14.07,20.21-20.13,4.73-13.84,5.48-30.15,15.34-33.79l13.06-2.59c14,0.23,16.82,9.43,18.87,19.78,0,0,4.66,12.83,4.66,17.31,0,7.24-6.72,24.61-15.86,24.24,0,0-5-.65-2.59-5.49,0,0,9.48-9.27,9.08-15.16s-1.91-17.37-5.65-21.55"/><path class="cls-1" d="M173.6,192.41l0.19,38.51c1.19,1.14,7.95,5.92,13.8-.4"/><polyline class="cls-1" points="170.36 128.22 173.46 163.45 173.54 180.12"/><path class="cls-1" d="M187.4,165l1.77,65.47c4.24,7.62,13.79,3.86,13.54-.81-0.93-18.18-1.29-37.73-.45-61.17l1.83-11.21"/><g id="hoofd-3" data-name="hoofd"><circle cx="169.3" cy="80.26" r="1.71" transform="translate(-18.06 80.42) rotate(-25.41)"/><circle cx="154.56" cy="85.81" r="1.71" transform="translate(-21.87 74.63) rotate(-25.41)"/><path class="cls-1" d="M186,79.72c0.16-1-.08-2-1.37-4.71a17.87,17.87,0,0,0-32.28,15.34c4.24,8.91,14.32,13.11,23.18,8.77,3.89-1.91,7-7.08,7.61-10.18"/><polyline class="cls-1" points="160.91 81.63 162.31 94.47 165.21 93.71"/><path class="cls-1" d="M152.57,76.09c3.46,5.67,22.89-6.9,23-5.91,1.74,20.46,15.45,25,20.35,21.44C200.17,88.5,186.14,80,186.14,80"/><path class="cls-1" d="M155.49,96.26s-1.15,15.94,5.92,12.2,6.52-7.33,6.52-7.33"/></g><path class="cls-1" d="M146.79,162.67s-2.38-6-5.49-2.83-0.81,8.07-.81,8.07S145.08,170.18,146.79,162.67Z"/><path class="cls-1" d="M148.82,159.94c10.05-6.73,9.95-7.43,15.85-13.6,0,0,6-7.47,5.8-14.35"/></g><g id="gieter"><path class="cls-1" d="M146.72,161a18.14,18.14,0,0,1,3.7-2.08s18.55-4.58,17.7,13"/><path class="cls-1" d="M137.92,177.5a21.15,21.15,0,0,1,2.22-10.83"/><path class="cls-1" d="M137.14,178.15c8.25,0,19.4-7.84,21.92-11.51S176,181,175.12,187.53c-0.83,6.36-15.68,14.83-20.17,14.53s-15.2-16-15.2-16l-16.17,2.8s-1.8,5.1-3,4c-0.85-.79-4.83-10.51-3.67-11.7,1.75-1.8,5.17,1.37,5.17,1.37S136.56,178.15,137.14,178.15Z"/><path class="cls-1" d="M159.74,165.85s-13.46,1.37-22.61,12.3"/></g><g id="planten"><path class="cls-2" d="M115.25,232.62s-9.32-17.51-5.53-42.38c2.22-14.58,8.53-24.09,5-44.69-1.38-8-6.05-26.31-4.46-26.42,0,0,5.22-9.91,5-5.15a7.62,7.62,0,0,1-4.37,6.44"/><path class="cls-1" d="M97.46,226.74s-3.32-25.43-7.33-29.43"/><path class="cls-1" d="M123.74,235.2s-4.32-16.54,1.06-23.85"/><path class="cls-3" d="M110.68,125.39s-7.11-10.34-8.38-5.45S110.68,125.39,110.68,125.39Z"/><path class="cls-3" d="M114.43,141.15s13.48-4.87,7.34-5.61S114.43,141.15,114.43,141.15Z"/><path class="cls-3" d="M116,159.41s-9.54-10.7-7.94-4.73S116,159.41,116,159.41Z"/><path class="cls-3" d="M108.92,204.24s21.27-6,11.53-5.37S108.92,204.24,108.92,204.24Z"/><path class="cls-3" d="M107.27,196.57s-13.41-5.27-7.43-6.56S107.27,196.57,107.27,196.57Z"/><path class="cls-3" d="M115.81,161.41s13.48-4.87,7.34-5.61S115.81,161.41,115.81,161.41Z"/><path class="cls-3" d="M94.24,207.42s11.71-5.77,7-6.77S94.24,207.42,94.24,207.42Z"/><path class="cls-3" d="M91.45,198.88s-14-4.69-8.86-6.53S91.45,198.88,91.45,198.88Z"/><path class="cls-3" d="M124.65,211.64s14.69,1.52,10.77-2.28S124.65,211.64,124.65,211.64Z"/><path d="M110.88,120.43s2.93-8.73,4-6.5C117,118.63,110.88,120.43,110.88,120.43Z"/></g></svg>