<svg id="_7_tijdpad" data-name="7 tijdpad" xmlns="http://www.w3.org/2000/svg" viewBox="0 0 300 300"><defs><style>.cls-1,.cls-2{fill:none;stroke-miterlimit:10;stroke-width:2px;}.cls-1,.cls-2,.cls-3{stroke:#000;}.cls-2,.cls-3{stroke-linecap:round;}.cls-3{stroke-linejoin:round;stroke-width:1.88px;}</style></defs><title>illustraties Master Maker_4_mei</title><path class="cls-1" d="M204.9,178.3c0,48.09-23.93,53.22-53.45,53.22S98,226.4,98,178.3s23.93-87.08,53.45-87.08S204.9,130.21,204.9,178.3Z"/><path class="cls-2" d="M98.16,184.68c-0.15,11.88,106.75,11.26,106.44,0"/><line class="cls-2" x1="151.94" y1="186.56" x2="151.94" y2="192.49"/><line class="cls-2" x1="182.03" y1="185.44" x2="182.03" y2="191.86"/><line class="cls-2" x1="202.09" y1="182.3" x2="202.09" y2="187.02"/><line class="cls-2" x1="121.83" y1="185.89" x2="121.83" y2="190.56"/><line class="cls-2" x1="101.45" y1="183.08" x2="101.45" y2="187.79"/><polygon class="cls-3" points="151.94 197.82 147.92 203.15 155.69 203.15 151.94 197.82"/><line class="cls-2" x1="172.6" y1="186.32" x2="172.6" y2="191.86"/><line class="cls-2" x1="162.65" y1="186.32" x2="162.65" y2="192.74"/><line class="cls-2" x1="189.82" y1="184.69" x2="189.82" y2="190.21"/><line class="cls-2" x1="196.24" y1="183.82" x2="196.24" y2="189.26"/><line class="cls-2" x1="140.93" y1="186.56" x2="140.93" y2="192.49"/><line class="cls-2" x1="131.51" y1="186.56" x2="131.51" y2="192.49"/><line class="cls-2" x1="112.83" y1="185.26" x2="112.83" y2="189.53"/><line class="cls-2" x1="106.46" y1="184.06" x2="106.46" y2="188.65"/></svg>