<svg id="_18_tips" data-name="18 tips" xmlns="http://www.w3.org/2000/svg" viewBox="0 0 300 300"><defs><style>.cls-1{fill:none;stroke-width:2px;}.cls-1,.cls-2{stroke:#000;stroke-linecap:round;stroke-linejoin:round;}.cls-2{stroke-width:2.05px;}</style></defs><title>illustraties Master Maker_4_mei</title><g id="ober"><circle cx="142.12" cy="89.89" r="1.77"/><circle cx="158.29" cy="89.89" r="1.77"/><circle class="cls-1" cx="148.01" cy="92.45" r="18.41"/><polyline class="cls-1" points="150.65 88.32 152.35 101.48 149.76 101.48"/><polyline id="haar" class="cls-1" points="144.19 69.77 145.13 74.27 147.34 69.77 148.12 74.05 150.88 69.77 150.88 73.15 154.27 69.77 153 74.36"/><path class="cls-1" d="M126.4,168c-2.74-.6-4.93-1.51-6.06-2.87-4.23-5.07-.64-21.27,0-28.33,1-11.22,9.13-20.34,20.4-20.34h14.21c18.39,0,19.64,10.94,26.46,36.72,0,0,4.57-15.35,5.15-25.45,0.32-5.59,2.14-6.51,2.92-8.56,0.32-.83,5.43-24.19,3.53.24,0,0,7.7.57,0.29,11.23-4.21,6.06-3.09,36.06-11.18,35.43-11.19-.88-16.24-26.89-16.24-26.89"/><path class="cls-1" d="M150.56,159.73s6.07-.63,8.09-0.63c2.65,0-4.62,3.46-2.65,3.17,7-1,12.33,1,12.33,3.57,0,6.19-17,2.85-17,2.85-1.14,0-.84.13-2.74,0.21"/><path class="cls-1" d="M165.64,168.9L165,251.43s-7.27,8.76-13.79.23v-55.9"/><line class="cls-1" x1="165.88" y1="139.19" x2="165.68" y2="163.04"/><path class="cls-1" d="M130.14,199.62l0.31,51.81s7.32,8.18,13.62-.35L144.61,200"/><path class="cls-1" d="M131.73,135.94c0,5-1.81,23.16-1.81,23.16"/><path class="cls-1" d="M155,172.81s7.8,0.79,10.59-.59"/><line class="cls-1" x1="148.27" y1="119.56" x2="148.27" y2="157.55"/><path class="cls-1" d="M150.56,157.86c-3.62-.42-1.88,41.34-1.88,41.34s-20.72,1-21.91,0-3.27-35.66,3.15-40.1C133.48,156.63,150.56,157.86,150.56,157.86Z"/><polyline class="cls-1" points="154.73 170.66 155.02 195.26 149.42 195.26"/><path class="cls-1" d="M150.56,157.86s1.58,0.13,1.66,1.24"/></g><g id="strikje"><circle cx="148.27" cy="116.58" r="2.98"/><polyline class="cls-2" points="149.72 115.5 159.22 112.46 159.22 119.61 149.61 118"/><polyline class="cls-2" points="146.3 115.5 136.81 112.46 136.81 119.61 146.42 118"/><polyline class="cls-1" points="138.04 116.41 142.2 125.53 147.08 119.38"/><polyline class="cls-1" points="158.78 116.41 154.63 125.53 149.75 119.38"/></g></svg>