<svg id="_15_visitatiebezoek" data-name="15 visitatiebezoek" xmlns="http://www.w3.org/2000/svg" viewBox="0 0 300 300"><defs><style>.cls-1{fill:none;stroke:#000;stroke-linecap:round;stroke-linejoin:round;stroke-width:2px;}</style></defs><title>illustraties Master Maker_4_mei</title><g id="lijf"><path class="cls-1" d="M158.46,150c-10.82-.28-24.08.84-30.88,1.14-16.44.73-51.06,42.36-51.9,47.33-1.62,9.67,32,18,32,18s3.86,3,7.67,6l1.77,1.37c3.76,2.91,15.74-1.71,10.69-3.5l-4.14-5.35"/><path class="cls-1" d="M172.9,152.21a14.82,14.82,0,0,0-3.2-1.1"/><path id="arm_links" class="cls-1" d="M132,217.64c0.85-1.86-4.78-6-5.8-6.71-2-1.34-12.5-.08-12.5-0.08S96.54,201.71,92,197.69c0,0,22.84-20.09,25.75-22.13l0.27,34.9"/><path class="cls-1" d="M137.36,150.82c-2.29,1.54-11.8,15.35-13.4,29.56-0.42,3.77.66,28.93,0.66,28.93"/><path class="cls-1" d="M158.46,150.1s11.71,18.75,11.23,37.8"/><path class="cls-1" d="M159,150.82c8,4.14,15.64-3.42,13.27-6.06-3.79-4.21-13,5.54-13,5.54"/><path class="cls-1" d="M161.67,151.86c13,2.82,15.25,10.7,10.48,10.67-7.63,0-13.19-11.71-13.19-11.71"/><line class="cls-1" x1="173.89" y1="206.03" x2="174.45" y2="211.2"/><line class="cls-1" x1="169.7" y1="201.76" x2="169.7" y2="211.15"/><g id="mannetje"><path class="cls-1" d="M172.9,152.21c13.92,8.78,47.74,69.85,36.33,72.89-17.43,4.64-36.72-25.62-46.9-27.64-9-1.78-11.53-18.44-5.3-15.46,4.2,2,8.82,4.95,10.21,7.37"/><path id="arm_links-2" data-name="arm_links" class="cls-1" d="M163.19,184.63c1.05-2.82,6.28,2.72,6.49,3.92,0.8,4.47,16.3,16.65,24.9,20-9-9.09-19.65-27.36-21.68-29.77l1,15.32"/></g></g><path id="mes" class="cls-1" d="M127.85,220.27l5.35,1.42a13.58,13.58,0,0,0,6.85,3.28c7.38,1,12.73-4.83,12.73-4.83s-18.75-.41-29.07-5.22"/><g id="glas"><ellipse class="cls-1" cx="234.43" cy="233.87" rx="10.48" ry="3.14"/><line class="cls-1" x1="234.43" y1="233.3" x2="234.4" y2="220.94"/><path class="cls-1" d="M244.47,194.37c-2.19-2.86-16.69-3.13-20.24-.27"/><path class="cls-1" d="M224.87,194.54c-3.29-2.65-1.06,26,9.54,26.39,12,0.4,12-28.6,10.07-26.13C242.29,197.67,228.42,197.4,224.87,194.54Z"/></g><g id="hoofd"><path class="cls-1" d="M165.89,132.94c4.21,0.71,8.29-2.67,9.11-7.55a9.09,9.09,0,0,0-3.23-8.87,10.16,10.16,0,0,0,1.13-3.25c0.82-4.88-1.93-9.41-6.14-10.12a6.8,6.8,0,0,0-3,.17c0-.12.05-0.23,0.07-0.35,0.82-4.88-1.93-9.41-6.14-10.12a7.47,7.47,0,0,0-6.85,2.69,6.68,6.68,0,0,0-4.11-2.48A7.14,7.14,0,0,0,140,95.88a9.33,9.33,0,0,0-3.25-1.2c-5.8-1-11.42,3.68-12.55,10.4a14.29,14.29,0,0,0-.2,2.47,10.07,10.07,0,0,0-6.66,8.15c-0.91,5.41,2.14,10.43,6.81,11.22"/><path class="cls-1" d="M125.12,121.19s7.71-2.49,7.21-8.39c0,0,7,1.18,9.05-3s4.64,5.33,11.26-.1c0,0,1.54,5.71,8.94,5.11,0,0,.07,7.69,4.64,5.72L166,128.07a20.74,20.74,0,0,1-40.9-6.88"/><circle cx="137.24" cy="120.31" r="2.09" transform="translate(-4.17 235.69) rotate(-80.45)"/><circle cx="155.21" cy="123.33" r="2.09" transform="translate(7.84 255.93) rotate(-80.45)"/><polyline class="cls-1" points="145.69 122.76 145.26 137.73 142.1 137.2"/></g><g id="vork"><line class="cls-1" x1="150.36" y1="169" x2="145.54" y2="162.53"/><path id="vork-2" data-name="vork" class="cls-1" d="M158.46,182.71l-5.5-7.82s-3.81,1.87-6.72-1c-2.15-2.12,0,0-5.72-9l6.51,6.25s4.63-2,7.06-4.62l-5.33-5.72s-1.73-1.86,7.16,3.69c3.24,2,2.36,4.59-.18,8.94a61.72,61.72,0,0,0,10.32,14.47"/><path class="cls-1" d="M143.07,169s-6-.41-8.66-3.1,15-7.51,15-7.51l4.19,0.77Z"/></g><g id="bord"><path class="cls-1" d="M132.11,215.84c4.68-.37,7.66-0.42,12.87-0.42,26,0,47.13,5,47.13,11.2S171,237.83,145,237.83s-47.13-5-47.13-11.2c0-2.64,5.38-6,11.79-7.94"/><path class="cls-1" d="M154.31,224.58s17.28-2.14,17.28,0-4.07,6.64-6.42,7.06c-3.36.6-16.06-5.12-16.06-5.12"/><path class="cls-1" d="M133.08,223.63s-21.4,7.1,1.65,4.94c30.1-2.81,16.44-7,16.44-7"/></g><g id="tafel"><line class="cls-1" x1="174.14" y1="211.39" x2="179.59" y2="211.46"/><line class="cls-1" x1="210.67" y1="211.73" x2="225.68" y2="211.85"/><line class="cls-1" x1="243.43" y1="212.01" x2="252.25" y2="212.09"/><line class="cls-1" x1="60.54" y1="210.37" x2="89.08" y2="210.61"/><line class="cls-1" x1="126.19" y1="210.96" x2="174.14" y2="211.39"/></g></svg>