<svg id="_10_vooraanvraag" data-name="10 vooraanvraag" xmlns="http://www.w3.org/2000/svg" viewBox="0 0 300 300"><defs><style>.cls-1{fill:none;stroke:#000;stroke-linecap:round;stroke-linejoin:round;stroke-width:2px;}</style></defs><title>illustraties Master Maker_4_mei</title><g id="mannetje"><path class="cls-1" d="M179.35,199.74c2.22-3.68,10.35-4.72,10.35-4.72s6.82-12,7.56-17.13c0.57-4-19.92-16.42-19.92-16.42L181,197"/><path class="cls-1" d="M148.57,210.55s-0.52,2-9,2c-10.21,0-6.07-8.44-6.07-8.44s-33.86-3.92-38.62-6.66c-14-8.09,22.9-56.31,32.28-58.9,6-1.67,27-.9,44.69-1.48,11.72-.38,33.21,31.59,36.38,38.47,1.65,3.58-11,22.05-11,22.05s0.6,12.43-10,15c-6.4,1.52-5.77-4.79,1.2-12.3L182.28,202"/><path id="arm_links" class="cls-1" d="M151.07,204.06c2-.64-1-4.86-4.12-7.3-3.76-3-9.28-.59-9.28-0.59l-27.59-11s9.28-18.66,16.9-22.3l-0.17,28.72"/><g id="hoofd-2" data-name="hoofd"><circle cx="167.13" cy="113.75" r="2.22" transform="translate(-17.46 31.29) rotate(-10.17)"/><circle cx="146.99" cy="111.14" r="2.22" transform="translate(-17.31 27.7) rotate(-10.17)"/><circle class="cls-1" cx="151.84" cy="108.81" r="23.92" transform="translate(-8.49 12.95) rotate(-4.75)"/><polyline class="cls-1" points="158.34 109.83 157.22 127.87 153.38 127.19"/><g id="haar"><path class="cls-1" d="M175,98.22s-8.95-20.83-28.74-9c-16.66,10-14.08-4.65-14.28-1.61"/><path class="cls-1" d="M156.65,85.68s-9.82,6.92-7.77,11.42"/><path class="cls-1" d="M147.91,89.09s-8,2-6.67-5"/><path class="cls-1" d="M149.86,85s-4.22,11.48-13,15.44c-6,2.72-11.29-1.62-13.08-4"/></g></g><line class="cls-1" x1="171.85" y1="137.02" x2="178.9" y2="180.56"/><path class="cls-1" d="M141.27,137.89l-2.63,23.58c4.34,5,21,4.74,29.12,0l-3-23.58"/><path class="cls-1" d="M133.83,137.59s-3.53,40-7,49.77"/></g><path id="mes" class="cls-1" d="M145.48,208.54l4.49,1.82L148.91,216s12.81,4.88,24.28.73c6.52-2.36,6.14-3.22,6.14-3.22l-28.27-9.43-2.5-.92Z"/><g id="knol"><path class="cls-1" d="M185,204.07a18.3,18.3,0,0,0-2.76-2.09c-2.36-1.37-9.25-3-5.9-9.2s9-5,9-5"/><path class="cls-1" d="M165.29,222.88c4,1.67,7,2.57,14.05,1.64a11.92,11.92,0,0,0,10.82-12.7"/><path class="cls-1" d="M167.2,198.88c2.2-3.93-2.16-11.75-10.37-9.11"/><path class="cls-1" d="M162.41,207.85c0-7.55,4.78-9,4.78-9"/><path class="cls-1" d="M168.71,218.39a12.48,12.48,0,0,1-11.33,7.36c-9.7.15-13.9-4.18-13-7.87,0.48-2,1.65-3.91,5.08-4.71"/><path class="cls-1" d="M141,212.5c-3.35.57-10.15,10.14-1.6,12.7a8.5,8.5,0,0,0,7.81-1.28"/><path class="cls-1" d="M170.58,192.61c0-.79-6.22-16.47-18.88-10.84"/><path class="cls-1" d="M173.32,191.87s2.26-16.3,11.17-14.27"/><path class="cls-1" d="M172.77,195.72s1.82-33-15-39.56"/><path class="cls-1" d="M135.3,211.46s-11.54,4.86-9.83,13.37c1.09,5.41,9.83,4,9.83,4a13.46,13.46,0,0,0,7.26-2.86"/></g><g id="plank"><polyline class="cls-1" points="209.95 231.61 105.44 232.25 120.03 209.57"/><polyline class="cls-1" points="200.79 209.57 209.95 231.61 105.44 232.25 120.03 209.57 133.05 209.57"/><polyline class="cls-1" points="105.44 232.25 105.44 241.13 209.95 240.65 209.95 231.61"/><line class="cls-1" x1="192.81" y1="209.57" x2="200.79" y2="209.57"/></g></svg>