<svg id="_2_wegwijzer" data-name="2 wegwijzer" xmlns="http://www.w3.org/2000/svg" viewBox="0 0 300 300"><defs><style>.cls-1{fill:none;stroke:#000;stroke-linecap:round;stroke-linejoin:round;stroke-width:2px;}</style></defs><title>illustraties Master Maker_4_mei</title><g id="man_of_vrouw_krullen"><g id="boek_oma" data-name="boek oma"><polyline class="cls-1" points="145.43 182.42 110.13 171.48 93.42 166.26 93.42 229.32"/><polyline class="cls-1" points="146.53 231.03 146.53 182.6 198.43 166.54 198.23 228.83"/></g><path class="cls-1" d="M105.59,170.06c6.41-9,20.91-15.85,30.17-15.85l9.86,14.35,10.45-14.35c9.08,0,23.2,6.56,29.79,15.32"/><path class="cls-1" d="M119.85,135.09c1-.54,7.77-8.6,7-11.6,0,0,8.73,0,10.31-5.49s6.68,5.49,13.57-2.41c0,0,3,6.59,11.83,4.35,0,0,1.57,12.76,8.88,8.73"/><circle cx="134.31" cy="133.62" r="2.05"/><circle cx="156.61" cy="133.62" r="2.05"/><polyline class="cls-1" points="145.3 131.49 141.82 144.58 145.95 144.58"/><path class="cls-1" d="M171.45,128.67c5.23,0,9.47-4.91,9.47-11a11.13,11.13,0,0,0-5.7-10.05,12.43,12.43,0,0,0,.71-4.15c0-6.05-4.24-11-9.47-11a8.32,8.32,0,0,0-3.55.8c0-.14,0-0.29,0-0.43,0-6.05-4.24-11-9.47-11a9.15,9.15,0,0,0-7.73,4.64,8.18,8.18,0,0,0-5.47-2.16,8.74,8.74,0,0,0-7.54,4.77,11.42,11.42,0,0,0-4.16-.79c-7.2,0-13,6.76-13,15.1a17.49,17.49,0,0,0,.26,3c-3.75,1.85-6.38,6.16-6.38,11.18,0,6.71,4.65,17.38,10.44,17.38"/><path class="cls-1" d="M121.19,134.11a26.12,26.12,0,0,0,49.12-4.51"/></g><path d="M99.26,191.55l3.53-4.7a0.55,0.55,0,0,1,.63-0.22,1.61,1.61,0,0,1,.85,1.52,1.2,1.2,0,0,1-.23.77l-2.82,3.56,3.33,7.92a2.08,2.08,0,0,1,.17.81c0,0.69-.4,1.12-0.87.92a1.51,1.51,0,0,1-.71-0.84l-3.05-7.44-0.83,1V199c0,0.69-.37,1.11-0.83.92a1.77,1.77,0,0,1-.82-1.58v-12.3c0-.69.37-1.13,0.82-1a1.6,1.6,0,0,1,.83,1.52v5Z"/><path d="M105.06,194.89c0-5.33,1.8-7.33,5.05-6.31s5.37,4.4,5.37,10.06-2,7.55-5.37,6.18S105.06,200.15,105.06,194.89Zm1.88,0.67c0,3.75,1,6,3.17,6.84s3.3-.62,3.3-4.51-1.1-6.19-3.3-6.91S106.94,191.79,106.94,195.57Z"/><path d="M116.68,199.07c0-5.7,2.06-7.8,5.79-6.63,3.89,1.21,6.19,4.86,6.19,10.94s-2.29,8.05-6.19,6.47C118.74,208.32,116.68,204.69,116.68,199.07Zm2.15,0.77c0,4,1.19,6.45,3.65,7.42s3.8-.56,3.8-4.74-1.27-6.67-3.8-7.5S118.83,195.8,118.83,199.84Z"/><path d="M133,203.41l5.2-5.4a0.89,0.89,0,0,1,.94-0.22,2.07,2.07,0,0,1,1.27,1.92,1.22,1.22,0,0,1-.34.92l-4.17,4.08,4.93,10a2.26,2.26,0,0,1,.25,1,0.94,0.94,0,0,1-1.3,1,2.19,2.19,0,0,1-1.06-1.1l-4.5-9.34L133,207.4v5a0.9,0.9,0,0,1-1.22,1,2.26,2.26,0,0,1-1.2-2V196.62a1,1,0,0,1,1.2-1.13,2,2,0,0,1,1.22,1.9v6Z"/><path d="M155,215.58a0.89,0.89,0,0,1-1.35-.9l-0.29-15.44a2.4,2.4,0,0,1,1.34-2.19l4.13-1.56c3.3-1.25,4.45.55,4.44,3a6.47,6.47,0,0,1-1.56,4.29c1.57,0.08,2.16,1.23,2.16,3.26a7.94,7.94,0,0,1-4.53,7.38Zm1.16-11.35,2.73-1.16a3.17,3.17,0,0,0,1.93-3.14c0-1.41-.57-2.09-2-1.54l-2.76,1.09Zm0.1,8,3.07-1.46a3.59,3.59,0,0,0,2.1-3.55c0-1.6-.71-2.27-2.13-1.64l-3.11,1.38Z"/><path d="M165.28,202c0-6.25,2.39-10.19,6.32-11.66,3.73-1.4,5.67.68,5.49,6.5-0.18,5.61-2.23,9.32-5.84,11.1C167.47,209.77,165.24,208,165.28,202Zm2.38-1c0,4.2,1.17,5.63,3.64,4.45s3.58-3.64,3.69-7.66-1-5.69-3.45-4.72S167.72,196.61,167.67,200.91Z"/><path d="M180.66,194l3-1.29c0.44-.19.77,0.2,0.74,0.84a1.87,1.87,0,0,1-.84,1.53l-3,1.34-0.17,4.31,4.16-2c0.44-.21.76,0.14,0.73,0.79a1.93,1.93,0,0,1-.84,1.55l-5.08,2.5c-0.52.26-.93-0.14-0.91-0.88l0.47-13.38a2.09,2.09,0,0,1,1-1.81l5.05-1.91c0.45-.17.78,0.24,0.75,0.93a1.81,1.81,0,0,1-.86,1.54l-4.07,1.61Z"/><path d="M188.73,190.43l3.76-7.44a1.28,1.28,0,0,1,.61-0.65c0.43-.16.73,0.27,0.69,1a2.36,2.36,0,0,1-.26.93l-2.88,5.62,2.61,5.18a1.21,1.21,0,0,1,.1.63,2.06,2.06,0,0,1-.84,1.58,0.41,0.41,0,0,1-.6-0.22l-2.49-4.88-0.89,1.71-0.23,4.25a2.13,2.13,0,0,1-.9,1.68c-0.46.23-.81-0.16-0.78-0.86l0.68-13a2,2,0,0,1,.94-1.69c0.47-.18.82,0.28,0.78,1Z"/></svg>